{
.appVersion = "3151";
.formatVersion = 3;
customParameters = (
{
name = vendorID;
value = "1BOU";
},
{
name = panose;
value = (
0,
0,
9,
0,
0,
0,
0,
0,
0,
0
);
},
{
name = unicodeRanges;
value = (
0,
1,
2,
3,
5,
13,
31,
33,
35,
38,
45,
60,
63,
67
);
},
{
name = codePageRanges;
value = (
"1252",
"1256"
);
},
{
name = fsType;
value = (
);
},
{
name = glyphOrder;
value = (
.notdef,
uni000D,
space,
exclam,
quotedbl,
numbersign,
dollar,
percent,
ampersand,
quotesingle,
parenleft,
parenright,
asterisk,
plus,
comma,
hyphen,
period,
slash,
zero,
one,
two,
three,
four,
five,
six,
seven,
eight,
nine,
colon,
semicolon,
less,
equal,
greater,
question,
at,
A,
B,
C,
D,
E,
F,
G,
H,
I,
J,
K,
L,
M,
N,
O,
P,
Q,
R,
S,
T,
U,
V,
W,
X,
Y,
Z,
bracketleft,
backslash,
bracketright,
asciicircum,
underscore,
grave,
a,
b,
c,
d,
e,
f,
g,
h,
i,
j,
k,
l,
m,
n,
o,
p,
q,
r,
s,
t,
u,
v,
w,
x,
y,
z,
braceleft,
bar,
braceright,
asciitilde,
exclamdown,
cent,
sterling,
yen,
brokenbar,
section,
dieresis,
copyright,
ordfeminine,
guillemotleft,
uni00AD,
registered,
macron,
degree,
plusminus,
twosuperior,
threesuperior,
acute,
paragraph,
periodcentered,
cedilla,
onesuperior,
ordmasculine,
guillemotright,
onequarter,
onehalf,
threequarters,
questiondown,
Agrave,
Aacute,
Acircumflex,
Atilde,
Adieresis,
Aring,
AE,
Ccedilla,
Egrave,
Eacute,
Ecircumflex,
Edieresis,
Igrave,
Iacute,
Icircumflex,
Idieresis,
Eth,
Ntilde,
Ograve,
Oacute,
Ocircumflex,
Otilde,
Odieresis,
multiply,
Oslash,
Ugrave,
Uacute,
Ucircumflex,
Udieresis,
Yacute,
Thorn,
germandbls,
agrave,
aacute,
acircumflex,
atilde,
adieresis,
aring,
ae,
ccedilla,
egrave,
eacute,
ecircumflex,
edieresis,
igrave,
iacute,
icircumflex,
idieresis,
eth,
ntilde,
ograve,
oacute,
ocircumflex,
otilde,
odieresis,
divide,
oslash,
ugrave,
uacute,
ucircumflex,
udieresis,
yacute,
thorn,
ydieresis,
dotlessi,
Lslash,
lslash,
OE,
oe,
Scaron,
scaron,
Ydieresis,
Zcaron,
zcaron,
florin,
circumflex,
caron,
breve,
dotaccent,
ring,
ogonek,
tilde,
hungarumlaut,
uni03BC,
uni060C,

glyphs = (
{
glyphname = .notdef;
layers = (
{
layerId = m01;
shapes = (
{
closed = 1;
nodes = (
(66,-220,l),
(458,-220,l),
(458,511,l),
(66,511,l)
);
},
{
closed = 1;
nodes = (
(492,545,l),
(492,-254,l),
(31,-254,l),
(31,545,l)
);
},
{
closed = 1;
nodes = (
(233,-114,o),
(219,-98,o),
(219,-80,cs),
(219,-60,o),
(233,-45,o),
(252,-45,cs),
(271,-45,o),
(286,-60,o),
(286,-80,cs),
(286,-98,o),
(271,-114,o),
(252,-114,cs)
);
},
{
closed = 1;
nodes = (
(232,59,ls),
(232,149,o),
(366,157,o),
(366,262,cs),
(366,324,o),
(325,361,o),
(257,361,cs),
(217,361,o),
(178,349,o),
(139,322,c),
(135,318,o),
(131,316,o),
(128,316,cs),
(124,316,o),
(123,318,o),
(121,324,cs),
(117,338,ls),
(111,356,o),
(123,366,o),
(146,378,cs),
(174,392,o),
(210,405,o),
(256,405,cs),
(355,405,o),
(412,353,o),
(412,262,cs),
(412,192,o),
(351,148,o),
(291,100,cs),
(276,87,o),
(273,77,o),
(273,55,cs),
(273,22,ls),
(273,18,o),
(272,16,o),
(269,16,cs),
(236,16,ls),
(233,16,o),
(232,18,o),
(232,22,cs)
);
}
);
width = 524;
}
);
note = ".notdef";
},
{
glyphname = exclam;
layers = (
{
layerId = m01;
shapes = (
{
closed = 1;
nodes = (
(47,137,o),
(48,135,o),
(52,135,cs),
(87,135,ls),
(90,135,o),
(91,137,o),
(91,141,cs),
(95,503,ls),
(95,536,o),
(78,556,o),
(55,556,cs),
(50,556,ls),
(46,556,o),
(45,553,o),
(45,549,cs),
(47,141,ls)
);
},
{
closed = 1;
nodes = (
(48,69,o),
(29,49,o),
(29,27,cs),
(29,3,o),
(48,-16,o),
(70,-16,cs),
(93,-16,o),
(111,3,o),
(111,27,cs),
(111,49,o),
(93,69,o),
(70,69,cs)
);
}
);
width = 141;
}
);
note = exclam;
unicode = 33;
},
{
glyphname = quotedbl;
layers = (
{
layerId = m01;
shapes = (
{
closed = 1;
nodes = (
(44,384,o),
(45,382,o),
(49,382,cs),
(71,382,ls),
(75,382,o),
(76,384,o),
(76,388,cs),
(84,503,ls),
(87,541,o),
(72,556,o),
(43,556,cs),
(36,556,ls),
(32,556,o),
(31,553,o),
(31,549,cs),
(44,388,ls)
);
},
{
closed = 1;
nodes = (
(143,384,o),
(144,382,o),
(148,382,cs),
(170,382,ls),
(174,382,o),
(175,384,o),
(175,388,cs),
(183,503,ls),
(186,541,o),
(171,556,o),
(142,556,cs),
(135,556,ls),
(131,556,o),
(130,553,o),
(130,549,cs),
(143,388,ls)
);
}
);
width = 218;
}
);
note = quotedbl;
unicode = 34;
},
{
glyphname = numbersign;
layers = (
{
layerId = m01;
shapes = (
{
closed = 1;
nodes = (
(67,6,ls),
(66,2,o),
(68,0,o),
(72,0,cs),
(113,0,ls),
(117,0,o),
(117,2,o),
(118,6,cs),
(157,159,l),
(314,159,l),
(276,6,ls),
(275,2,o),
(276,0,o),
(280,0,cs),
(321,0,ls),
(326,0,o),
(326,2,o),
(326,6,c),
(365,159,l),
(440,159,ls),
(445,159,o),
(446,161,o),
(448,165,c),
(455,198,ls),
(456,202,o),
(455,204,o),
(450,204,cs),
(378,204,l),
(415,352,l),
(489,352,ls),
(493,352,o),
(494,354,o),
(495,358,cs),
(504,391,l),
(504,394,o),
(503,397,o),
(499,397,cs),
(426,397,l),
(455,509,ls),
(463,541,o),
(451,556,o),
(428,556,cs),
(419,556,ls),
(415,556,o),
(415,553,o),
(414,549,cs),
(375,397,l),
(218,397,l),
(246,509,ls),
(255,541,o),
(243,556,o),
(219,556,cs),
(210,556,ls),
(206,556,o),
(206,553,o),
(205,549,cs),
(166,397,l),
(92,397,ls),
(88,397,o),
(86,394,o),
(85,391,cs),
(77,358,ls),
(76,354,o),
(78,352,o),
(82,352,cs),
(154,352,l),
(117,204,l),
(43,204,ls),
(39,204,o),
(37,202,o),
(36,198,cs),
(28,165,ls),
(27,161,o),
(29,159,o),
(33,159,cs),
(105,159,l)
);
},
{
closed = 1;
nodes = (
(207,352,l),
(363,352,l),
(326,204,l),
(169,204,l)
);
}
);
width = 529;
}
);
note = numbersign;
unicode = 35;
},
{
glyphname = dollar;
layers = (
{
layerId = m01;
shapes = (
{
closed = 1;
nodes = (
(142,37,o),
(95,66,o),
(57,117,cs),
(52,124,o),
(48,127,o),
(42,127,cs),
(35,127,o),
(30,119,o),
(30,108,cs),
(30,69,o),
(84,-8,o),
(208,-11,c),
(208,-59,ls),
(208,-63,o),
(209,-65,o),
(213,-65,cs),
(244,-65,ls),
(248,-65,o),
(249,-63,o),
(249,-59,cs),
(249,-9,l),
(349,2,o),
(409,65,o),
(409,155,cs),
(409,243,o),
(328,273,o),
(249,300,c),
(249,518,l),
(296,513,o),
(338,497,o),
(374,472,cs),
(379,468,o),
(383,466,o),
(387,466,cs),
(391,466,o),
(393,469,o),
(394,474,cs),
(398,489,ls),
(403,509,o),
(388,523,o),
(363,536,cs),
(331,551,o),
(294,563,o),
(249,566,c),
(249,616,ls),
(249,619,o),
(248,622,o),
(244,622,cs),
(213,622,ls),
(209,622,o),
(208,619,o),
(208,616,cs),
(208,566,l),
(109,558,o),
(46,498,o),
(46,422,cs),
(46,328,o),
(127,296,o),
(208,268,c),
(208,36,l)
);
},
{
closed = 1;
nodes = (
(309,230,o),
(361,204,o),
(361,146,cs),
(361,89,o),
(318,49,o),
(249,39,c),
(249,253,l)
);
},
{
closed = 1;
nodes = (
(146,338,o),
(94,364,o),
(94,424,cs),
(94,478,o),
(140,516,o),
(208,519,c),
(208,315,l)
);
}
);
width = 446;
}
);
note = dollar;
unicode = 36;
},
{
glyphname = percent;
layers = (
{
layerId = m01;
shapes = (
{
closed = 1;
nodes = (
(512,29,o),
(471,49,o),
(471,162,cs),
(471,276,o),
(512,297,o),
(555,297,cs),
(598,297,o),
(637,276,o),
(637,162,cs),
(637,49,o),
(598,29,o),
(555,29,cs)
);
},
{
closed = 1;
nodes = (
(123,261,o),
(83,280,o),
(83,394,cs),
(83,508,o),
(123,528,o),
(166,528,cs),
(209,528,o),
(249,508,o),
(249,394,cs),
(249,280,o),
(209,261,o),
(166,261,cs)
);
},
{
closed = 1;
nodes = (
(229,0,ls),
(233,0,o),
(235,2,o),
(237,6,cs),
(509,503,ls),
(527,536,o),
(521,556,o),
(497,556,cs),
(491,556,ls),
(487,556,o),
(486,553,o),
(484,549,cs),
(185,6,ls),
(183,2,o),
(183,0,o),
(187,0,cs)
);
},
{
closed = 1;
nodes = (
(636,-9,o),
(682,57,o),
(682,162,cs),
(682,268,o),
(635,335,o),
(555,335,cs),
(474,335,o),
(427,268,o),
(427,162,cs),
(427,57,o),
(473,-9,o),
(555,-9,cs)
);
},
{
closed = 1;
nodes = (
(247,223,o),
(293,288,o),
(293,394,cs),
(293,498,o),
(246,567,o),
(166,567,cs),
(86,567,o),
(38,498,o),
(38,394,cs),
(38,288,o),
(85,223,o),
(166,223,cs)
);
}
);
width = 719;
}
);
note = percent;
unicode = 37;
},
{
glyphname = ampersand;
layers = (
{
layerId = m01;
shapes = (
{
closed = 1;
nodes = (
(238,298,l),
(321,343,o),
(365,394,o),
(365,453,cs),
(365,522,o),
(308,567,o),
(234,567,cs),
(151,567,o),
(95,519,o),
(95,446,cs),
(95,397,o),
(125,357,o),
(169,309,c),
(98,269,o),
(44,224,o),
(44,146,cs),
(44,56,o),
(110,-6,o),
(202,-6,cs),
(285,-6,o),
(335,48,o),
(364,86,c),
(429,9,ls),
(436,1,o),
(439,0,o),
(449,0,cs),
(488,0,ls),
(493,0,o),
(493,4,o),
(491,8,c),
(389,127,l),
(482,283,ls),
(484,287,o),
(483,290,o),
(478,290,cs),
(447,290,ls),
(439,290,o),
(435,287,o),
(431,280,cs),
(360,159,l)
);
},
{
closed = 1;
nodes = (
(173,372,o),
(145,412,o),
(145,449,cs),
(145,493,o),
(180,522,o),
(234,522,cs),
(280,522,o),
(315,492,o),
(315,452,cs),
(315,403,o),
(280,367,o),
(212,331,c)
);
},
{
closed = 1;
nodes = (
(302,74,o),
(268,40,o),
(205,40,cs),
(135,40,o),
(93,82,o),
(93,151,cs),
(93,209,o),
(136,243,o),
(197,276,c),
(335,117,l)
);
}
);
width = 518;
}
);
note = ampersand;
unicode = 38;
},
{
glyphname = quotesingle;
layers = (
{
layerId = m01;
shapes = (
{
closed = 1;
nodes = (
(44,384,o),
(45,382,o),
(49,382,cs),
(71,382,ls),
(75,382,o),
(76,384,o),
(76,388,cs),
(84,503,ls),
(87,541,o),
(72,556,o),
(43,556,cs),
(36,556,ls),
(32,556,o),
(31,553,o),
(31,549,cs),
(44,388,ls)
);
}
);
width = 118;
}
);
note = quotesingle;
unicode = 39;
},
{
glyphname = parenleft;
layers = (
{
layerId = m01;
shapes = (
{
closed = 1;
nodes = (
(60,59,o),
(151,-88,o),
(255,-144,cs),
(261,-147,o),
(264,-145,o),
(264,-138,cs),
(264,-108,o),
(260,-101,o),
(241,-81,cs),
(155,1,o),
(111,119,o),
(112,277,cs),
(111,434,o),
(155,552,o),
(241,634,cs),
(259,653,o),
(264,660,o),
(264,691,cs),
(264,698,o),
(261,699,o),
(255,697,c),
(151,641,o),
(60,494,o),
(62,277,cs)
);
}
);
width = 314;
}
);
note = parenleft;
unicode = 40;
},
{
glyphname = parenright;
layers = (
{
layerId = m01;
shapes = (
{
closed = 1;
nodes = (
(256,494,o),
(166,641,o),
(61,697,c),
(55,699,o),
(52,698,o),
(52,691,cs),
(52,660,o),
(58,653,o),
(76,634,cs),
(161,552,o),
(206,434,o),
(204,277,cs),
(206,119,o),
(161,1,o),
(76,-81,cs),
(56,-101,o),
(52,-108,o),
(52,-138,cs),
(52,-145,o),
(55,-147,o),
(61,-144,cs),
(166,-88,o),
(256,59,o),
(255,277,cs)
);
}
);
width = 314;
}
);
note = parenright;
unicode = 41;
},
{
glyphname = asterisk;
layers = (
{
layerId = m01;
shapes = (
{
closed = 1;
nodes = (
(72,310,ls),
(70,307,o),
(70,305,o),
(74,303,cs),
(112,280,ls),
(114,279,o),
(117,277,o),
(119,281,cs),
(169,368,l),
(223,281,ls),
(225,277,o),
(227,278,o),
(230,280,cs),
(268,303,ls),
(272,306,o),
(273,307,o),
(270,310,cs),
(209,388,l),
(303,414,l),
(306,416,o),
(307,419,o),
(306,423,cs),
(292,466,ls),
(291,469,o),
(288,469,o),
(285,469,c),
(196,432,l),
(203,533,ls),
(203,538,o),
(201,538,o),
(197,538,cs),
(144,538,ls),
(141,538,o),
(139,538,o),
(139,533,cs),
(146,432,l),
(56,469,l),
(53,469,o),
(51,469,o),
(50,466,cs),
(35,423,ls),
(34,419,o),
(35,416,o),
(39,414,c),
(133,388,l)
);
}
);
width = 341;
}
);
note = asterisk;
unicode = 42;
},
{
glyphname = plus;
layers = (
{
layerId = m01;
shapes = (
{
closed = 1;
nodes = (
(169,107,ls),
(169,103,o),
(170,101,o),
(174,101,cs),
(210,101,ls),
(215,101,o),
(215,103,o),
(215,107,cs),
(215,249,l),
(339,249,ls),
(343,249,o),
(344,251,o),
(344,255,cs),
(344,289,ls),
(344,293,o),
(343,295,o),
(339,295,cs),
(215,295,l),
(215,397,ls),
(215,429,o),
(203,443,o),
(174,443,cs),
(170,443,o),
(169,441,o),
(169,437,cs),
(169,295,l),
(46,295,ls),
(42,295,o),
(41,293,o),
(41,289,cs),
(41,255,ls),
(41,251,o),
(42,249,o),
(46,249,cs),
(169,249,l)
);
}
);
width = 384;
}
);
note = plus;
unicode = 43;
},
{
glyphname = comma;
layers = (
{
layerId = m01;
shapes = (
{
closed = 1;
nodes = (
(51,68,o),
(33,49,o),
(33,26,cs),
(33,8,o),
(45,-12,o),
(68,-16,c),
(63,-36,o),
(51,-51,o),
(44,-61,cs),
(38,-70,o),
(27,-87,o),
(41,-100,cs),
(43,-102,o),
(45,-103,o),
(46,-101,c),
(82,-72,o),
(115,-23,o),
(115,24,cs),
(115,51,o),
(96,68,o),
(74,68,cs)
);
}
);
width = 137;
}
);
note = comma;
unicode = 44;
},
{
glyphname = hyphen;
layers = (
{
layerId = m01;
shapes = (
{
closed = 1;
nodes = (
(260,180,ls),
(264,180,o),
(265,182,o),
(265,186,cs),
(265,221,ls),
(265,225,o),
(264,227,o),
(260,227,cs),
(46,227,ls),
(42,227,o),
(41,225,o),
(41,221,cs),
(41,186,ls),
(41,182,o),
(42,180,o),
(46,180,cs)
);
}
);
width = 305;
}
);
note = hyphen;
unicode = 45;
},
{
glyphname = period;
layers = (
{
layerId = m01;
shapes = (
{
closed = 1;
nodes = (
(46,69,o),
(27,49,o),
(27,27,cs),
(27,3,o),
(46,-16,o),
(68,-16,cs),
(91,-16,o),
(109,3,o),
(109,27,cs),
(109,49,o),
(91,69,o),
(68,69,cs)
);
}
);
width = 137;
}
);
note = period;
unicode = 46;
},
{
glyphname = slash;
layers = (
{
layerId = m01;
shapes = (
{
closed = 1;
nodes = (
(47,0,ls),
(51,0,o),
(53,2,o),
(55,6,cs),
(265,503,ls),
(278,536,o),
(270,556,o),
(246,556,cs),
(240,556,ls),
(236,556,o),
(235,553,o),
(233,549,cs),
(3,6,ls),
(1,2,o),
(1,0,o),
(5,0,cs)
);
}
);
width = 271;
}
);
note = slash;
unicode = 47;
},
{
glyphname = zero;
layers = (
{
layerId = m01;
shapes = (
{
closed = 1;
nodes = (
(165,37,o),
(105,92,o),
(105,277,cs),
(105,463,o),
(163,519,o),
(250,519,cs),
(336,519,o),
(394,463,o),
(394,277,cs),
(394,92,o),
(334,37,o),
(250,37,cs)
);
},
{
closed = 1;
nodes = (
(377,-10,o),
(444,87,o),
(444,277,cs),
(444,468,o),
(374,567,o),
(250,567,cs),
(125,567,o),
(55,468,o),
(55,277,cs),
(55,87,o),
(122,-10,o),
(250,-10,cs)
);
}
);
width = 498;
}
);
note = zero;
unicode = 48;
},
{
glyphname = one;
layers = (
{
layerId = m01;
shapes = (
{
closed = 1;
nodes = (
(46,47,ls),
(42,47,o),
(41,45,o),
(41,41,cs),
(41,6,ls),
(41,2,o),
(42,0,o),
(46,0,cs),
(305,0,ls),
(312,0,o),
(314,2,o),
(314,7,cs),
(314,18,ls),
(314,37,o),
(304,47,o),
(284,47,cs),
(203,47,l),
(203,508,ls),
(203,539,o),
(191,556,o),
(167,556,cs),
(159,556,ls),
(144,556,o),
(132,553,o),
(113,547,cs),
(50,524,l),
(45,523,o),
(43,519,o),
(43,513,cs),
(43,474,ls),
(43,472,o),
(45,469,o),
(48,471,c),
(152,509,l),
(152,47,l)
);
}
);
width = 340;
}
);
note = one;
unicode = 49;
},
{
glyphname = two;
layers = (
{
layerId = m01;
shapes = (
{
closed = 1;
nodes = (
(106,199,o),
(379,221,o),
(379,409,cs),
(379,508,o),
(319,567,o),
(211,567,cs),
(158,567,o),
(115,551,o),
(83,533,cs),
(58,521,o),
(45,509,o),
(51,489,cs),
(56,474,ls),
(58,469,o),
(59,466,o),
(63,466,cs),
(67,466,o),
(71,468,o),
(76,472,cs),
(118,502,o),
(163,519,o),
(208,519,cs),
(285,519,o),
(329,479,o),
(329,409,cs),
(329,234,o),
(42,243,o),
(42,6,cs),
(42,2,o),
(43,0,o),
(47,0,cs),
(374,0,ls),
(379,0,o),
(381,2,o),
(381,7,cs),
(381,18,ls),
(381,37,o),
(371,47,o),
(351,47,cs),
(95,47,l)
);
}
);
width = 436;
}
);
note = two;
unicode = 50;
},
{
glyphname = three;
layers = (
{
layerId = m01;
shapes = (
{
closed = 1;
nodes = (
(345,315,o),
(372,366,o),
(372,423,cs),
(372,512,o),
(306,567,o),
(199,567,cs),
(147,567,o),
(100,548,o),
(74,533,cs),
(50,519,o),
(36,509,o),
(42,489,cs),
(47,474,ls),
(49,469,o),
(50,466,o),
(54,466,cs),
(58,466,o),
(61,468,o),
(67,472,cs),
(109,502,o),
(148,519,o),
(199,519,cs),
(262,519,o),
(322,497,o),
(322,419,cs),
(322,349,o),
(278,316,o),
(206,316,cs),
(118,316,ls),
(113,316,o),
(110,313,o),
(110,308,cs),
(110,298,ls),
(110,279,o),
(120,270,o),
(140,270,cs),
(192,270,ls),
(263,270,o),
(337,240,o),
(337,151,cs),
(337,84,o),
(283,37,o),
(201,37,cs),
(139,37,o),
(91,63,o),
(55,115,cs),
(50,122,o),
(47,125,o),
(41,125,cs),
(33,125,o),
(29,115,o),
(29,106,cs),
(29,64,o),
(87,-10,o),
(205,-10,cs),
(314,-10,o),
(388,56,o),
(388,151,cs),
(388,247,o),
(316,285,o),
(276,291,c)
);
}
);
width = 434;
}
);
note = three;
unicode = 51;
},
{
glyphname = four;
layers = (
{
layerId = m01;
shapes = (
{
closed = 1;
nodes = (
(281,6,ls),
(281,2,o),
(282,0,o),
(286,0,cs),
(327,0,ls),
(331,0,o),
(332,2,o),
(332,6,cs),
(332,139,l),
(398,139,ls),
(404,139,o),
(406,141,o),
(406,146,cs),
(406,157,ls),
(406,176,o),
(396,186,o),
(376,186,cs),
(332,186,l),
(332,518,ls),
(332,549,o),
(316,556,o),
(300,556,cs),
(286,556,ls),
(274,556,o),
(266,549,o),
(259,539,cs),
(29,202,ls),
(20,189,o),
(19,184,o),
(19,171,cs),
(19,145,ls),
(19,141,o),
(20,139,o),
(24,139,cs),
(281,139,l)
);
},
{
closed = 1;
nodes = (
(281,498,l),
(281,186,l),
(70,186,l)
);
}
);
width = 433;
}
);
note = four;
unicode = 52;
},
{
glyphname = five;
layers = (
{
layerId = m01;
shapes = (
{
closed = 1;
nodes = (
(351,508,ls),
(357,508,o),
(359,511,o),
(359,516,cs),
(359,527,ls),
(359,546,o),
(349,556,o),
(329,556,cs),
(67,556,ls),
(63,556,o),
(62,553,o),
(62,549,cs),
(62,276,ls),
(62,271,o),
(65,267,o),
(72,270,cs),
(112,285,o),
(162,298,o),
(214,298,cs),
(297,298,o),
(341,254,o),
(341,168,cs),
(341,91,o),
(287,37,o),
(201,37,cs),
(145,37,o),
(97,61,o),
(60,115,cs),
(55,122,o),
(53,125,o),
(47,125,cs),
(39,125,o),
(34,116,o),
(34,106,cs),
(34,60,o),
(94,-10,o),
(205,-10,cs),
(315,-10,o),
(392,65,o),
(392,172,cs),
(392,278,o),
(325,344,o),
(216,344,cs),
(170,344,o),
(138,336,o),
(112,329,c),
(112,508,l)
);
}
);
width = 439;
}
);
note = five;
unicode = 53;
},
{
glyphname = six;
layers = (
{
layerId = m01;
shapes = (
{
closed = 1;
nodes = (
(264,497,ls),
(288,538,o),
(276,567,o),
(253,567,cs),
(249,567,o),
(245,564,o),
(241,558,cs),
(109,340,ls),
(78,287,o),
(48,235,o),
(48,167,cs),
(48,61,o),
(124,-10,o),
(228,-10,cs),
(331,-10,o),
(409,54,o),
(409,174,cs),
(409,274,o),
(337,348,o),
(243,348,cs),
(207,348,o),
(181,339,o),
(162,328,c)
);
},
{
closed = 1;
nodes = (
(145,37,o),
(98,92,o),
(98,169,cs),
(98,248,o),
(151,301,o),
(229,301,cs),
(311,301,o),
(358,245,o),
(358,169,cs),
(358,92,o),
(311,37,o),
(229,37,cs)
);
}
);
width = 449;
}
);
note = six;
unicode = 54;
},
{
glyphname = seven;
layers = (
{
layerId = m01;
shapes = (
{
closed = 1;
nodes = (
(96,6,ls),
(95,3,o),
(96,0,o),
(100,0,cs),
(139,0,ls),
(148,0,o),
(151,2,o),
(155,11,cs),
(372,478,ls),
(379,494,o),
(382,503,o),
(382,518,cs),
(382,527,ls),
(382,546,o),
(372,556,o),
(352,556,cs),
(36,556,ls),
(32,556,o),
(31,553,o),
(31,549,cs),
(31,514,ls),
(31,511,o),
(32,508,o),
(36,508,cs),
(330,508,l)
);
}
);
width = 427;
}
);
note = seven;
unicode = 55;
},
{
glyphname = eight;
layers = (
{
layerId = m01;
shapes = (
{
closed = 1;
nodes = (
(92,230,o),
(155,274,o),
(223,274,cs),
(290,274,o),
(354,230,o),
(354,153,cs),
(354,80,o),
(302,36,o),
(223,36,cs),
(143,36,o),
(92,80,o),
(92,153,cs)
);
},
{
closed = 1;
nodes = (
(108,486,o),
(161,519,o),
(223,519,cs),
(284,519,o),
(337,486,o),
(337,418,cs),
(337,363,o),
(290,319,o),
(223,319,cs),
(155,319,o),
(108,363,o),
(108,418,cs)
);
},
{
closed = 1;
nodes = (
(79,272,o),
(41,217,o),
(41,153,cs),
(41,56,o),
(112,-11,o),
(223,-11,cs),
(333,-11,o),
(404,56,o),
(404,153,cs),
(404,217,o),
(367,272,o),
(294,297,c),
(343,317,o),
(385,354,o),
(385,424,cs),
(385,513,o),
(310,567,o),
(223,567,cs),
(135,567,o),
(60,513,o),
(60,424,cs),
(60,354,o),
(102,317,o),
(151,297,c)
);
}
);
width = 446;
}
);
note = eight;
unicode = 56;
},
{
glyphname = nine;
layers = (
{
layerId = m01;
shapes = (
{
closed = 1;
nodes = (
(185,58,ls),
(165,24,o),
(170,-10,o),
(196,-10,cs),
(202,-10,o),
(206,-7,o),
(209,-1,cs),
(340,217,ls),
(372,270,o),
(402,322,o),
(402,389,cs),
(402,496,o),
(328,567,o),
(225,567,cs),
(123,567,o),
(41,502,o),
(41,383,cs),
(41,278,o),
(117,209,o),
(212,209,cs),
(245,209,o),
(270,218,o),
(289,232,c)
);
},
{
closed = 1;
nodes = (
(140,256,o),
(92,306,o),
(92,388,cs),
(92,464,o),
(141,519,o),
(224,519,cs),
(307,519,o),
(350,464,o),
(350,388,cs),
(350,309,o),
(298,256,o),
(220,256,cs)
);
}
);
width = 449;
}
);
note = nine;
unicode = 57;
},
{
glyphname = colon;
layers = (
{
layerId = m01;
shapes = (
{
closed = 1;
nodes = (
(56,289,o),
(37,269,o),
(37,247,cs),
(37,223,o),
(56,204,o),
(78,204,cs),
(101,204,o),
(119,223,o),
(119,247,cs),
(119,269,o),
(101,289,o),
(78,289,cs)
);
},
{
closed = 1;
nodes = (
(56,69,o),
(37,49,o),
(37,27,cs),
(37,3,o),
(56,-16,o),
(78,-16,cs),
(101,-16,o),
(119,3,o),
(119,27,cs),
(119,49,o),
(101,69,o),
(78,69,cs)
);
}
);
width = 157;
}
);
note = colon;
unicode = 58;
},
{
glyphname = semicolon;
layers = (
{
layerId = m01;
shapes = (
{
closed = 1;
nodes = (
(106,204,o),
(125,223,o),
(125,246,cs),
(125,269,o),
(106,288,o),
(84,288,cs),
(61,288,o),
(43,269,o),
(43,246,cs),
(43,223,o),
(61,204,o),
(84,204,cs)
);
},
{
closed = 1;
nodes = (
(61,68,o),
(43,49,o),
(43,26,cs),
(43,8,o),
(55,-12,o),
(78,-16,c),
(73,-36,o),
(61,-51,o),
(54,-61,cs),
(48,-70,o),
(37,-87,o),
(51,-100,cs),
(53,-102,o),
(55,-103,o),
(56,-101,c),
(92,-72,o),
(125,-23,o),
(125,24,cs),
(125,51,o),
(106,68,o),
(84,68,cs)
);
}
);
width = 157;
}
);
note = semicolon;
unicode = 59;
},
{
glyphname = less;
layers = (
{
layerId = m01;
shapes = (
{
closed = 1;
nodes = (
(387,381,ls),
(395,384,o),
(400,388,o),
(400,398,cs),
(400,433,ls),
(400,439,o),
(398,439,o),
(394,438,c),
(46,295,ls),
(42,293,o),
(41,292,o),
(41,287,cs),
(41,254,ls),
(41,249,o),
(42,248,o),
(46,246,cs),
(394,102,ls),
(398,100,o),
(400,102,o),
(400,108,cs),
(400,115,ls),
(400,139,o),
(389,159,o),
(364,169,cs),
(110,272,l)
);
}
);
width = 449;
}
);
note = less;
unicode = 60;
},
{
glyphname = equal;
layers = (
{
layerId = m01;
shapes = (
{
closed = 1;
nodes = (
(339,333,ls),
(343,333,o),
(344,335,o),
(344,339,cs),
(344,344,ls),
(344,364,o),
(330,379,o),
(305,379,cs),
(46,379,ls),
(42,379,o),
(41,378,o),
(41,374,cs),
(41,339,ls),
(41,335,o),
(42,333,o),
(46,333,cs)
);
},
{
closed = 1;
nodes = (
(339,159,ls),
(343,159,o),
(344,161,o),
(344,165,cs),
(344,170,ls),
(344,190,o),
(330,206,o),
(305,206,cs),
(46,206,ls),
(42,206,o),
(41,204,o),
(41,200,cs),
(41,165,ls),
(41,161,o),
(42,159,o),
(46,159,cs)
);
}
);
width = 384;
}
);
note = equal;
unicode = 61;
},
{
glyphname = greater;
layers = (
{
layerId = m01;
shapes = (
{
closed = 1;
nodes = (
(84,169,ls),
(59,159,o),
(48,139,o),
(48,115,cs),
(48,108,ls),
(48,102,o),
(51,100,o),
(55,102,cs),
(403,246,ls),
(407,248,o),
(408,249,o),
(408,254,cs),
(408,287,ls),
(408,292,o),
(407,293,o),
(403,295,cs),
(55,438,l),
(51,439,o),
(48,439,o),
(48,433,cs),
(48,398,ls),
(48,388,o),
(53,384,o),
(62,381,cs),
(338,272,l)
);
}
);
width = 449;
}
);
note = greater;
unicode = 62;
},
{
glyphname = question;
layers = (
{
layerId = m01;
shapes = (
{
closed = 1;
nodes = (
(152,137,o),
(153,135,o),
(157,135,cs),
(193,135,ls),
(197,135,o),
(198,137,o),
(198,141,cs),
(198,179,ls),
(198,203,o),
(201,214,o),
(218,228,cs),
(284,282,o),
(352,331,o),
(352,409,cs),
(352,509,o),
(289,567,o),
(179,567,cs),
(128,567,o),
(88,553,o),
(56,537,cs),
(31,523,o),
(18,513,o),
(24,493,cs),
(29,477,ls),
(31,471,o),
(32,469,o),
(36,469,cs),
(40,469,o),
(44,471,o),
(49,474,cs),
(92,504,o),
(135,518,o),
(180,518,cs),
(256,518,o),
(301,477,o),
(301,409,cs),
(301,292,o),
(152,283,o),
(152,183,cs),
(152,141,ls)
);
},
{
closed = 1;
nodes = (
(152,69,o),
(133,49,o),
(133,27,cs),
(133,3,o),
(152,-16,o),
(174,-16,cs),
(197,-16,o),
(215,3,o),
(215,27,cs),
(215,49,o),
(197,69,o),
(174,69,cs)
);
}
);
width = 388;
}
);
note = question;
unicode = 63;
},
{
glyphname = at;
layers = (
{
layerId = m01;
shapes = (
{
closed = 1;
nodes = (
(293,85,o),
(251,131,o),
(251,207,cs),
(251,301,o),
(307,366,o),
(389,366,cs),
(460,366,o),
(502,320,o),
(502,246,cs),
(502,146,o),
(448,85,o),
(359,85,cs)
);
},
{
closed = 1;
nodes = (
(490,71,o),
(521,38,o),
(564,38,cs),
(664,38,o),
(724,131,o),
(724,277,cs),
(724,458,o),
(581,568,o),
(397,568,cs),
(198,568,o),
(48,414,o),
(48,224,cs),
(48,12,o),
(193,-124,o),
(394,-124,cs),
(536,-124,o),
(631,-52,o),
(631,-21,cs),
(631,-14,o),
(627,-9,o),
(623,-9,cs),
(617,-9,o),
(614,-12,o),
(607,-17,cs),
(578,-39,o),
(506,-78,o),
(400,-78,cs),
(224,-78,o),
(100,36,o),
(100,221,cs),
(100,393,o),
(221,523,o),
(400,523,cs),
(556,523,o),
(672,433,o),
(672,275,cs),
(672,138,o),
(630,83,o),
(574,83,cs),
(554,83,o),
(540,97,o),
(540,119,cs),
(540,131,o),
(541,143,o),
(543,162,cs),
(565,399,ls),
(565,402,o),
(564,404,o),
(560,404,cs),
(551,404,ls),
(527,404,o),
(512,386,o),
(509,354,c),
(485,391,o),
(443,413,o),
(391,413,cs),
(282,413,o),
(200,326,o),
(200,214,cs),
(200,108,o),
(271,37,o),
(355,37,cs),
(418,37,o),
(466,72,o),
(487,108,c)
);
}
);
width = 771;
}
);
note = at;
unicode = 64;
},
{
glyphname = A;
kernLeft = A;
kernRight = A;
layers = (
{
layerId = m01;
shapes = (
{
closed = 1;
nodes = (
(248,493,l),
(352,216,l),
(144,216,l)
);
},
{
closed = 1;
nodes = (
(370,169,l),
(429,12,ls),
(432,3,o),
(434,0,o),
(444,0,cs),
(483,0,ls),
(487,0,o),
(489,2,o),
(487,7,cs),
(288,521,ls),
(278,547,o),
(265,556,o),
(238,556,cs),
(233,556,ls),
(229,556,o),
(227,554,o),
(224,549,c),
(13,7,ls),
(11,2,o),
(13,0,o),
(17,0,cs),
(54,0,ls),
(64,0,o),
(65,3,o),
(69,12,cs),
(126,169,l)
);
}
);
width = 498;
}
);
note = A;
unicode = 65;
},
{
glyphname = B;
layers = (
{
layerId = m01;
shapes = (
{
closed = 1;
nodes = (
(123,271,l),
(273,271,ls),
(360,271,o),
(399,223,o),
(399,161,cs),
(399,63,o),
(333,47,o),
(272,47,cs),
(123,47,l)
);
},
{
closed = 1;
nodes = (
(123,508,l),
(267,508,ls),
(336,508,o),
(376,477,o),
(376,418,cs),
(376,353,o),
(338,317,o),
(276,317,cs),
(123,317,l)
);
},
{
closed = 1;
nodes = (
(387,313,o),
(425,349,o),
(425,419,cs),
(425,506,o),
(364,556,o),
(263,556,cs),
(78,556,ls),
(74,556,o),
(73,553,o),
(73,549,cs),
(73,6,ls),
(73,2,o),
(74,0,o),
(78,0,cs),
(278,0,ls),
(387,0,o),
(451,61,o),
(451,157,cs),
(451,230,o),
(400,283,o),
(338,295,c)
);
}
);
width = 486;
}
);
note = B;
unicode = 66;
},
{
glyphname = C;
kernLeft = C;
kernRight = C;
layers = (
{
layerId = m01;
shapes = (
{
closed = 1;
nodes = (
(438,-11,o),
(489,77,o),
(489,109,cs),
(489,117,o),
(485,125,o),
(476,125,cs),
(471,125,o),
(469,123,o),
(464,115,cs),
(431,69,o),
(383,36,o),
(306,36,cs),
(181,36,o),
(106,125,o),
(106,276,cs),
(106,428,o),
(184,519,o),
(309,519,cs),
(363,519,o),
(413,501,o),
(454,471,cs),
(460,467,o),
(464,464,o),
(466,464,cs),
(470,464,o),
(473,468,o),
(474,473,cs),
(478,489,ls),
(483,509,o),
(468,523,o),
(444,534,cs),
(406,553,o),
(366,567,o),
(310,567,cs),
(161,567,o),
(57,457,o),
(57,278,cs),
(57,95,o),
(155,-11,o),
(300,-11,cs)
);
}
);
width = 513;
}
);
note = C;
unicode = 67;
},
{
glyphname = D;
layers = (
{
layerId = m01;
shapes = (
{
closed = 1;
nodes = (
(123,508,l),
(221,508,ls),
(369,508,o),
(445,449,o),
(445,284,cs),
(445,124,o),
(371,47,o),
(226,47,cs),
(123,47,l)
);
},
{
closed = 1;
nodes = (
(220,0,ls),
(385,0,o),
(496,87,o),
(496,286,cs),
(496,459,o),
(403,556,o),
(227,556,cs),
(78,556,ls),
(74,556,o),
(73,553,o),
(73,549,cs),
(73,6,ls),
(73,2,o),
(74,0,o),
(78,0,cs)
);
}
);
width = 553;
}
);
note = D;
unicode = 68;
},
{
glyphname = E;
kernRight = E;
layers = (
{
layerId = m01;
shapes = (
{
closed = 1;
nodes = (
(124,251,l),
(336,251,ls),
(342,251,o),
(344,252,o),
(344,257,cs),
(344,269,ls),
(344,288,o),
(334,298,o),
(314,298,cs),
(124,298,l),
(124,509,l),
(354,509,ls),
(360,509,o),
(362,511,o),
(362,516,cs),
(362,527,ls),
(362,546,o),
(352,556,o),
(332,556,cs),
(78,556,ls),
(74,556,o),
(73,553,o),
(73,549,cs),
(73,6,ls),
(73,2,o),
(74,0,o),
(78,0,cs),
(364,0,ls),
(370,0,o),
(372,2,o),
(372,7,cs),
(372,18,ls),
(372,37,o),
(362,47,o),
(342,47,cs),
(124,47,l)
);
}
);
width = 404;
}
);
note = E;
unicode = 69;
},
{
glyphname = F;
layers = (
{
layerId = m01;
shapes = (
{
closed = 1;
nodes = (
(336,251,ls),
(342,251,o),
(344,253,o),
(344,258,cs),
(344,270,ls),
(344,288,o),
(334,298,o),
(314,298,cs),
(123,298,l),
(123,508,l),
(354,508,ls),
(360,508,o),
(362,511,o),
(362,516,cs),
(362,527,ls),
(362,546,o),
(352,556,o),
(332,556,cs),
(78,556,ls),
(74,556,o),
(73,553,o),
(73,549,cs),
(73,6,ls),
(73,2,o),
(74,0,o),
(78,0,cs),
(118,0,ls),
(122,0,o),
(123,2,o),
(123,6,cs),
(123,251,l)
);
}
);
width = 389;
}
);
note = F;
unicode = 70;
},
{
glyphname = G;
layers = (
{
layerId = m01;
shapes = (
{
closed = 1;
nodes = (
(411,50,o),
(358,36,o),
(306,36,cs),
(181,36,o),
(106,125,o),
(106,276,cs),
(106,432,o),
(181,519,o),
(310,519,cs),
(368,519,o),
(423,501,o),
(464,471,cs),
(469,467,o),
(473,464,o),
(476,464,cs),
(480,464,o),
(483,468,o),
(484,473,cs),
(488,489,ls),
(493,509,o),
(478,523,o),
(454,534,cs),
(416,553,o),
(371,567,o),
(310,567,cs),
(156,567,o),
(57,453,o),
(57,278,cs),
(57,104,o),
(156,-11,o),
(305,-11,cs),
(379,-11,o),
(449,23,o),
(493,68,cs),
(508,82,o),
(509,87,o),
(509,105,cs),
(509,278,ls),
(509,282,o),
(508,284,o),
(504,284,cs),
(305,284,ls),
(300,284,o),
(298,282,o),
(298,277,cs),
(298,267,ls),
(298,248,o),
(308,238,o),
(328,238,cs),
(459,238,l),
(459,96,l)
);
}
);
width = 564;
}
);
note = G;
unicode = 71;
},
{
glyphname = H;
layers = (
{
layerId = m01;
shapes = (
{
closed = 1;
nodes = (
(400,252,l),
(400,6,ls),
(400,2,o),
(401,0,o),
(405,0,cs),
(445,0,ls),
(449,0,o),
(450,2,o),
(450,6,cs),
(450,503,ls),
(450,536,o),
(433,556,o),
(409,556,cs),
(405,556,ls),
(401,556,o),
(400,553,o),
(400,549,cs),
(400,298,l),
(123,298,l),
(123,503,ls),
(123,536,o),
(106,556,o),
(83,556,cs),
(78,556,ls),
(74,556,o),
(73,553,o),
(73,549,cs),
(73,6,ls),
(73,2,o),
(74,0,o),
(78,0,cs),
(118,0,ls),
(122,0,o),
(123,2,o),
(123,6,cs),
(123,252,l)
);
}
);
width = 522;
}
);
note = H;
unicode = 72;
},
{
glyphname = I;
kernRight = I;
layers = (
{
layerId = m01;
shapes = (
{
closed = 1;
nodes = (
(119,0,ls),
(122,0,o),
(124,2,o),
(124,6,cs),
(124,504,ls),
(124,536,o),
(106,556,o),
(82,556,cs),
(78,556,ls),
(74,556,o),
(73,553,o),
(73,549,cs),
(73,6,ls),
(73,2,o),
(74,0,o),
(78,0,cs)
);
}
);
width = 196;
}
);
note = I;
unicode = 73;
},
{
glyphname = J;
layers = (
{
layerId = m01;
shapes = (
{
closed = 1;
nodes = (
(8,31,o),
(49,-10,o),
(104,-10,cs),
(176,-10,o),
(210,37,o),
(210,94,cs),
(210,503,ls),
(210,536,o),
(193,556,o),
(169,556,cs),
(165,556,ls),
(161,556,o),
(160,553,o),
(160,549,cs),
(160,96,ls),
(160,65,o),
(140,35,o),
(99,35,cs),
(71,35,o),
(49,48,o),
(24,82,cs),
(21,86,o),
(18,87,o),
(16,87,cs),
(11,87,o),
(8,81,o),
(8,75,cs)
);
}
);
width = 280;
}
);
note = J;
unicode = 74;
},
{
glyphname = K;
layers = (
{
layerId = m01;
shapes = (
{
closed = 1;
nodes = (
(220,291,l),
(397,10,ls),
(402,2,o),
(404,0,o),
(414,0,cs),
(453,0,ls),
(460,0,o),
(460,4,o),
(458,8,cs),
(254,331,l),
(438,548,ls),
(440,551,o),
(440,556,o),
(435,556,cs),
(397,556,ls),
(388,556,o),
(386,554,o),
(379,547,c),
(123,245,l),
(123,503,ls),
(123,536,o),
(106,556,o),
(83,556,cs),
(78,556,ls),
(74,556,o),
(73,553,o),
(73,549,cs),
(73,6,ls),
(73,2,o),
(74,0,o),
(78,0,cs),
(118,0,ls),
(122,0,o),
(123,2,o),
(123,6,cs),
(123,178,l)
);
}
);
width = 473;
}
);
note = K;
unicode = 75;
},
{
glyphname = L;
layers = (
{
layerId = m01;
shapes = (
{
closed = 1;
nodes = (
(123,503,ls),
(123,536,o),
(106,556,o),
(83,556,cs),
(78,556,ls),
(74,556,o),
(73,553,o),
(73,549,cs),
(73,6,ls),
(73,2,o),
(74,0,o),
(78,0,cs),
(333,0,ls),
(339,0,o),
(341,2,o),
(341,7,cs),
(341,18,ls),
(341,37,o),
(331,47,o),
(311,47,cs),
(123,47,l)
);
}
);
width = 362;
}
);
note = L;
unicode = 76;
},
{
glyphname = M;
layers = (
{
layerId = m01;
shapes = (
{
closed = 1;
nodes = (
(144,516,ls),
(135,542,o),
(125,556,o),
(91,556,cs),
(88,556,ls),
(84,556,o),
(82,553,o),
(82,549,cs),
(53,6,ls),
(53,2,o),
(54,0,o),
(58,0,cs),
(98,0,ls),
(102,0,o),
(103,2,o),
(103,6,cs),
(126,427,l),
(274,7,ls),
(276,2,o),
(278,0,o),
(281,0,cs),
(316,0,ls),
(321,0,o),
(324,2,o),
(326,7,cs),
(478,434,l),
(501,6,ls),
(501,2,o),
(502,0,o),
(506,0,cs),
(547,0,ls),
(551,0,o),
(552,2,o),
(552,6,cs),
(524,508,ls),
(522,539,o),
(505,556,o),
(481,556,cs),
(478,556,ls),
(474,556,o),
(472,553,o),
(471,549,cs),
(301,65,l)
);
}
);
width = 604;
}
);
note = M;
unicode = 77;
},
{
glyphname = N;
kernRight = N;
layers = (
{
layerId = m01;
shapes = (
{
closed = 1;
nodes = (
(139,515,ls),
(124,542,o),
(116,556,o),
(82,556,cs),
(78,556,ls),
(74,556,o),
(73,553,o),
(73,549,cs),
(73,6,ls),
(73,2,o),
(74,0,o),
(78,0,cs),
(119,0,ls),
(122,0,o),
(124,2,o),
(124,6,cs),
(124,445,l),
(389,13,ls),
(395,3,o),
(401,0,o),
(411,0,cs),
(445,0,ls),
(449,0,o),
(450,2,o),
(450,6,cs),
(450,504,ls),
(450,536,o),
(434,556,o),
(410,556,cs),
(405,556,ls),
(401,556,o),
(400,553,o),
(400,549,cs),
(400,89,l)
);
}
);
width = 522;
}
);
note = N;
unicode = 78;
},
{
glyphname = O;
kernLeft = O;
kernRight = O;
layers = (
{
layerId = m01;
shapes = (
{
closed = 1;
nodes = (
(207,37,o),
(108,87,o),
(108,277,cs),
(108,467,o),
(207,520,o),
(299,520,cs),
(390,520,o),
(489,467,o),
(489,277,cs),
(489,87,o),
(391,38,o),
(299,37,cs)
);
},
{
closed = 1;
nodes = (
(453,-10,o),
(540,101,o),
(540,277,cs),
(540,453,o),
(450,567,o),
(299,567,cs),
(148,567,o),
(57,453,o),
(57,277,cs),
(57,101,o),
(145,-10,o),
(299,-10,cs)
);
}
);
width = 597;
}
);
note = O;
unicode = 79;
},
{
glyphname = P;
layers = (
{
layerId = m01;
shapes = (
{
closed = 1;
nodes = (
(123,508,l),
(271,508,ls),
(345,508,o),
(397,462,o),
(397,388,cs),
(397,288,o),
(328,262,o),
(267,262,cs),
(123,262,l)
);
},
{
closed = 1;
nodes = (
(269,215,ls),
(381,215,o),
(449,280,o),
(449,387,cs),
(449,492,o),
(376,556,o),
(267,556,cs),
(78,556,ls),
(74,556,o),
(73,553,o),
(73,549,cs),
(73,6,ls),
(73,2,o),
(74,0,o),
(78,0,cs),
(118,0,ls),
(122,0,o),
(123,2,o),
(123,6,cs),
(123,215,l)
);
}
);
width = 484;
}
);
note = P;
unicode = 80;
},
{
glyphname = Q;
layers = (
{
layerId = m01;
shapes = (
{
closed = 1;
nodes = (
(276,-63,o),
(319,-106,o),
(393,-106,cs),
(471,-106,o),
(523,-54,o),
(523,-16,cs),
(523,-9,o),
(518,-5,o),
(513,-5,cs),
(509,-5,o),
(506,-6,o),
(503,-10,cs),
(470,-46,o),
(441,-61,o),
(401,-61,cs),
(354,-61,o),
(330,-38,o),
(318,-9,c),
(459,0,o),
(539,108,o),
(539,277,cs),
(539,454,o),
(450,567,o),
(298,567,cs),
(146,567,o),
(57,454,o),
(57,277,cs),
(57,115,o),
(131,9,o),
(261,-8,c)
);
},
{
closed = 1;
nodes = (
(206,37,o),
(108,87,o),
(108,277,cs),
(108,467,o),
(206,519,o),
(298,519,cs),
(389,519,o),
(488,467,o),
(488,277,cs),
(488,87,o),
(390,38,o),
(298,37,cs)
);
}
);
width = 597;
}
);
note = Q;
unicode = 81;
},
{
glyphname = R;
layers = (
{
layerId = m01;
shapes = (
{
closed = 1;
nodes = (
(123,508,l),
(273,508,ls),
(349,508,o),
(399,464,o),
(399,388,cs),
(399,309,o),
(357,262,o),
(267,262,cs),
(123,262,l)
);
},
{
closed = 1;
nodes = (
(277,215,l),
(396,10,ls),
(401,2,o),
(404,0,o),
(414,0,cs),
(452,0,ls),
(457,0,o),
(458,4,o),
(456,7,cs),
(331,222,l),
(396,243,o),
(450,294,o),
(450,384,cs),
(450,492,o),
(382,556,o),
(267,556,cs),
(78,556,ls),
(74,556,o),
(73,553,o),
(73,549,cs),
(73,6,ls),
(73,2,o),
(74,0,o),
(78,0,cs),
(118,0,ls),
(122,0,o),
(123,2,o),
(123,6,cs),
(123,215,l)
);
}
);
width = 496;
}
);
note = R;
unicode = 82;
},
{
glyphname = S;
kernLeft = S;
kernRight = S;
layers = (
{
layerId = m01;
shapes = (
{
closed = 1;
nodes = (
(24,68,o),
(80,-11,o),
(210,-11,cs),
(331,-11,o),
(403,56,o),
(403,155,cs),
(403,329,o),
(91,283,o),
(91,423,cs),
(91,482,o),
(141,520,o),
(216,520,cs),
(270,520,o),
(326,501,o),
(368,471,cs),
(374,467,o),
(377,465,o),
(381,465,cs),
(385,465,o),
(387,468,o),
(388,473,cs),
(392,490,ls),
(397,510,o),
(382,524,o),
(357,536,cs),
(320,553,o),
(276,567,o),
(220,567,cs),
(111,567,o),
(40,504,o),
(40,421,cs),
(40,236,o),
(353,286,o),
(353,146,cs),
(353,78,o),
(296,36,o),
(206,36,cs),
(138,36,o),
(91,64,o),
(51,117,cs),
(46,124,o),
(42,127,o),
(36,127,cs),
(29,127,o),
(24,119,o),
(24,108,cs)
);
}
);
width = 437;
}
);
note = S;
unicode = 83;
},
{
glyphname = T;
layers = (
{
layerId = m01;
shapes = (
{
closed = 1;
nodes = (
(175,6,ls),
(175,2,o),
(176,0,o),
(180,0,cs),
(220,0,ls),
(224,0,o),
(225,2,o),
(225,6,cs),
(225,508,l),
(375,508,ls),
(381,508,o),
(384,511,o),
(384,516,cs),
(384,527,ls),
(384,546,o),
(374,556,o),
(354,556,cs),
(22,556,ls),
(18,556,o),
(17,553,o),
(17,549,cs),
(17,514,ls),
(17,511,o),
(18,508,o),
(22,508,cs),
(175,508,l)
);
}
);
width = 401;
}
);
note = T;
unicode = 84;
},
{
glyphname = U;
kernLeft = U;
kernRight = U;
layers = (
{
layerId = m01;
shapes = (
{
closed = 1;
nodes = (
(406,-10,o),
(447,106,o),
(447,198,cs),
(447,504,ls),
(447,536,o),
(430,556,o),
(406,556,cs),
(402,556,ls),
(398,556,o),
(397,553,o),
(397,549,cs),
(397,202,ls),
(397,111,o),
(361,37,o),
(255,37,cs),
(151,37,o),
(119,107,o),
(119,201,cs),
(119,504,ls),
(119,536,o),
(102,556,o),
(78,556,cs),
(73,556,ls),
(69,556,o),
(68,553,o),
(68,549,cs),
(68,194,ls),
(68,81,o),
(118,-10,o),
(256,-10,cs)
);
}
);
width = 516;
}
);
note = U;
unicode = 85;
},
{
glyphname = V;
layers = (
{
layerId = m01;
shapes = (
{
closed = 1;
nodes = (
(80,524,ls),
(71,551,o),
(57,556,o),
(40,556,cs),
(23,556,ls),
(18,556,o),
(16,553,o),
(18,548,cs),
(205,6,ls),
(206,3,o),
(208,0,o),
(213,0,cs),
(253,0,ls),
(257,0,o),
(259,1,o),
(261,6,cs),
(447,548,ls),
(449,553,o),
(447,556,o),
(443,556,cs),
(407,556,ls),
(397,556,o),
(395,553,o),
(392,543,cs),
(234,59,l)
);
}
);
width = 462;
}
);
note = V;
unicode = 86;
},
{
glyphname = W;
layers = (
{
layerId = m01;
shapes = (
{
closed = 1;
nodes = (
(88,524,ls),
(81,551,o),
(65,556,o),
(48,556,cs),
(35,556,ls),
(30,556,o),
(29,553,o),
(30,548,cs),
(177,6,ls),
(178,3,o),
(180,0,o),
(185,0,cs),
(224,0,ls),
(228,0,o),
(231,1,o),
(232,6,cs),
(368,478,l),
(512,6,ls),
(513,3,o),
(515,0,o),
(520,0,cs),
(558,0,ls),
(563,0,o),
(566,1,o),
(567,6,cs),
(715,548,ls),
(716,553,o),
(715,556,o),
(711,556,cs),
(677,556,ls),
(667,556,o),
(665,553,o),
(662,543,cs),
(538,70,l),
(401,524,ls),
(393,549,o),
(383,556,o),
(367,556,cs),
(358,556,ls),
(348,556,o),
(346,553,o),
(343,543,cs),
(209,70,l)
);
}
);
width = 742;
}
);
note = W;
unicode = 87;
},
{
glyphname = X;
layers = (
{
layerId = m01;
shapes = (
{
closed = 1;
nodes = (
(391,12,ls),
(396,4,o),
(400,0,o),
(410,0,cs),
(445,0,ls),
(450,0,o),
(452,2,o),
(450,7,c),
(267,288,l),
(431,548,l),
(435,553,o),
(431,556,o),
(427,556,cs),
(394,556,ls),
(384,556,o),
(380,552,o),
(375,543,cs),
(236,322,l),
(106,526,ls),
(92,549,o),
(79,556,o),
(60,556,cs),
(43,556,ls),
(38,556,o),
(36,552,o),
(39,548,cs),
(201,289,l),
(16,7,ls),
(13,2,o),
(16,0,o),
(20,0,cs),
(55,0,ls),
(65,0,o),
(68,4,o),
(72,12,c),
(232,257,l)
);
}
);
width = 459;
}
);
note = X;
unicode = 88;
},
{
glyphname = Y;
kernLeft = Y;
kernRight = Y;
layers = (
{
layerId = m01;
shapes = (
{
closed = 1;
nodes = (
(187,6,ls),
(187,2,o),
(188,0,o),
(192,0,cs),
(232,0,ls),
(236,0,o),
(237,2,o),
(237,6,cs),
(237,219,l),
(417,547,ls),
(420,553,o),
(418,556,o),
(411,556,cs),
(378,556,ls),
(368,556,o),
(365,552,o),
(361,543,cs),
(214,274,l),
(83,513,ls),
(66,543,o),
(53,556,o),
(26,556,cs),
(10,556,ls),
(5,556,o),
(4,552,o),
(6,548,cs),
(187,219,l)
);
}
);
width = 422;
}
);
note = Y;
unicode = 89;
},
{
glyphname = Z;
kernLeft = Z;
kernRight = Z;
layers = (
{
layerId = m01;
shapes = (
{
closed = 1;
nodes = (
(393,468,ls),
(403,484,o),
(407,489,o),
(407,504,cs),
(407,514,ls),
(407,548,o),
(383,556,o),
(358,556,cs),
(52,556,ls),
(48,556,o),
(47,553,o),
(47,549,cs),
(47,515,ls),
(47,511,o),
(48,509,o),
(52,509,cs),
(361,509,l),
(50,64,ls),
(40,51,o),
(39,44,o),
(39,30,cs),
(39,6,ls),
(39,2,o),
(40,0,o),
(44,0,cs),
(400,0,ls),
(406,0,o),
(407,2,o),
(407,7,cs),
(407,18,ls),
(407,37,o),
(398,47,o),
(378,47,cs),
(97,47,l)
);
}
);
width = 448;
}
);
note = Z;
unicode = 90;
},
{
glyphname = bracketleft;
layers = (
{
layerId = m01;
shapes = (
{
closed = 1;
nodes = (
(233,-144,o),
(236,-142,o),
(236,-137,cs),
(236,-134,ls),
(236,-114,o),
(221,-101,o),
(197,-101,cs),
(141,-101,ls),
(125,-101,o),
(118,-90,o),
(118,-77,cs),
(118,628,ls),
(118,642,o),
(125,652,o),
(141,652,cs),
(197,652,ls),
(221,652,o),
(236,666,o),
(236,686,cs),
(236,689,ls),
(236,693,o),
(233,696,o),
(228,696,cs),
(128,696,ls),
(93,696,o),
(70,673,o),
(70,639,cs),
(70,-88,ls),
(70,-121,o),
(93,-144,o),
(128,-144,cs),
(228,-144,ls)
);
}
);
width = 289;
}
);
note = bracketleft;
unicode = 91;
},
{
glyphname = backslash;
layers = (
{
layerId = m01;
shapes = (
{
closed = 1;
nodes = (
(232,2,o),
(234,0,o),
(238,0,cs),
(279,0,ls),
(283,0,o),
(283,2,o),
(281,6,cs),
(67,513,ls),
(53,546,o),
(37,556,o),
(10,556,cs),
(5,556,ls),
(0,556,o),
(0,552,o),
(1,548,c),
(230,6,ls)
);
}
);
width = 283;
}
);
note = backslash;
unicode = 92;
},
{
glyphname = bracketright;
layers = (
{
layerId = m01;
shapes = (
{
closed = 1;
nodes = (
(196,-144,o),
(219,-121,o),
(219,-88,cs),
(219,639,ls),
(219,673,o),
(196,696,o),
(161,696,cs),
(61,696,ls),
(56,696,o),
(53,693,o),
(53,689,cs),
(53,686,ls),
(53,666,o),
(69,652,o),
(92,652,cs),
(149,652,ls),
(164,652,o),
(171,642,o),
(171,628,cs),
(171,-77,ls),
(171,-90,o),
(164,-101,o),
(149,-101,cs),
(92,-101,ls),
(69,-101,o),
(53,-114,o),
(53,-134,cs),
(53,-137,ls),
(53,-142,o),
(56,-144,o),
(61,-144,cs),
(161,-144,ls)
);
}
);
width = 289;
}
);
note = bracketright;
unicode = 93;
},
{
glyphname = asciicircum;
layers = (
{
layerId = m01;
shapes = (
{
closed = 1;
nodes = (
(320,283,ls),
(324,276,o),
(326,274,o),
(336,274,cs),
(370,274,ls),
(374,274,o),
(375,276,o),
(374,279,c),
(247,517,ls),
(232,544,o),
(211,556,o),
(189,556,cs),
(179,556,o),
(177,553,o),
(173,546,cs),
(31,279,ls),
(29,276,o),
(31,274,o),
(35,274,cs),
(69,274,ls),
(79,274,o),
(81,276,o),
(85,283,cs),
(203,503,l)
);
}
);
width = 403;
}
);
note = asciicircum;
unicode = 94;
},
{
glyphname = underscore;
layers = (
{
layerId = m01;
shapes = (
{
closed = 1;
nodes = (
(412,-178,ls),
(415,-178,o),
(417,-176,o),
(417,-172,cs),
(417,-139,ls),
(417,-135,o),
(415,-133,o),
(412,-133,cs),
(-4,-133,ls),
(-8,-133,o),
(-9,-135,o),
(-9,-139,cs),
(-9,-172,ls),
(-9,-176,o),
(-8,-178,o),
(-4,-178,cs)
);
}
);
width = 409;
}
);
note = underscore;
unicode = 95;
},
{
glyphname = grave;
layers = (
{
layerId = m01;
shapes = (
{
closed = 1;
nodes = (
(73,440,ls),
(82,433,o),
(88,431,o),
(97,431,cs),
(135,431,ls),
(138,431,o),
(140,434,o),
(137,436,c),
(75,493,ls),
(68,499,o),
(65,502,o),
(54,502,cs),
(4,502,ls),
(0,502,o),
(-1,498,o),
(1,496,cs)
);
}
);
width = 139;
}
);
note = grave;
unicode = 96;
},
{
glyphname = a;
kernLeft = a;
kernRight = a;
layers = (
{
layerId = m01;
shapes = (
{
closed = 1;
nodes = (
(344,6,ls),
(344,2,o),
(345,0,o),
(349,0,cs),
(390,0,ls),
(394,0,o),
(395,2,o),
(395,6,cs),
(395,354,ls),
(395,358,o),
(394,360,o),
(390,360,cs),
(385,360,ls),
(361,360,o),
(345,343,o),
(345,305,c),
(319,344,o),
(272,367,o),
(219,367,cs),
(117,367,o),
(44,288,o),
(44,178,cs),
(44,76,o),
(108,-9,o),
(216,-9,cs),
(267,-9,o),
(314,10,o),
(344,57,c)
);
},
{
closed = 1;
nodes = (
(154,38,o),
(95,84,o),
(95,178,cs),
(95,261,o),
(142,320,o),
(219,320,cs),
(276,320,o),
(344,287,o),
(344,178,cs),
(344,72,o),
(280,38,o),
(214,38,cs)
);
}
);
width = 454;
}
);
note = a;
unicode = 97;
},
{
glyphname = b;
layers = (
{
layerId = m01;
shapes = (
{
closed = 1;
nodes = (
(138,10,o),
(187,-9,o),
(242,-9,cs),
(346,-9,o),
(411,74,o),
(411,178,cs),
(411,290,o),
(344,367,o),
(241,367,cs),
(181,367,o),
(136,342,o),
(110,302,c),
(110,503,ls),
(110,536,o),
(93,556,o),
(70,556,cs),
(65,556,ls),
(61,556,o),
(60,553,o),
(60,549,cs),
(60,6,ls),
(60,2,o),
(61,0,o),
(65,0,cs),
(105,0,ls),
(109,0,o),
(110,2,o),
(110,6,cs),
(110,54,l)
);
},
{
closed = 1;
nodes = (
(179,38,o),
(110,73,o),
(110,178,cs),
(110,287,o),
(178,320,o),
(236,320,cs),
(312,320,o),
(359,262,o),
(359,178,cs),
(359,85,o),
(302,38,o),
(237,38,cs)
);
}
);
width = 454;
}
);
note = b;
unicode = 98;
},
{
glyphname = c;
kernLeft = c;
kernRight = c;
layers = (
{
layerId = m01;
shapes = (
{
closed = 1;
nodes = (
(289,-10,o),
(340,34,o),
(340,74,cs),
(340,84,o),
(336,89,o),
(330,89,cs),
(325,89,o),
(322,84,o),
(320,82,cs),
(299,57,o),
(272,37,o),
(223,37,cs),
(143,37,o),
(95,90,o),
(95,178,cs),
(95,266,o),
(144,320,o),
(218,320,cs),
(259,320,o),
(284,311,o),
(313,294,cs),
(315,293,o),
(317,292,o),
(319,292,cs),
(322,292,o),
(323,294,o),
(324,298,cs),
(328,313,ls),
(332,328,o),
(327,341,o),
(307,349,cs),
(281,362,o),
(255,367,o),
(218,367,cs),
(116,367,o),
(44,289,o),
(44,177,cs),
(44,62,o),
(112,-10,o),
(218,-10,cs)
);
}
);
width = 362;
}
);
note = c;
unicode = 99;
},
{
glyphname = d;
layers = (
{
layerId = m01;
shapes = (
{
closed = 1;
nodes = (
(319,344,o),
(272,367,o),
(219,367,cs),
(117,367,o),
(44,288,o),
(44,178,cs),
(44,76,o),
(108,-9,o),
(216,-9,cs),
(268,-9,o),
(315,10,o),
(345,57,c),
(345,6,ls),
(345,2,o),
(346,0,o),
(350,0,cs),
(390,0,ls),
(394,0,o),
(395,2,o),
(395,6,cs),
(395,503,ls),
(395,536,o),
(378,556,o),
(354,556,cs),
(350,556,ls),
(346,556,o),
(345,553,o),
(345,549,cs),
(345,305,l)
);
},
{
closed = 1;
nodes = (
(154,38,o),
(94,85,o),
(94,178,cs),
(94,262,o),
(142,320,o),
(219,320,cs),
(276,320,o),
(344,287,o),
(344,178,cs),
(344,72,o),
(279,38,o),
(214,38,cs)
);
}
);
width = 454;
}
);
note = d;
unicode = 100;
},
{
glyphname = e;
kernLeft = e;
kernRight = e;
layers = (
{
layerId = m01;
shapes = (
{
closed = 1;
nodes = (
(351,160,ls),
(359,160,o),
(363,162,o),
(364,171,cs),
(365,179,o),
(365,189,o),
(365,201,cs),
(365,286,o),
(322,367,o),
(208,367,cs),
(113,367,o),
(44,288,o),
(44,178,cs),
(44,41,o),
(138,-9,o),
(222,-9,cs),
(302,-9,o),
(360,35,o),
(360,78,cs),
(360,84,o),
(358,92,o),
(352,92,cs),
(347,92,o),
(343,86,o),
(340,82,c),
(318,61,o),
(290,37,o),
(226,37,cs),
(155,37,o),
(101,73,o),
(95,160,c)
);
},
{
closed = 1;
nodes = (
(103,278,o),
(144,321,o),
(207,321,cs),
(293,321,o),
(315,261,o),
(314,203,c),
(95,203,l)
);
}
);
width = 406;
}
);
note = e;
unicode = 101;
},
{
glyphname = f;
kernLeft = f;
layers = (
{
layerId = m01;
shapes = (
{
closed = 1;
nodes = (
(84,6,ls),
(84,2,o),
(85,0,o),
(89,0,cs),
(129,0,ls),
(133,0,o),
(134,2,o),
(134,6,cs),
(134,315,l),
(223,315,ls),
(227,315,o),
(228,317,o),
(228,321,cs),
(228,354,ls),
(228,358,o),
(227,360,o),
(223,360,cs),
(134,360,l),
(134,461,ls),
(134,502,o),
(154,516,o),
(177,516,cs),
(200,516,o),
(218,502,o),
(230,489,cs),
(233,486,o),
(235,485,o),
(238,485,cs),
(242,485,o),
(245,489,o),
(245,495,cs),
(245,516,o),
(223,562,o),
(170,562,cs),
(122,562,o),
(84,531,o),
(84,464,cs),
(84,360,l),
(21,360,ls),
(17,360,o),
(16,358,o),
(16,354,cs),
(16,321,ls),
(16,317,o),
(17,315,o),
(21,315,cs),
(84,315,l)
);
}
);
width = 268;
}
);
note = f;
unicode = 102;
},
{
glyphname = g;
layers = (
{
layerId = m01;
shapes = (
{
closed = 1;
nodes = (
(345,7,ls),
(345,-76,o),
(306,-121,o),
(211,-121,cs),
(150,-121,o),
(111,-102,o),
(83,-74,cs),
(79,-70,o),
(77,-67,o),
(72,-67,cs),
(67,-67,o),
(64,-74,o),
(64,-81,cs),
(64,-118,o),
(124,-171,o),
(214,-171,cs),
(334,-171,o),
(395,-100,o),
(395,7,cs),
(395,354,ls),
(395,358,o),
(394,359,o),
(390,359,cs),
(385,359,ls),
(361,359,o),
(345,343,o),
(345,305,c),
(319,344,o),
(272,367,o),
(219,367,cs),
(117,367,o),
(44,288,o),
(44,178,cs),
(44,76,o),
(108,-9,o),
(216,-9,cs),
(268,-9,o),
(315,10,o),
(345,57,c)
);
},
{
closed = 1;
nodes = (
(154,38,o),
(94,85,o),
(94,178,cs),
(94,262,o),
(142,320,o),
(219,320,cs),
(276,320,o),
(344,287,o),
(344,178,cs),
(344,72,o),
(279,38,o),
(214,38,cs)
);
}
);
width = 454;
}
);
note = g;
unicode = 103;
},
{
glyphname = h;
layers = (
{
layerId = m01;
shapes = (
{
closed = 1;
nodes = (
(110,503,ls),
(110,536,o),
(93,556,o),
(70,556,cs),
(65,556,ls),
(61,556,o),
(60,553,o),
(60,549,cs),
(60,6,ls),
(60,2,o),
(61,0,o),
(65,0,cs),
(105,0,ls),
(109,0,o),
(110,2,o),
(110,6,cs),
(110,193,ls),
(110,276,o),
(150,320,o),
(224,320,cs),
(292,320,o),
(331,276,o),
(331,200,cs),
(331,6,ls),
(331,2,o),
(332,0,o),
(336,0,cs),
(376,0,ls),
(379,0,o),
(381,2,o),
(381,6,cs),
(381,215,ls),
(381,302,o),
(325,367,o),
(232,367,cs),
(171,367,o),
(129,338,o),
(110,307,c)
);
}
);
width = 439;
}
);
note = h;
unicode = 104;
},
{
glyphname = i;
kernLeft = i;
kernRight = i;
layers = (
{
layerId = m01;
shapes = (
{
closed = 1;
nodes = (
(105,0,ls),
(109,0,o),
(110,2,o),
(110,6,cs),
(110,308,ls),
(110,340,o),
(92,360,o),
(69,360,cs),
(65,360,ls),
(61,360,o),
(60,358,o),
(60,354,cs),
(60,6,ls),
(60,2,o),
(61,0,o),
(65,0,cs)
);
},
{
closed = 1;
nodes = (
(53,440,o),
(68,426,o),
(86,426,cs),
(105,426,o),
(120,440,o),
(120,458,cs),
(120,477,o),
(105,492,o),
(86,492,cs),
(68,492,o),
(53,477,o),
(53,458,cs)
);
}
);
width = 170;
}
);
note = i;
unicode = 105;
},
{
glyphname = j;
layers = (
{
layerId = m01;
shapes = (
{
closed = 1;
nodes = (
(-36,-91,o),
(-38,-90,o),
(-41,-90,cs),
(-45,-90,o),
(-48,-93,o),
(-48,-100,cs),
(-48,-118,o),
(-26,-171,o),
(31,-171,cs),
(81,-171,o),
(110,-135,o),
(110,-67,cs),
(110,308,ls),
(110,340,o),
(93,359,o),
(70,359,cs),
(65,359,ls),
(61,359,o),
(60,358,o),
(60,354,cs),
(60,-61,ls),
(60,-102,o),
(51,-124,o),
(20,-124,cs),
(-3,-124,o),
(-19,-110,o),
(-33,-93,c)
);
},
{
closed = 1;
nodes = (
(53,441,o),
(68,426,o),
(86,426,cs),
(104,426,o),
(119,441,o),
(119,459,cs),
(119,477,o),
(104,492,o),
(86,492,cs),
(68,492,o),
(53,477,o),
(53,459,cs)
);
}
);
width = 170;
}
);
note = j;
unicode = 106;
},
{
glyphname = k;
layers = (
{
layerId = m01;
shapes = (
{
closed = 1;
nodes = (
(159,196,l),
(278,10,ls),
(283,2,o),
(286,0,o),
(296,0,cs),
(336,0,ls),
(340,0,o),
(341,3,o),
(339,6,cs),
(194,230,l),
(321,354,ls),
(323,356,o),
(322,359,o),
(318,359,cs),
(279,359,ls),
(269,359,o),
(266,358,o),
(259,351,cs),
(110,207,l),
(110,503,ls),
(110,536,o),
(93,556,o),
(70,556,cs),
(65,556,ls),
(61,556,o),
(60,553,o),
(60,549,cs),
(60,6,ls),
(60,2,o),
(61,0,o),
(65,0,cs),
(105,0,ls),
(109,0,o),
(110,2,o),
(110,6,cs),
(110,148,l)
);
}
);
width = 354;
}
);
note = k;
unicode = 107;
},
{
glyphname = l;
kernRight = l;
layers = (
{
layerId = m01;
shapes = (
{
closed = 1;
nodes = (
(196,-9,o),
(217,40,o),
(217,63,cs),
(217,71,o),
(214,77,o),
(209,77,cs),
(206,77,o),
(205,74,o),
(201,71,c),
(186,51,o),
(171,41,o),
(150,41,cs),
(123,41,o),
(109,59,o),
(109,92,cs),
(109,504,ls),
(109,536,o),
(93,556,o),
(69,556,cs),
(64,556,ls),
(60,556,o),
(59,553,o),
(59,549,cs),
(59,89,ls),
(59,20,o),
(91,-9,o),
(141,-9,cs)
);
}
);
width = 220;
}
);
note = l;
unicode = 108;
},
{
glyphname = m;
layers = (
{
layerId = m01;
shapes = (
{
closed = 1;
nodes = (
(110,339,o),
(93,360,o),
(70,360,cs),
(65,360,ls),
(61,360,o),
(60,358,o),
(60,354,cs),
(60,6,ls),
(60,2,o),
(61,0,o),
(65,0,cs),
(105,0,ls),
(109,0,o),
(110,2,o),
(110,6,cs),
(110,193,ls),
(110,276,o),
(147,320,o),
(221,320,cs),
(289,320,o),
(325,276,o),
(325,200,cs),
(325,6,ls),
(325,2,o),
(326,0,o),
(330,0,cs),
(369,0,ls),
(374,0,o),
(374,2,o),
(374,6,cs),
(374,193,ls),
(374,276,o),
(412,320,o),
(484,320,cs),
(553,320,o),
(589,276,o),
(589,200,cs),
(589,6,ls),
(589,2,o),
(591,0,o),
(594,0,cs),
(634,0,ls),
(638,0,o),
(639,2,o),
(639,6,cs),
(639,215,ls),
(639,302,o),
(586,367,o),
(489,367,cs),
(419,367,o),
(379,331,o),
(356,297,c),
(333,340,o),
(289,367,o),
(229,367,cs),
(168,367,o),
(129,338,o),
(110,307,c)
);
}
);
width = 697;
}
);
note = m;
unicode = 109;
},
{
glyphname = n;
kernLeft = n;
kernRight = n;
layers = (
{
layerId = m01;
shapes = (
{
closed = 1;
nodes = (
(110,339,o),
(93,360,o),
(69,360,cs),
(64,360,ls),
(60,360,o),
(59,358,o),
(59,354,cs),
(59,6,ls),
(59,2,o),
(60,0,o),
(64,0,cs),
(104,0,ls),
(108,0,o),
(109,2,o),
(109,6,cs),
(109,193,ls),
(109,276,o),
(148,320,o),
(222,320,cs),
(291,320,o),
(330,276,o),
(330,200,cs),
(330,6,ls),
(330,2,o),
(331,0,o),
(335,0,cs),
(375,0,ls),
(379,0,o),
(380,2,o),
(380,6,cs),
(380,214,ls),
(380,302,o),
(325,367,o),
(231,367,cs),
(171,367,o),
(129,338,o),
(110,307,c)
);
}
);
width = 439;
}
);
note = n;
unicode = 110;
},
{
glyphname = o;
kernLeft = o;
kernRight = o;
layers = (
{
layerId = m01;
shapes = (
{
closed = 1;
nodes = (
(328,-9,o),
(398,67,o),
(398,179,cs),
(398,291,o),
(328,367,o),
(220,367,cs),
(116,367,o),
(44,291,o),
(44,178,cs),
(44,63,o),
(116,-9,o),
(221,-9,cs)
);
},
{
closed = 1;
nodes = (
(143,38,o),
(95,94,o),
(95,179,cs),
(95,263,o),
(143,320,o),
(220,320,cs),
(294,320,o),
(348,263,o),
(348,178,cs),
(348,92,o),
(297,38,o),
(220,38,cs)
);
}
);
width = 443;
}
);
note = o;
unicode = 111;
},
{
glyphname = p;
layers = (
{
layerId = m01;
shapes = (
{
closed = 1;
nodes = (
(138,10,o),
(187,-9,o),
(242,-9,cs),
(346,-9,o),
(411,74,o),
(411,178,cs),
(411,290,o),
(344,367,o),
(241,367,cs),
(181,367,o),
(136,342,o),
(110,302,c),
(110,308,ls),
(110,341,o),
(93,360,o),
(70,360,cs),
(65,360,ls),
(61,360,o),
(60,358,o),
(60,354,cs),
(60,-154,ls),
(60,-158,o),
(61,-160,o),
(65,-160,cs),
(105,-160,ls),
(109,-160,o),
(110,-158,o),
(110,-154,cs),
(110,54,l)
);
},
{
closed = 1;
nodes = (
(181,38,o),
(110,74,o),
(110,178,cs),
(110,287,o),
(178,320,o),
(236,320,cs),
(312,320,o),
(359,262,o),
(359,178,cs),
(359,85,o),
(300,38,o),
(239,38,cs)
);
}
);
width = 454;
}
);
note = p;
unicode = 112;
},
{
glyphname = q;
layers = (
{
layerId = m01;
shapes = (
{
closed = 1;
nodes = (
(345,-154,ls),
(345,-158,o),
(346,-160,o),
(350,-160,cs),
(390,-160,ls),
(394,-160,o),
(395,-158,o),
(395,-154,cs),
(395,354,ls),
(395,358,o),
(394,360,o),
(390,360,cs),
(385,360,ls),
(361,360,o),
(345,343,o),
(345,305,c),
(319,344,o),
(272,367,o),
(219,367,cs),
(117,367,o),
(44,288,o),
(44,178,cs),
(44,76,o),
(108,-9,o),
(216,-9,cs),
(268,-9,o),
(315,10,o),
(345,57,c)
);
},
{
closed = 1;
nodes = (
(154,38,o),
(94,85,o),
(94,178,cs),
(94,262,o),
(142,320,o),
(219,320,cs),
(276,320,o),
(344,287,o),
(344,178,cs),
(344,72,o),
(279,38,o),
(214,38,cs)
);
}
);
width = 454;
}
);
note = q;
unicode = 113;
},
{
glyphname = r;
kernLeft = r;
layers = (
{
layerId = m01;
shapes = (
{
closed = 1;
nodes = (
(65,360,ls),
(61,360,o),
(60,358,o),
(60,354,cs),
(60,6,ls),
(60,2,o),
(61,0,o),
(65,0,cs),
(105,0,ls),
(109,0,o),
(110,2,o),
(110,6,cs),
(110,192,ls),
(110,276,o),
(141,309,o),
(210,309,cs),
(231,309,ls),
(235,309,o),
(236,311,o),
(236,316,cs),
(236,354,ls),
(236,358,o),
(235,360,o),
(231,360,cs),
(220,360,ls),
(170,360,o),
(133,349,o),
(110,309,c),
(110,341,o),
(93,360,o),
(70,360,cs)
);
}
);
width = 267;
}
);
note = r;
unicode = 114;
},
{
glyphname = s;
kernLeft = s;
layers = (
{
layerId = m01;
shapes = (
{
closed = 1;
nodes = (
(43,84,o),
(39,88,o),
(35,88,cs),
(29,88,o),
(25,83,o),
(25,73,cs),
(25,41,o),
(68,-11,o),
(149,-11,cs),
(233,-11,o),
(283,33,o),
(283,99,cs),
(283,214,o),
(82,198,o),
(82,271,cs),
(82,302,o),
(111,320,o),
(156,320,cs),
(193,320,o),
(222,310,o),
(252,293,c),
(253,292,o),
(256,291,o),
(257,291,cs),
(261,291,o),
(261,293,o),
(262,297,cs),
(266,312,ls),
(271,328,o),
(266,339,o),
(246,349,cs),
(221,361,o),
(193,367,o),
(156,367,cs),
(81,367,o),
(32,322,o),
(32,267,cs),
(32,155,o),
(233,170,o),
(233,94,cs),
(233,58,o),
(204,36,o),
(147,36,cs),
(93,36,o),
(63,59,o),
(44,82,c)
);
}
);
width = 309;
}
);
note = s;
unicode = 115;
},
{
glyphname = t;
layers = (
{
layerId = m01;
shapes = (
{
closed = 1;
nodes = (
(92,6,ls),
(92,2,o),
(92,0,o),
(96,0,cs),
(137,0,ls),
(141,0,o),
(142,2,o),
(142,6,cs),
(142,315,l),
(216,315,ls),
(220,315,o),
(221,317,o),
(221,321,cs),
(221,354,ls),
(221,358,o),
(220,360,o),
(216,360,cs),
(142,360,l),
(142,439,ls),
(142,471,o),
(125,491,o),
(101,491,cs),
(96,491,ls),
(92,491,o),
(92,488,o),
(92,484,cs),
(92,360,l),
(24,360,ls),
(20,360,o),
(19,358,o),
(19,354,cs),
(19,321,ls),
(19,317,o),
(20,315,o),
(24,315,cs),
(92,315,l)
);
}
);
width = 249;
}
);
note = t;
unicode = 116;
},
{
glyphname = u;
kernLeft = u;
kernRight = u;
layers = (
{
layerId = m01;
shapes = (
{
closed = 1;
nodes = (
(306,-10,o),
(364,51,o),
(364,156,cs),
(364,308,ls),
(364,340,o),
(347,360,o),
(323,360,cs),
(319,360,ls),
(315,360,o),
(314,358,o),
(314,354,cs),
(314,153,ls),
(314,73,o),
(276,36,o),
(211,36,cs),
(145,36,o),
(110,81,o),
(110,156,cs),
(110,308,ls),
(110,340,o),
(92,360,o),
(68,360,cs),
(63,360,ls),
(60,360,o),
(59,358,o),
(59,354,cs),
(59,159,ls),
(59,51,o),
(115,-10,o),
(211,-10,cs)
);
}
);
width = 423;
}
);
note = u;
unicode = 117;
},
{
glyphname = v;
layers = (
{
layerId = m01;
shapes = (
{
closed = 1;
nodes = (
(83,321,ls),
(74,350,o),
(58,360,o),
(35,360,cs),
(23,360,ls),
(18,360,o),
(17,357,o),
(18,354,cs),
(140,5,ls),
(141,2,o),
(143,0,o),
(147,0,cs),
(182,0,ls),
(187,0,o),
(188,2,o),
(189,5,cs),
(311,354,ls),
(312,357,o),
(311,360,o),
(307,360,cs),
(274,360,ls),
(264,360,o),
(261,359,o),
(258,350,cs),
(165,70,l)
);
}
);
width = 329;
}
);
note = v;
unicode = 118;
},
{
glyphname = w;
layers = (
{
layerId = m01;
shapes = (
{
closed = 1;
nodes = (
(87,321,ls),
(79,348,o),
(61,360,o),
(39,360,cs),
(28,360,ls),
(24,360,o),
(23,357,o),
(24,354,cs),
(132,5,ls),
(133,2,o),
(135,0,o),
(139,0,cs),
(173,0,ls),
(178,0,o),
(179,2,o),
(180,5,cs),
(275,291,l),
(369,5,ls),
(370,2,o),
(372,0,o),
(376,0,cs),
(410,0,ls),
(415,0,o),
(416,2,o),
(417,5,cs),
(527,354,ls),
(528,357,o),
(527,360,o),
(523,360,cs),
(490,360,ls),
(480,360,o),
(477,359,o),
(474,350,cs),
(394,72,l),
(312,319,ls),
(302,349,o),
(288,360,o),
(268,360,cs),
(259,360,ls),
(254,360,o),
(251,359,o),
(249,353,cs),
(158,72,l)
);
}
);
width = 551;
}
);
note = w;
unicode = 119;
},
{
glyphname = x;
layers = (
{
layerId = m01;
shapes = (
{
closed = 1;
nodes = (
(264,10,ls),
(269,2,o),
(271,0,o),
(280,0,cs),
(317,0,ls),
(321,0,o),
(322,3,o),
(321,6,c),
(197,194,l),
(299,354,ls),
(301,357,o),
(301,360,o),
(296,360,cs),
(262,360,ls),
(252,360,o),
(249,357,o),
(244,349,cs),
(167,228,l),
(111,316,ls),
(92,345,o),
(79,360,o),
(51,360,cs),
(35,360,ls),
(30,360,o),
(29,357,o),
(31,354,cs),
(135,191,l),
(15,6,ls),
(13,3,o),
(14,0,o),
(18,0,cs),
(56,0,ls),
(65,0,o),
(67,2,o),
(72,10,cs),
(166,159,l)
);
}
);
width = 336;
}
);
note = x;
unicode = 120;
},
{
glyphname = y;
kernLeft = y;
kernRight = y;
layers = (
{
layerId = m01;
shapes = (
{
closed = 1;
nodes = (
(104,-104,o),
(89,-124,o),
(55,-124,cs),
(34,-124,o),
(22,-116,o),
(5,-98,c),
(2,-96,o),
(0,-93,o),
(-4,-93,cs),
(-10,-93,o),
(-13,-99,o),
(-13,-106,cs),
(-13,-140,o),
(21,-171,o),
(58,-171,cs),
(121,-171,o),
(145,-117,o),
(180,-19,cs),
(311,354,ls),
(312,357,o),
(311,360,o),
(307,360,cs),
(273,360,ls),
(264,360,o),
(260,359,o),
(258,350,c),
(165,63,l),
(83,320,ls),
(73,350,o),
(56,360,o),
(35,360,cs),
(22,360,ls),
(18,360,o),
(17,357,o),
(18,354,cs),
(140,-5,l)
);
}
);
width = 329;
}
);
note = y;
unicode = 121;
},
{
glyphname = z;
kernLeft = z;
kernRight = z;
layers = (
{
layerId = m01;
shapes = (
{
closed = 1;
nodes = (
(273,274,ls),
(285,289,o),
(287,297,o),
(287,315,cs),
(287,348,o),
(276,360,o),
(241,360,cs),
(44,360,ls),
(40,360,o),
(39,358,o),
(39,354,cs),
(39,321,ls),
(39,317,o),
(40,315,o),
(44,315,cs),
(247,315,l),
(48,62,ls),
(38,49,o),
(35,46,o),
(35,36,cs),
(35,6,ls),
(35,2,o),
(36,0,o),
(40,0,cs),
(279,0,ls),
(283,0,o),
(284,2,o),
(284,6,cs),
(284,39,ls),
(284,43,o),
(283,44,o),
(279,45,c),
(92,45,l)
);
}
);
width = 323;
}
);
note = z;
unicode = 122;
},
{
glyphname = braceleft;
layers = (
{
layerId = m01;
shapes = (
{
closed = 1;
nodes = (
(271,-144,o),
(273,-142,o),
(273,-137,cs),
(273,-134,ls),
(273,-114,o),
(258,-101,o),
(234,-101,cs),
(178,-101,ls),
(163,-101,o),
(155,-90,o),
(155,-77,cs),
(155,218,ls),
(155,256,o),
(138,270,o),
(131,276,c),
(138,283,o),
(155,296,o),
(155,334,cs),
(155,628,ls),
(155,642,o),
(163,652,o),
(178,652,cs),
(234,652,ls),
(258,652,o),
(273,666,o),
(273,686,cs),
(273,689,ls),
(273,693,o),
(271,696,o),
(266,696,cs),
(165,696,ls),
(131,696,o),
(108,673,o),
(108,639,cs),
(108,337,ls),
(108,303,o),
(83,298,o),
(69,297,cs),
(64,297,o),
(60,294,o),
(60,288,cs),
(60,264,ls),
(60,258,o),
(63,256,o),
(69,255,cs),
(83,253,o),
(108,249,o),
(108,216,cs),
(108,-88,ls),
(108,-121,o),
(131,-144,o),
(165,-144,cs),
(266,-144,ls)
);
}
);
width = 326;
}
);
note = braceleft;
unicode = 123;
},
{
glyphname = bar;
layers = (
{
layerId = m01;
shapes = (
{
closed = 1;
nodes = (
(110,-149,ls),
(114,-149,o),
(115,-147,o),
(115,-143,cs),
(115,514,ls),
(115,547,o),
(97,567,o),
(74,567,cs),
(70,567,o),
(69,564,o),
(69,561,cs),
(69,-143,ls),
(69,-147,o),
(70,-149,o),
(74,-149,cs)
);
}
);
width = 184;
}
);
note = bar;
unicode = 124;
},
{
glyphname = braceright;
layers = (
{
layerId = m01;
shapes = (
{
closed = 1;
nodes = (
(195,-144,o),
(219,-121,o),
(219,-88,cs),
(219,216,ls),
(219,249,o),
(244,253,o),
(257,255,cs),
(263,256,o),
(266,258,o),
(266,264,cs),
(266,288,ls),
(266,294,o),
(262,297,o),
(257,297,cs),
(244,298,o),
(219,303,o),
(219,337,cs),
(219,639,ls),
(219,673,o),
(195,696,o),
(161,696,cs),
(60,696,ls),
(56,696,o),
(53,693,o),
(53,689,cs),
(53,686,ls),
(53,666,o),
(69,652,o),
(92,652,cs),
(149,652,ls),
(164,652,o),
(171,642,o),
(171,628,cs),
(171,334,ls),
(171,296,o),
(188,283,o),
(196,276,c),
(188,270,o),
(171,256,o),
(171,218,cs),
(171,-77,ls),
(171,-90,o),
(164,-101,o),
(149,-101,cs),
(92,-101,ls),
(69,-101,o),
(53,-114,o),
(53,-134,cs),
(53,-137,ls),
(53,-142,o),
(56,-144,o),
(60,-144,cs),
(161,-144,ls)
);
}
);
width = 326;
}
);
note = braceright;
unicode = 125;
},
{
glyphname = asciitilde;
layers = (
{
layerId = m01;
shapes = (
{
closed = 1;
nodes = (
(48,211,o),
(52,210,o),
(55,213,cs),
(81,235,o),
(95,242,o),
(126,242,cs),
(167,242,o),
(198,218,o),
(242,218,cs),
(275,218,o),
(290,225,o),
(311,242,cs),
(319,249,o),
(320,254,o),
(320,267,cs),
(320,291,ls),
(320,293,o),
(317,296,o),
(313,293,cs),
(286,271,o),
(274,265,o),
(242,265,cs),
(201,265,o),
(170,288,o),
(126,288,cs),
(98,288,o),
(79,280,o),
(57,265,cs),
(48,259,o),
(48,253,o),
(48,240,cs),
(48,215,ls)
);
}
);
width = 368;
}
);
note = asciitilde;
unicode = 126;
},
{
glyphname = exclamdown;
layers = (
{
layerId = m01;
shapes = (
{
closed = 1;
nodes = (
(94,287,o),
(113,307,o),
(113,329,cs),
(113,353,o),
(94,372,o),
(72,372,cs),
(49,372,o),
(31,353,o),
(31,329,cs),
(31,307,o),
(49,287,o),
(72,287,cs)
);
},
{
closed = 1;
nodes = (
(95,-199,o),
(97,-197,o),
(97,-193,cs),
(93,170,ls),
(93,202,o),
(78,222,o),
(54,222,cs),
(50,222,o),
(49,220,o),
(49,216,cs),
(47,-193,ls),
(47,-197,o),
(48,-199,o),
(52,-199,cs),
(92,-199,ls)
);
}
);
width = 143;
}
);
note = exclamdown;
unicode = 161;
},
{
glyphname = cent;
layers = (
{
layerId = m01;
shapes = (
{
closed = 1;
nodes = (
(293,-2,o),
(336,37,o),
(336,74,cs),
(336,84,o),
(332,89,o),
(326,89,cs),
(321,89,o),
(318,84,o),
(316,82,cs),
(297,59,o),
(273,41,o),
(232,38,c),
(232,319,l),
(263,317,o),
(284,308,o),
(309,294,cs),
(311,293,o),
(313,292,o),
(315,292,cs),
(318,292,o),
(319,294,o),
(320,298,cs),
(324,313,ls),
(328,328,o),
(323,341,o),
(303,349,cs),
(281,359,o),
(260,366,o),
(232,367,c),
(232,421,ls),
(232,424,o),
(231,427,o),
(227,427,cs),
(190,427,ls),
(186,427,o),
(185,424,o),
(185,421,cs),
(185,364,l),
(98,352,o),
(40,278,o),
(40,177,cs),
(40,73,o),
(96,4,o),
(185,-8,c),
(185,-65,ls),
(185,-69,o),
(186,-71,o),
(190,-71,cs),
(227,-71,ls),
(231,-71,o),
(232,-69,o),
(232,-65,cs),
(232,-9,l)
);
},
{
closed = 1;
nodes = (
(125,54,o),
(91,102,o),
(91,178,cs),
(91,254,o),
(127,304,o),
(185,317,c),
(185,41,l)
);
}
);
width = 359;
}
);
note = cent;
unicode = 162;
},
{
glyphname = sterling;
layers = (
{
layerId = m01;
shapes = (
{
closed = 1;
nodes = (
(202,86,o),
(224,131,o),
(224,193,cs),
(224,220,o),
(217,238,o),
(207,262,c),
(369,262,ls),
(375,262,o),
(378,264,o),
(378,269,cs),
(378,279,ls),
(378,298,o),
(368,308,o),
(348,308,cs),
(183,308,l),
(161,347,o),
(147,374,o),
(147,417,cs),
(147,482,o),
(199,519,o),
(270,519,cs),
(314,519,o),
(355,503,o),
(399,474,c),
(404,469,o),
(408,468,o),
(412,468,cs),
(415,468,o),
(417,469,o),
(419,476,cs),
(424,492,ls),
(429,511,o),
(417,523,o),
(392,536,cs),
(359,553,o),
(319,567,o),
(265,567,cs),
(166,567,o),
(97,509,o),
(97,417,cs),
(97,373,o),
(108,345,o),
(129,308,c),
(56,308,ls),
(52,308,o),
(51,306,o),
(51,302,cs),
(51,268,ls),
(51,264,o),
(52,262,o),
(56,262,cs),
(154,262,l),
(171,234,o),
(176,215,o),
(176,193,cs),
(176,134,o),
(154,77,o),
(139,47,c),
(56,47,ls),
(52,47,o),
(51,45,o),
(51,41,cs),
(51,6,ls),
(51,2,o),
(52,0,o),
(56,0,cs),
(422,0,ls),
(427,0,o),
(429,2,o),
(429,7,cs),
(429,18,ls),
(429,37,o),
(419,47,o),
(399,47,cs),
(185,47,l)
);
}
);
width = 473;
}
);
note = sterling;
unicode = 163;
},
{
glyphname = yen;
layers = (
{
layerId = m01;
shapes = (
{
closed = 1;
nodes = (
(200,6,ls),
(200,2,o),
(201,0,o),
(205,0,cs),
(246,0,ls),
(250,0,o),
(251,2,o),
(251,6,cs),
(251,133,l),
(399,133,ls),
(402,133,o),
(404,135,o),
(404,139,cs),
(404,172,ls),
(404,176,o),
(402,178,o),
(399,178,cs),
(251,178,l),
(251,219,l),
(269,251,l),
(399,251,ls),
(402,251,o),
(404,253,o),
(404,257,cs),
(404,289,ls),
(404,293,o),
(402,295,o),
(399,295,cs),
(291,295,l),
(430,547,ls),
(434,553,o),
(431,556,o),
(425,556,cs),
(391,556,ls),
(381,556,o),
(379,552,o),
(375,543,c),
(227,275,l),
(96,513,ls),
(80,543,o),
(67,556,o),
(40,556,cs),
(24,556,ls),
(19,556,o),
(18,552,o),
(20,548,cs),
(157,295,l),
(47,295,ls),
(43,295,o),
(42,293,o),
(42,289,cs),
(42,257,ls),
(42,253,o),
(43,251,o),
(47,251,cs),
(182,251,l),
(200,219,l),
(200,178,l),
(47,178,ls),
(43,178,o),
(42,176,o),
(42,172,cs),
(42,139,ls),
(42,135,o),
(43,133,o),
(47,133,cs),
(200,133,l)
);
}
);
width = 449;
}
);
note = yen;
unicode = 165;
},
{
glyphname = brokenbar;
layers = (
{
layerId = m01;
shapes = (
{
closed = 1;
nodes = (
(110,272,ls),
(114,272,o),
(115,274,o),
(115,277,cs),
(115,514,ls),
(115,547,o),
(97,567,o),
(74,567,cs),
(70,567,o),
(69,564,o),
(69,561,cs),
(69,277,ls),
(69,274,o),
(70,272,o),
(74,272,cs)
);
},
{
closed = 1;
nodes = (
(110,-149,ls),
(114,-149,o),
(115,-147,o),
(115,-143,cs),
(115,140,ls),
(115,144,o),
(114,146,o),
(110,146,cs),
(74,146,ls),
(70,146,o),
(69,144,o),
(69,140,cs),
(69,-143,ls),
(69,-147,o),
(70,-149,o),
(74,-149,cs)
);
}
);
width = 184;
}
);
note = brokenbar;
unicode = 166;
},
{
glyphname = section;
layers = (
{
layerId = m01;
shapes = (
{
closed = 1;
nodes = (
(164,176,o),
(106,204,o),
(106,255,cs),
(106,303,o),
(151,337,o),
(188,357,c),
(235,331,o),
(298,303,o),
(298,255,cs),
(298,204,o),
(256,169,o),
(224,144,c)
);
},
{
closed = 1;
nodes = (
(296,150,o),
(346,194,o),
(346,259,cs),
(346,377,o),
(139,392,o),
(139,469,cs),
(139,503,o),
(166,521,o),
(215,521,cs),
(247,521,o),
(276,511,o),
(305,493,c),
(307,493,o),
(309,492,o),
(311,492,cs),
(314,492,o),
(315,493,o),
(316,498,cs),
(320,513,ls),
(324,528,o),
(320,539,o),
(299,549,cs),
(277,561,o),
(247,568,o),
(213,568,cs),
(138,568,o),
(89,528,o),
(89,467,cs),
(89,424,o),
(120,399,o),
(155,377,c),
(114,354,o),
(59,316,o),
(59,251,cs),
(59,134,o),
(279,107,o),
(279,18,cs),
(279,-23,o),
(245,-51,o),
(191,-51,cs),
(144,-51,o),
(111,-32,o),
(80,-4,cs),
(75,0,o),
(71,-2,o),
(69,-8,cs),
(65,-19,ls),
(59,-34,o),
(68,-47,o),
(85,-62,cs),
(105,-80,o),
(145,-97,o),
(194,-97,cs),
(272,-97,o),
(330,-45,o),
(330,23,cs),
(330,68,o),
(298,97,o),
(258,124,c)
);
}
);
width = 404;
}
);
note = section;
unicode = 167;
},
{
glyphname = dieresis;
layers = (
{
layerId = m01;
shapes = (
{
closed = 1;
nodes = (
(0,440,o),
(15,426,o),
(33,426,cs),
(52,426,o),
(67,440,o),
(67,458,cs),
(67,477,o),
(52,492,o),
(33,492,cs),
(15,492,o),
(0,477,o),
(0,458,cs)
);
},
{
closed = 1;
nodes = (
(112,440,o),
(127,426,o),
(145,426,cs),
(164,426,o),
(179,440,o),
(179,458,cs),
(179,477,o),
(164,492,o),
(145,492,cs),
(127,492,o),
(112,477,o),
(112,458,cs)
);
}
);
width = 179;
}
);
note = dieresis;
unicode = 168;
},
{
glyphname = copyright;
layers = (
{
layerId = m01;
shapes = (
{
closed = 1;
nodes = (
(33,206,o),
(121,117,o),
(256,117,cs),
(390,117,o),
(479,206,o),
(479,340,cs),
(479,474,o),
(390,563,o),
(256,563,cs),
(121,563,o),
(33,474,o),
(33,340,cs)
);
},
{
closed = 1;
nodes = (
(143,153,o),
(71,227,o),
(71,340,cs),
(71,453,o),
(143,527,o),
(256,527,cs),
(369,527,o),
(442,453,o),
(442,340,cs),
(442,227,o),
(369,153,o),
(256,153,cs)
);
},
{
closed = 1;
nodes = (
(335,431,ls),
(336,439,o),
(331,446,o),
(320,451,cs),
(304,459,o),
(287,463,o),
(264,463,cs),
(200,463,o),
(151,417,o),
(151,340,cs),
(151,263,o),
(197,217,o),
(260,217,cs),
(304,217,o),
(342,249,o),
(342,281,cs),
(342,284,o),
(341,288,o),
(337,288,cs),
(335,288,o),
(334,287,o),
(331,283,cs),
(317,264,o),
(297,248,o),
(263,248,cs),
(216,248,o),
(187,279,o),
(187,339,cs),
(187,398,o),
(218,433,o),
(264,433,cs),
(286,433,o),
(308,424,o),
(325,412,c),
(328,409,o),
(329,409,o),
(330,409,cs),
(332,409,o),
(333,411,o),
(333,413,cs)
);
}
);
width = 512;
}
);
note = copyright;
unicode = 169;
},
{
glyphname = ordfeminine;
layers = (
{
layerId = m01;
shapes = (
{
closed = 1;
nodes = (
(260,269,ls),
(260,266,o),
(260,264,o),
(263,264,cs),
(297,264,ls),
(300,264,o),
(301,266,o),
(301,269,cs),
(301,543,ls),
(301,546,o),
(300,548,o),
(297,548,cs),
(291,548,ls),
(273,548,o),
(260,534,o),
(260,504,c),
(239,534,o),
(202,553,o),
(160,553,cs),
(80,553,o),
(20,491,o),
(20,404,cs),
(20,323,o),
(73,257,o),
(158,257,cs),
(199,257,o),
(236,272,o),
(260,308,c)
);
},
{
closed = 1;
nodes = (
(110,296,o),
(65,332,o),
(65,404,cs),
(65,468,o),
(101,513,o),
(160,513,cs),
(205,513,o),
(257,488,o),
(257,404,cs),
(257,322,o),
(207,296,o),
(156,296,cs)
);
}
);
width = 328;
}
);
note = ordfeminine;
unicode = 170;
},
{
glyphname = guillemotleft;
layers = (
{
layerId = m01;
shapes = (
{
closed = 1;
nodes = (
(332,321,ls),
(335,325,o),
(333,328,o),
(329,328,cs),
(285,328,ls),
(278,328,o),
(275,327,o),
(270,320,cs),
(174,198,ls),
(170,193,o),
(167,189,o),
(167,184,cs),
(167,179,o),
(170,175,o),
(174,170,cs),
(270,48,ls),
(275,41,o),
(278,40,o),
(285,40,cs),
(329,40,ls),
(333,40,o),
(335,43,o),
(332,47,cs),
(228,184,l)
);
},
{
closed = 1;
nodes = (
(194,321,ls),
(197,325,o),
(195,328,o),
(191,328,cs),
(147,328,ls),
(140,328,o),
(136,327,o),
(131,320,cs),
(36,198,ls),
(32,193,o),
(29,189,o),
(29,184,cs),
(29,179,o),
(32,175,o),
(36,170,cs),
(131,48,ls),
(136,41,o),
(140,40,o),
(147,40,cs),
(191,40,ls),
(195,40,o),
(197,43,o),
(194,47,cs),
(90,184,l)
);
}
);
width = 361;
}
);
note = guillemotleft;
unicode = 171;
},
{
glyphname = uni00AD;
layers = (
{
layerId = m01;
shapes = (
{
closed = 1;
nodes = (
(260,180,ls),
(264,180,o),
(265,182,o),
(265,186,cs),
(265,221,ls),
(265,225,o),
(264,227,o),
(260,227,cs),
(46,227,ls),
(42,227,o),
(41,225,o),
(41,221,cs),
(41,186,ls),
(41,182,o),
(42,180,o),
(46,180,cs)
);
}
);
width = 305;
}
);
note = uni00AD;
unicode = 173;
},
{
glyphname = registered;
layers = (
{
layerId = m01;
shapes = (
{
closed = 1;
nodes = (
(33,206,o),
(121,117,o),
(256,117,cs),
(390,117,o),
(479,206,o),
(479,340,cs),
(479,474,o),
(390,563,o),
(256,563,cs),
(121,563,o),
(33,474,o),
(33,340,cs)
);
},
{
closed = 1;
nodes = (
(143,153,o),
(71,227,o),
(71,340,cs),
(71,453,o),
(143,527,o),
(256,527,cs),
(369,527,o),
(442,453,o),
(442,340,cs),
(442,227,o),
(369,153,o),
(256,153,cs)
);
},
{
closed = 1;
nodes = (
(207,428,l),
(254,428,ls),
(289,428,o),
(312,421,o),
(312,388,cs),
(312,354,o),
(292,340,o),
(250,340,cs),
(207,340,l)
);
},
{
closed = 1;
nodes = (
(261,308,l),
(313,226,ls),
(315,223,o),
(316,222,o),
(322,222,cs),
(351,222,ls),
(353,222,o),
(354,224,o),
(353,225,cs),
(297,311,l),
(328,322,o),
(348,348,o),
(348,386,cs),
(348,433,o),
(316,459,o),
(262,459,cs),
(173,459,ls),
(171,459,o),
(171,459,o),
(171,457,cs),
(171,225,ls),
(171,223,o),
(171,222,o),
(173,222,cs),
(205,222,ls),
(206,222,o),
(207,223,o),
(207,225,cs),
(207,308,l)
);
}
);
width = 512;
}
);
note = registered;
unicode = 174;
},
{
glyphname = macron;
layers = (
{
layerId = m01;
shapes = (
{
closed = 1;
nodes = (
(197,431,ls),
(201,431,o),
(202,433,o),
(202,437,cs),
(202,464,ls),
(202,468,o),
(201,469,o),
(197,469,cs),
(5,469,ls),
(1,469,o),
(0,468,o),
(0,464,cs),
(0,437,ls),
(0,433,o),
(1,431,o),
(5,431,cs)
);
}
);
width = 202;
}
);
note = macron;
unicode = 175;
},
{
glyphname = degree;
layers = (
{
layerId = m01;
shapes = (
{
closed = 1;
nodes = (
(193,369,o),
(235,416,o),
(235,474,cs),
(235,536,o),
(193,579,o),
(130,579,cs),
(68,579,o),
(26,536,o),
(26,474,cs),
(26,416,o),
(68,369,o),
(130,369,cs)
);
},
{
closed = 1;
nodes = (
(92,407,o),
(68,438,o),
(68,474,cs),
(68,512,o),
(92,543,o),
(130,543,cs),
(168,543,o),
(193,512,o),
(193,474,cs),
(193,438,o),
(168,407,o),
(130,407,cs)
);
}
);
width = 261;
}
);
note = degree;
unicode = 176;
},
{
glyphname = plusminus;
layers = (
{
layerId = m01;
shapes = (
{
closed = 1;
nodes = (
(169,107,ls),
(169,103,o),
(170,101,o),
(174,101,cs),
(210,101,ls),
(215,101,o),
(215,103,o),
(215,107,cs),
(215,249,l),
(339,249,ls),
(343,249,o),
(344,251,o),
(344,255,cs),
(344,289,ls),
(344,293,o),
(343,295,o),
(339,295,cs),
(215,295,l),
(215,397,ls),
(215,429,o),
(203,443,o),
(174,443,cs),
(170,443,o),
(169,441,o),
(169,437,cs),
(169,295,l),
(46,295,ls),
(42,295,o),
(41,293,o),
(41,289,cs),
(41,255,ls),
(41,251,o),
(42,249,o),
(46,249,cs),
(169,249,l)
);
},
{
closed = 1;
nodes = (
(339,0,ls),
(343,0,o),
(344,2,o),
(344,6,cs),
(344,11,ls),
(344,31,o),
(330,47,o),
(305,47,cs),
(46,47,ls),
(42,47,o),
(41,45,o),
(41,41,cs),
(41,6,ls),
(41,2,o),
(42,0,o),
(46,0,cs)
);
}
);
width = 384;
}
);
note = plusminus;
unicode = 177;
},
{
glyphname = twosuperior;
layers = (
{
layerId = m01;
shapes = (
{
closed = 1;
nodes = (
(104,354,o),
(251,369,o),
(251,471,cs),
(251,524,o),
(204,562,o),
(135,562,cs),
(103,562,o),
(78,553,o),
(58,543,cs),
(43,536,o),
(37,529,o),
(39,518,cs),
(42,496,ls),
(42,493,o),
(44,491,o),
(46,491,cs),
(49,491,o),
(51,493,o),
(54,494,c),
(80,513,o),
(106,522,o),
(133,522,cs),
(186,522,o),
(206,503,o),
(206,469,cs),
(206,377,o),
(34,386,o),
(34,242,cs),
(34,240,o),
(34,239,o),
(37,239,cs),
(245,239,ls),
(249,239,o),
(250,240,o),
(250,243,cs),
(250,263,ls),
(250,274,o),
(244,279,o),
(232,279,cs),
(83,279,l)
);
}
);
width = 284;
}
);
note = twosuperior;
unicode = 178;
},
{
glyphname = threesuperior;
layers = (
{
layerId = m01;
shapes = (
{
closed = 1;
nodes = (
(243,419,o),
(255,448,o),
(255,479,cs),
(255,531,o),
(213,562,o),
(142,562,cs),
(111,562,o),
(80,552,o),
(63,543,cs),
(49,534,o),
(42,529,o),
(44,518,cs),
(47,498,ls),
(47,494,o),
(49,493,o),
(51,493,cs),
(54,493,o),
(56,494,o),
(59,497,c),
(83,513,o),
(108,523,o),
(138,523,cs),
(187,523,o),
(212,507,o),
(212,477,cs),
(212,438,o),
(186,424,o),
(142,424,cs),
(90,424,ls),
(87,424,o),
(86,424,o),
(86,421,cs),
(86,403,ls),
(86,392,o),
(92,386,o),
(103,386,cs),
(134,386,ls),
(189,386,o),
(220,364,o),
(220,325,cs),
(220,290,o),
(194,272,o),
(142,272,cs),
(103,272,o),
(73,287,o),
(52,316,cs),
(49,320,o),
(47,322,o),
(44,322,cs),
(39,322,o),
(36,316,o),
(36,311,cs),
(36,286,o),
(74,233,o),
(149,233,cs),
(224,233,o),
(265,274,o),
(265,327,cs),
(265,373,o),
(240,394,o),
(202,404,c)
);
}
);
width = 301;
}
);
note = threesuperior;
unicode = 179;
},
{
glyphname = acute;
layers = (
{
layerId = m01;
shapes = (
{
closed = 1;
nodes = (
(0,434,o),
(2,431,o),
(6,431,cs),
(43,431,ls),
(53,431,o),
(59,433,o),
(68,440,cs),
(139,496,ls),
(141,498,o),
(141,502,o),
(136,502,cs),
(87,502,ls),
(76,502,o),
(73,499,o),
(66,493,cs),
(3,436,l)
);
}
);
width = 139;
}
);
note = acute;
unicode = 180;
},
{
glyphname = paragraph;
layers = (
{
layerId = m01;
shapes = (
{
closed = 1;
nodes = (
(211,6,ls),
(211,2,o),
(212,0,o),
(216,0,cs),
(246,0,ls),
(250,0,o),
(251,2,o),
(251,6,cs),
(251,514,l),
(323,514,l),
(323,6,ls),
(323,2,o),
(324,0,o),
(328,0,cs),
(358,0,ls),
(362,0,o),
(363,2,o),
(363,6,cs),
(363,491,ls),
(363,536,o),
(343,556,o),
(302,556,cs),
(231,556,ls),
(95,556,o),
(40,488,o),
(40,391,cs),
(40,285,o),
(109,221,o),
(207,221,cs),
(211,221,l)
);
}
);
width = 433;
}
);
note = paragraph;
unicode = 182;
},
{
glyphname = periodcentered;
layers = (
{
layerId = m01;
shapes = (
{
closed = 1;
nodes = (
(46,322,o),
(27,302,o),
(27,279,cs),
(27,256,o),
(46,237,o),
(68,237,cs),
(91,237,o),
(109,256,o),
(109,279,cs),
(109,302,o),
(91,322,o),
(68,322,cs)
);
}
);
width = 137;
}
);
note = periodcentered;
unicode = 183;
},
{
glyphname = cedilla;
layers = (
{
layerId = m01;
shapes = (
{
closed = 1;
nodes = (
(98,2,o),
(97,5,o),
(93,5,cs),
(71,5,ls),
(61,5,o),
(54,4,o),
(48,-5,cs),
(1,-80,ls),
(-1,-83,o),
(0,-86,o),
(4,-86,cs),
(37,-86,ls),
(48,-86,o),
(54,-85,o),
(58,-77,cs),
(97,-1,l)
);
}
);
width = 98;
}
);
note = cedilla;
unicode = 184;
},
{
glyphname = onesuperior;
layers = (
{
layerId = m01;
shapes = (
{
closed = 1;
nodes = (
(93,245,ls),
(93,241,o),
(94,239,o),
(98,239,cs),
(133,239,ls),
(137,239,o),
(138,241,o),
(138,245,cs),
(138,528,ls),
(138,547,o),
(131,556,o),
(116,556,cs),
(98,556,ls),
(90,556,o),
(82,554,o),
(71,551,cs),
(33,538,ls),
(30,537,o),
(28,534,o),
(28,532,cs),
(28,494,ls),
(28,493,o),
(29,492,o),
(31,493,cs),
(93,514,l)
);
}
);
width = 194;
}
);
note = onesuperior;
unicode = 185;
},
{
glyphname = ordmasculine;
layers = (
{
layerId = m01;
shapes = (
{
closed = 1;
nodes = (
(245,257,o),
(300,316,o),
(300,404,cs),
(300,493,o),
(245,553,o),
(159,553,cs),
(77,553,o),
(20,493,o),
(20,404,cs),
(20,314,o),
(77,257,o),
(159,257,cs)
);
},
{
closed = 1;
nodes = (
(100,296,o),
(65,340,o),
(65,404,cs),
(65,469,o),
(100,513,o),
(159,513,cs),
(216,513,o),
(256,469,o),
(256,404,cs),
(256,338,o),
(218,296,o),
(159,296,cs)
);
}
);
width = 320;
}
);
note = ordmasculine;
unicode = 186;
},
{
glyphname = guillemotright;
layers = (
{
layerId = m01;
shapes = (
{
closed = 1;
nodes = (
(30,47,ls),
(27,43,o),
(29,40,o),
(33,40,cs),
(77,40,ls),
(84,40,o),
(88,41,o),
(93,48,cs),
(188,170,ls),
(192,175,o),
(195,179,o),
(195,184,cs),
(195,189,o),
(192,193,o),
(188,198,cs),
(93,320,ls),
(88,327,o),
(84,328,o),
(77,328,cs),
(33,328,ls),
(29,328,o),
(27,325,o),
(30,321,cs),
(134,184,l)
);
},
{
closed = 1;
nodes = (
(168,47,ls),
(165,43,o),
(167,40,o),
(171,40,cs),
(215,40,ls),
(221,40,o),
(226,41,o),
(231,48,cs),
(326,170,ls),
(330,175,o),
(333,179,o),
(333,184,cs),
(333,189,o),
(330,193,o),
(326,198,cs),
(231,320,ls),
(226,327,o),
(221,328,o),
(215,328,cs),
(171,328,ls),
(167,328,o),
(165,325,o),
(168,321,cs),
(273,184,l)
);
}
);
width = 361;
}
);
note = guillemotright;
unicode = 187;
},
{
glyphname = onequarter;
layers = (
{
layerId = m01;
shapes = (
{
closed = 1;
nodes = (
(479,3,ls),
(479,1,o),
(480,0,o),
(482,0,cs),
(519,0,ls),
(521,0,o),
(522,1,o),
(522,3,cs),
(522,79,l),
(561,79,ls),
(565,79,o),
(566,80,o),
(566,83,cs),
(566,100,ls),
(566,111,o),
(560,117,o),
(548,117,cs),
(522,117,l),
(522,296,ls),
(522,313,o),
(512,317,o),
(502,317,cs),
(477,317,ls),
(469,317,o),
(464,314,o),
(460,308,cs),
(323,115,ls),
(317,107,o),
(317,104,o),
(317,97,cs),
(317,82,ls),
(317,80,o),
(317,79,o),
(320,79,cs),
(479,79,l)
);
},
{
closed = 1;
nodes = (
(155,0,ls),
(159,0,o),
(161,2,o),
(163,6,cs),
(436,503,ls),
(454,536,o),
(448,556,o),
(424,556,cs),
(418,556,ls),
(414,556,o),
(413,553,o),
(411,549,cs),
(111,6,ls),
(109,2,o),
(109,0,o),
(113,0,cs)
);
},
{
closed = 1;
nodes = (
(93,245,ls),
(93,241,o),
(94,239,o),
(98,239,cs),
(133,239,ls),
(137,239,o),
(138,241,o),
(138,245,cs),
(138,528,ls),
(138,547,o),
(131,556,o),
(116,556,cs),
(98,556,ls),
(90,556,o),
(82,554,o),
(71,551,cs),
(33,538,ls),
(30,537,o),
(28,534,o),
(28,532,cs),
(28,494,ls),
(28,493,o),
(28,492,o),
(31,493,cs),
(93,514,l)
);
},
{
closed = 1;
nodes = (
(479,275,l),
(479,117,l),
(367,117,l)
);
}
);
width = 601;
}
);
note = onequarter;
unicode = 188;
},
{
glyphname = onehalf;
layers = (
{
layerId = m01;
shapes = (
{
closed = 1;
nodes = (
(155,0,ls),
(159,0,o),
(161,2,o),
(163,6,cs),
(436,503,ls),
(454,536,o),
(448,556,o),
(424,556,cs),
(418,556,ls),
(414,556,o),
(413,553,o),
(411,549,cs),
(111,6,ls),
(109,2,o),
(109,0,o),
(113,0,cs)
);
},
{
closed = 1;
nodes = (
(465,115,o),
(612,131,o),
(612,233,cs),
(612,286,o),
(565,323,o),
(496,323,cs),
(464,323,o),
(439,314,o),
(419,304,cs),
(404,297,o),
(398,291,o),
(400,279,cs),
(403,258,ls),
(403,255,o),
(405,253,o),
(407,253,cs),
(410,253,o),
(412,255,o),
(415,257,cs),
(441,275,o),
(467,283,o),
(494,283,cs),
(547,283,o),
(567,265,o),
(567,231,cs),
(567,138,o),
(395,147,o),
(395,3,cs),
(395,1,o),
(395,0,o),
(398,0,cs),
(606,0,ls),
(610,0,o),
(611,1,o),
(611,4,cs),
(611,24,ls),
(611,35,o),
(605,41,o),
(593,41,cs),
(444,41,l)
);
},
{
closed = 1;
nodes = (
(93,245,ls),
(93,241,o),
(94,239,o),
(98,239,cs),
(133,239,ls),
(137,239,o),
(138,241,o),
(138,245,cs),
(138,528,ls),
(138,547,o),
(131,556,o),
(116,556,cs),
(98,556,ls),
(90,556,o),
(82,554,o),
(71,551,cs),
(33,538,ls),
(30,537,o),
(28,534,o),
(28,532,cs),
(28,494,ls),
(28,493,o),
(28,492,o),
(31,493,cs),
(93,514,l)
);
}
);
width = 672;
}
);
note = onehalf;
unicode = 189;
},
{
glyphname = threequarters;
layers = (
{
layerId = m01;
shapes = (
{
closed = 1;
nodes = (
(563,3,ls),
(563,1,o),
(563,0,o),
(565,0,cs),
(603,0,ls),
(604,0,o),
(605,1,o),
(605,3,cs),
(605,79,l),
(644,79,ls),
(647,79,o),
(648,80,o),
(648,83,cs),
(648,100,ls),
(648,111,o),
(643,117,o),
(632,117,cs),
(605,117,l),
(605,296,ls),
(605,313,o),
(595,317,o),
(585,317,cs),
(560,317,ls),
(553,317,o),
(548,314,o),
(543,308,cs),
(407,115,l),
(400,107,o),
(400,104,o),
(400,97,cs),
(400,82,ls),
(400,80,o),
(400,79,o),
(404,79,cs),
(563,79,l)
);
},
{
closed = 1;
nodes = (
(243,419,o),
(255,448,o),
(255,479,cs),
(255,531,o),
(213,562,o),
(142,562,cs),
(111,562,o),
(80,552,o),
(63,543,cs),
(49,534,o),
(42,529,o),
(44,518,cs),
(47,498,ls),
(47,494,o),
(49,493,o),
(51,493,cs),
(54,493,o),
(56,494,o),
(59,497,c),
(83,513,o),
(108,523,o),
(138,523,cs),
(187,523,o),
(212,507,o),
(212,477,cs),
(212,438,o),
(186,424,o),
(142,424,cs),
(90,424,ls),
(87,424,o),
(86,424,o),
(86,421,cs),
(86,403,ls),
(86,392,o),
(92,386,o),
(103,386,cs),
(134,386,ls),
(189,386,o),
(220,364,o),
(220,325,cs),
(220,290,o),
(194,272,o),
(142,272,cs),
(103,272,o),
(73,287,o),
(52,316,cs),
(49,320,o),
(47,322,o),
(44,322,cs),
(39,322,o),
(36,316,o),
(36,311,cs),
(36,286,o),
(74,233,o),
(149,233,cs),
(224,233,o),
(265,274,o),
(265,327,cs),
(265,373,o),
(240,394,o),
(202,404,c)
);
},
{
closed = 1;
nodes = (
(239,0,ls),
(243,0,o),
(245,2,o),
(247,6,cs),
(518,503,ls),
(537,536,o),
(530,556,o),
(507,556,cs),
(500,556,ls),
(497,556,o),
(495,553,o),
(493,549,cs),
(195,6,ls),
(193,2,o),
(193,0,o),
(197,0,cs)
);
},
{
closed = 1;
nodes = (
(563,275,l),
(563,117,l),
(450,117,l)
);
}
);
width = 683;
}
);
note = threequarters;
unicode = 190;
},
{
glyphname = questiondown;
layers = (
{
layerId = m01;
shapes = (
{
closed = 1;
nodes = (
(211,287,o),
(230,307,o),
(230,329,cs),
(230,353,o),
(211,372,o),
(189,372,cs),
(166,372,o),
(148,353,o),
(148,329,cs),
(148,307,o),
(166,287,o),
(189,287,cs)
);
},
{
closed = 1;
nodes = (
(12,-153,o),
(75,-210,o),
(185,-210,cs),
(245,-210,o),
(294,-192,o),
(341,-159,c),
(345,-157,o),
(346,-154,o),
(345,-151,cs),
(335,-121,ls),
(333,-115,o),
(330,-114,o),
(328,-114,cs),
(325,-114,o),
(320,-115,o),
(315,-119,cs),
(275,-148,o),
(234,-162,o),
(184,-162,cs),
(108,-162,o),
(63,-120,o),
(63,-52,cs),
(63,65,o),
(211,76,o),
(211,176,cs),
(211,205,o),
(199,222,o),
(176,222,cs),
(171,222,ls),
(166,222,o),
(166,220,o),
(166,216,cs),
(166,178,ls),
(166,154,o),
(163,143,o),
(146,129,cs),
(80,75,o),
(12,26,o),
(12,-52,cs)
);
}
);
width = 325;
}
);
note = questiondown;
unicode = 191;
},
{
glyphname = Agrave;
kernLeft = A;
kernRight = A;
layers = (
{
layerId = m01;
shapes = (
{
closed = 1;
nodes = (
(248,493,l),
(352,216,l),
(144,216,l)
);
},
{
closed = 1;
nodes = (
(370,169,l),
(429,12,ls),
(432,3,o),
(434,0,o),
(444,0,cs),
(483,0,ls),
(487,0,o),
(489,2,o),
(487,7,cs),
(288,521,ls),
(278,547,o),
(265,556,o),
(238,556,cs),
(233,556,ls),
(229,556,o),
(227,554,o),
(224,549,c),
(13,7,ls),
(11,2,o),
(13,0,o),
(17,0,cs),
(54,0,ls),
(64,0,o),
(65,3,o),
(69,12,cs),
(126,169,l)
);
},
{
closed = 1;
nodes = (
(243,629,ls),
(252,622,o),
(258,619,o),
(268,619,cs),
(305,619,ls),
(309,619,o),
(310,623,o),
(308,625,cs),
(245,682,ls),
(238,688,o),
(235,691,o),
(224,691,cs),
(174,691,ls),
(170,691,o),
(169,687,o),
(172,685,cs)
);
}
);
width = 498;
}
);
note = Agrave;
unicode = 192;
},
{
glyphname = Aacute;
kernLeft = A;
kernRight = A;
layers = (
{
layerId = m01;
shapes = (
{
closed = 1;
nodes = (
(248,493,l),
(352,216,l),
(144,216,l)
);
},
{
closed = 1;
nodes = (
(370,169,l),
(429,12,ls),
(432,3,o),
(434,0,o),
(444,0,cs),
(483,0,ls),
(487,0,o),
(489,2,o),
(487,7,cs),
(288,521,ls),
(278,547,o),
(265,556,o),
(238,556,cs),
(233,556,ls),
(229,556,o),
(227,554,o),
(224,549,c),
(13,7,ls),
(11,2,o),
(13,0,o),
(17,0,cs),
(54,0,ls),
(64,0,o),
(65,3,o),
(69,12,cs),
(126,169,l)
);
},
{
closed = 1;
nodes = (
(178,623,o),
(180,619,o),
(184,619,cs),
(221,619,ls),
(231,619,o),
(237,622,o),
(246,629,cs),
(318,685,l),
(319,687,o),
(319,691,o),
(314,691,cs),
(265,691,ls),
(254,691,o),
(251,688,o),
(244,682,cs),
(182,625,l)
);
}
);
width = 498;
}
);
note = Aacute;
unicode = 193;
},
{
glyphname = Acircumflex;
kernLeft = A;
kernRight = A;
layers = (
{
layerId = m01;
shapes = (
{
closed = 1;
nodes = (
(248,493,l),
(352,216,l),
(144,216,l)
);
},
{
closed = 1;
nodes = (
(370,169,l),
(429,12,ls),
(432,3,o),
(434,0,o),
(444,0,cs),
(483,0,ls),
(487,0,o),
(489,2,o),
(487,7,cs),
(288,521,ls),
(278,547,o),
(265,556,o),
(238,556,cs),
(233,556,ls),
(229,556,o),
(227,554,o),
(224,549,c),
(13,7,ls),
(11,2,o),
(13,0,o),
(17,0,cs),
(54,0,ls),
(64,0,o),
(65,3,o),
(69,12,cs),
(126,169,l)
);
},
{
closed = 1;
nodes = (
(284,629,ls),
(293,621,o),
(299,619,o),
(309,619,cs),
(342,619,ls),
(345,619,o),
(347,623,o),
(344,625,c),
(282,682,ls),
(275,688,o),
(272,691,o),
(261,691,cs),
(232,691,ls),
(221,691,o),
(218,688,o),
(211,682,cs),
(149,625,l),
(145,623,o),
(148,619,o),
(152,619,cs),
(184,619,ls),
(194,619,o),
(201,621,o),
(209,629,cs),
(247,664,l)
);
}
);
width = 498;
}
);
note = Acircumflex;
unicode = 194;
},
{
glyphname = Atilde;
kernLeft = A;
kernRight = A;
layers = (
{
layerId = m01;
shapes = (
{
closed = 1;
nodes = (
(248,493,l),
(352,216,l),
(144,216,l)
);
},
{
closed = 1;
nodes = (
(370,169,l),
(429,12,ls),
(432,3,o),
(434,0,o),
(444,0,cs),
(483,0,ls),
(487,0,o),
(489,2,o),
(487,7,cs),
(288,521,ls),
(278,547,o),
(265,556,o),
(238,556,cs),
(233,556,ls),
(229,556,o),
(227,554,o),
(224,549,c),
(13,7,ls),
(11,2,o),
(13,0,o),
(17,0,cs),
(54,0,ls),
(64,0,o),
(65,3,o),
(69,12,cs),
(126,169,l)
);
},
{
closed = 1;
nodes = (
(184,619,ls),
(188,619,o),
(190,621,o),
(191,627,cs),
(193,638,o),
(198,644,o),
(208,644,cs),
(229,644,o),
(260,617,o),
(291,617,cs),
(322,617,o),
(346,637,o),
(349,674,cs),
(349,678,o),
(347,680,o),
(343,680,cs),
(316,680,ls),
(312,680,o),
(309,678,o),
(307,672,cs),
(304,663,o),
(299,657,o),
(287,657,cs),
(267,657,o),
(233,684,o),
(202,684,cs),
(172,684,o),
(154,662,o),
(151,625,cs),
(151,621,o),
(153,619,o),
(157,619,cs)
);
}
);
width = 498;
}
);
note = Atilde;
unicode = 195;
},
{
glyphname = Adieresis;
kernLeft = A;
kernRight = A;
layers = (
{
layerId = m01;
shapes = (
{
closed = 1;
nodes = (
(248,493,l),
(352,216,l),
(144,216,l)
);
},
{
closed = 1;
nodes = (
(370,169,l),
(429,12,ls),
(432,3,o),
(434,0,o),
(444,0,cs),
(483,0,ls),
(487,0,o),
(489,2,o),
(487,7,cs),
(288,521,ls),
(278,547,o),
(265,556,o),
(238,556,cs),
(233,556,ls),
(229,556,o),
(227,554,o),
(224,549,c),
(13,7,ls),
(11,2,o),
(13,0,o),
(17,0,cs),
(54,0,ls),
(64,0,o),
(65,3,o),
(69,12,cs),
(126,169,l)
);
},
{
closed = 1;
nodes = (
(157,629,o),
(172,614,o),
(190,614,cs),
(209,614,o),
(224,629,o),
(224,647,cs),
(224,666,o),
(209,681,o),
(190,681,cs),
(172,681,o),
(157,666,o),
(157,647,cs)
);
},
{
closed = 1;
nodes = (
(269,629,o),
(284,614,o),
(302,614,cs),
(321,614,o),
(336,629,o),
(336,647,cs),
(336,666,o),
(321,681,o),
(302,681,cs),
(284,681,o),
(269,666,o),
(269,647,cs)
);
}
);
width = 498;
}
);
note = Adieresis;
unicode = 196;
},
{
glyphname = Aring;
kernLeft = A;
kernRight = A;
layers = (
{
layerId = m01;
shapes = (
{
closed = 1;
nodes = (
(248,493,l),
(352,216,l),
(144,216,l)
);
},
{
closed = 1;
nodes = (
(370,169,l),
(429,12,ls),
(432,3,o),
(434,0,o),
(444,0,cs),
(483,0,ls),
(487,0,o),
(489,2,o),
(487,7,cs),
(288,521,ls),
(278,547,o),
(265,556,o),
(238,556,cs),
(233,556,ls),
(229,556,o),
(227,554,o),
(224,549,c),
(13,7,ls),
(11,2,o),
(13,0,o),
(17,0,cs),
(54,0,ls),
(64,0,o),
(65,3,o),
(69,12,cs),
(126,169,l)
);
},
{
closed = 1;
nodes = (
(185,638,o),
(215,609,o),
(250,609,cs),
(286,609,o),
(316,638,o),
(316,673,cs),
(316,709,o),
(286,737,o),
(250,737,cs),
(215,737,o),
(185,709,o),
(185,673,cs)
);
},
{
closed = 1;
nodes = (
(232,639,o),
(218,654,o),
(218,673,cs),
(218,693,o),
(232,708,o),
(250,708,cs),
(270,708,o),
(283,693,o),
(283,673,cs),
(283,654,o),
(270,639,o),
(250,639,cs)
);
}
);
width = 498;
}
);
note = Aring;
unicode = 197;
},
{
glyphname = AE;
kernRight = E;
layers = (
{
layerId = m01;
shapes = (
{
closed = 1;
nodes = (
(331,169,l),
(331,6,ls),
(331,2,o),
(333,0,o),
(336,0,cs),
(624,0,ls),
(629,0,o),
(631,2,o),
(631,7,cs),
(631,18,ls),
(631,37,o),
(621,47,o),
(601,47,cs),
(383,47,l),
(383,252,l),
(595,252,ls),
(601,252,o),
(604,254,o),
(604,259,cs),
(604,270,ls),
(604,288,o),
(594,298,o),
(574,298,cs),
(383,298,l),
(383,508,l),
(614,508,ls),
(619,508,o),
(621,511,o),
(621,516,cs),
(621,527,ls),
(621,546,o),
(611,556,o),
(591,556,cs),
(311,556,ls),
(306,556,o),
(303,553,o),
(300,548,cs),
(5,7,ls),
(2,2,o),
(4,0,o),
(8,0,cs),
(49,0,ls),
(59,0,o),
(61,3,o),
(66,12,cs),
(148,169,l)
);
},
{
closed = 1;
nodes = (
(331,509,l),
(331,216,l),
(173,216,l)
);
}
);
width = 662;
}
);
note = AE;
unicode = 198;
},
{
glyphname = Ccedilla;
kernLeft = C;
kernRight = C;
layers = (
{
layerId = m01;
shapes = (
{
closed = 1;
nodes = (
(441,-4,o),
(489,78,o),
(489,109,cs),
(489,117,o),
(485,125,o),
(476,125,cs),
(471,125,o),
(469,123,o),
(464,115,cs),
(431,69,o),
(383,36,o),
(306,36,cs),
(181,36,o),
(106,125,o),
(106,276,cs),
(106,428,o),
(184,519,o),
(309,519,cs),
(363,519,o),
(413,501,o),
(454,471,cs),
(460,467,o),
(464,464,o),
(466,464,cs),
(470,464,o),
(473,468,o),
(474,473,cs),
(478,489,ls),
(483,509,o),
(468,523,o),
(444,534,cs),
(406,553,o),
(366,567,o),
(310,567,cs),
(161,567,o),
(57,457,o),
(57,278,cs),
(57,107,o),
(141,3,o),
(274,-10,c),
(271,-11,o),
(270,-12,o),
(269,-15,c),
(220,-90,ls),
(219,-92,o),
(220,-95,o),
(224,-95,cs),
(258,-95,ls),
(269,-95,o),
(275,-94,o),
(279,-87,cs),
(316,-11,l)
);
}
);
width = 513;
}
);
note = Ccedilla;
unicode = 199;
},
{
glyphname = Egrave;
kernRight = E;
layers = (
{
layerId = m01;
shapes = (
{
closed = 1;
nodes = (
(124,251,l),
(336,251,ls),
(342,251,o),
(344,252,o),
(344,257,cs),
(344,269,ls),
(344,288,o),
(334,298,o),
(314,298,cs),
(124,298,l),
(124,509,l),
(354,509,ls),
(360,509,o),
(362,511,o),
(362,516,cs),
(362,527,ls),
(362,546,o),
(352,556,o),
(332,556,cs),
(78,556,ls),
(74,556,o),
(73,553,o),
(73,549,cs),
(73,6,ls),
(73,2,o),
(74,0,o),
(78,0,cs),
(364,0,ls),
(370,0,o),
(372,2,o),
(372,7,cs),
(372,18,ls),
(372,37,o),
(362,47,o),
(342,47,cs),
(124,47,l)
);
},
{
closed = 1;
nodes = (
(205,629,ls),
(214,622,o),
(220,619,o),
(230,619,cs),
(267,619,ls),
(271,619,o),
(272,623,o),
(270,625,cs),
(207,682,ls),
(200,688,o),
(197,691,o),
(186,691,cs),
(136,691,ls),
(132,691,o),
(131,687,o),
(134,685,cs)
);
}
);
width = 404;
}
);
note = Egrave;
unicode = 200;
},
{
glyphname = Eacute;
kernRight = E;
layers = (
{
layerId = m01;
shapes = (
{
closed = 1;
nodes = (
(124,251,l),
(336,251,ls),
(342,251,o),
(344,252,o),
(344,257,cs),
(344,269,ls),
(344,288,o),
(334,298,o),
(314,298,cs),
(124,298,l),
(124,509,l),
(354,509,ls),
(360,509,o),
(362,511,o),
(362,516,cs),
(362,527,ls),
(362,546,o),
(352,556,o),
(332,556,cs),
(78,556,ls),
(74,556,o),
(73,553,o),
(73,549,cs),
(73,6,ls),
(73,2,o),
(74,0,o),
(78,0,cs),
(364,0,ls),
(370,0,o),
(372,2,o),
(372,7,cs),
(372,18,ls),
(372,37,o),
(362,47,o),
(342,47,cs),
(124,47,l)
);
},
{
closed = 1;
nodes = (
(160,623,o),
(162,619,o),
(166,619,cs),
(203,619,ls),
(213,619,o),
(219,622,o),
(228,629,cs),
(300,685,l),
(301,687,o),
(301,691,o),
(296,691,cs),
(247,691,ls),
(236,691,o),
(233,688,o),
(226,682,cs),
(164,625,l)
);
}
);
width = 404;
}
);
note = Eacute;
unicode = 201;
},
{
glyphname = Ecircumflex;
kernRight = E;
layers = (
{
layerId = m01;
shapes = (
{
closed = 1;
nodes = (
(124,251,l),
(336,251,ls),
(342,251,o),
(344,252,o),
(344,257,cs),
(344,269,ls),
(344,288,o),
(334,298,o),
(314,298,cs),
(124,298,l),
(124,509,l),
(354,509,ls),
(360,509,o),
(362,511,o),
(362,516,cs),
(362,527,ls),
(362,546,o),
(352,556,o),
(332,556,cs),
(78,556,ls),
(74,556,o),
(73,553,o),
(73,549,cs),
(73,6,ls),
(73,2,o),
(74,0,o),
(78,0,cs),
(364,0,ls),
(370,0,o),
(372,2,o),
(372,7,cs),
(372,18,ls),
(372,37,o),
(362,47,o),
(342,47,cs),
(124,47,l)
);
},
{
closed = 1;
nodes = (
(255,629,ls),
(264,621,o),
(270,619,o),
(280,619,cs),
(312,619,ls),
(316,619,o),
(318,623,o),
(315,625,c),
(252,682,ls),
(246,688,o),
(243,691,o),
(232,691,cs),
(203,691,ls),
(192,691,o),
(189,688,o),
(182,682,cs),
(120,625,l),
(116,623,o),
(119,619,o),
(122,619,cs),
(155,619,ls),
(165,619,o),
(172,621,o),
(180,629,cs),
(218,664,l)
);
}
);
width = 404;
}
);
note = Ecircumflex;
unicode = 202;
},
{
glyphname = Edieresis;
kernRight = E;
layers = (
{
layerId = m01;
shapes = (
{
closed = 1;
nodes = (
(124,251,l),
(336,251,ls),
(342,251,o),
(344,252,o),
(344,257,cs),
(344,269,ls),
(344,288,o),
(334,298,o),
(314,298,cs),
(124,298,l),
(124,509,l),
(354,509,ls),
(360,509,o),
(362,511,o),
(362,516,cs),
(362,527,ls),
(362,546,o),
(352,556,o),
(332,556,cs),
(78,556,ls),
(74,556,o),
(73,553,o),
(73,549,cs),
(73,6,ls),
(73,2,o),
(74,0,o),
(78,0,cs),
(364,0,ls),
(370,0,o),
(372,2,o),
(372,7,cs),
(372,18,ls),
(372,37,o),
(362,47,o),
(342,47,cs),
(124,47,l)
);
},
{
closed = 1;
nodes = (
(127,629,o),
(142,614,o),
(160,614,cs),
(179,614,o),
(194,629,o),
(194,647,cs),
(194,666,o),
(179,681,o),
(160,681,cs),
(142,681,o),
(127,666,o),
(127,647,cs)
);
},
{
closed = 1;
nodes = (
(239,629,o),
(254,614,o),
(272,614,cs),
(291,614,o),
(306,629,o),
(306,647,cs),
(306,666,o),
(291,681,o),
(272,681,cs),
(254,681,o),
(239,666,o),
(239,647,cs)
);
}
);
width = 404;
}
);
note = Edieresis;
unicode = 203;
},
{
glyphname = Igrave;
kernRight = I;
layers = (
{
layerId = m01;
shapes = (
{
closed = 1;
nodes = (
(129,0,ls),
(133,0,o),
(134,2,o),
(134,6,cs),
(134,504,ls),
(134,536,o),
(117,556,o),
(93,556,cs),
(89,556,ls),
(84,556,o),
(84,553,o),
(84,549,cs),
(84,6,ls),
(84,2,o),
(84,0,o),
(89,0,cs)
);
},
{
closed = 1;
nodes = (
(102,629,ls),
(111,622,o),
(117,619,o),
(126,619,cs),
(164,619,ls),
(167,619,o),
(169,623,o),
(166,625,c),
(104,682,ls),
(97,688,o),
(94,691,o),
(83,691,cs),
(33,691,ls),
(29,691,o),
(28,687,o),
(30,685,cs)
);
}
);
width = 196;
}
);
note = Igrave;
unicode = 204;
},
{
glyphname = Iacute;
kernRight = I;
layers = (
{
layerId = m01;
shapes = (
{
closed = 1;
nodes = (
(130,0,ls),
(134,0,o),
(135,2,o),
(135,6,cs),
(135,504,ls),
(135,536,o),
(118,556,o),
(94,556,cs),
(90,556,ls),
(85,556,o),
(85,553,o),
(85,549,cs),
(85,6,ls),
(85,2,o),
(85,0,o),
(90,0,cs)
);
},
{
closed = 1;
nodes = (
(28,623,o),
(30,619,o),
(34,619,cs),
(71,619,ls),
(81,619,o),
(87,622,o),
(96,629,cs),
(167,685,ls),
(169,687,o),
(169,691,o),
(164,691,cs),
(115,691,ls),
(104,691,o),
(101,688,o),
(94,682,cs),
(31,625,l)
);
}
);
width = 196;
}
);
note = Iacute;
unicode = 205;
},
{
glyphname = Icircumflex;
kernRight = I;
layers = (
{
layerId = m01;
shapes = (
{
closed = 1;
nodes = (
(119,0,ls),
(123,0,o),
(124,2,o),
(124,6,cs),
(124,504,ls),
(124,536,o),
(107,556,o),
(83,556,cs),
(79,556,ls),
(74,556,o),
(74,553,o),
(74,549,cs),
(74,6,ls),
(74,2,o),
(74,0,o),
(79,0,cs)
);
},
{
closed = 1;
nodes = (
(135,629,ls),
(144,621,o),
(150,619,o),
(160,619,cs),
(193,619,ls),
(197,619,o),
(199,623,o),
(196,625,c),
(133,682,ls),
(126,688,o),
(124,691,o),
(113,691,cs),
(84,691,ls),
(73,691,o),
(70,688,o),
(63,682,cs),
(0,625,l),
(-3,623,o),
(-1,619,o),
(3,619,cs),
(36,619,ls),
(46,619,o),
(53,621,o),
(61,629,cs),
(99,664,l)
);
}
);
width = 196;
}
);
note = Icircumflex;
unicode = 206;
},
{
glyphname = Idieresis;
kernRight = I;
layers = (
{
layerId = m01;
shapes = (
{
closed = 1;
nodes = (
(118,0,ls),
(122,0,o),
(123,2,o),
(123,6,cs),
(123,504,ls),
(123,536,o),
(106,556,o),
(82,556,cs),
(78,556,ls),
(73,556,o),
(73,553,o),
(73,549,cs),
(73,6,ls),
(73,2,o),
(73,0,o),
(78,0,cs)
);
},
{
closed = 1;
nodes = (
(9,629,o),
(24,614,o),
(42,614,cs),
(61,614,o),
(76,629,o),
(76,647,cs),
(76,666,o),
(61,681,o),
(42,681,cs),
(24,681,o),
(9,666,o),
(9,647,cs)
);
},
{
closed = 1;
nodes = (
(121,629,o),
(136,614,o),
(154,614,cs),
(173,614,o),
(188,629,o),
(188,647,cs),
(188,666,o),
(173,681,o),
(154,681,cs),
(136,681,o),
(121,666,o),
(121,647,cs)
);
}
);
width = 196;
}
);
note = Idieresis;
unicode = 207;
},
{
glyphname = Eth;
layers = (
{
layerId = m01;
shapes = (
{
closed = 1;
nodes = (
(76,6,ls),
(76,2,o),
(77,0,o),
(81,0,cs),
(223,0,ls),
(388,0,o),
(498,87,o),
(498,286,cs),
(498,459,o),
(406,556,o),
(230,556,cs),
(81,556,ls),
(77,556,o),
(76,553,o),
(76,549,cs),
(76,304,l),
(19,304,ls),
(15,304,o),
(14,302,o),
(14,298,cs),
(14,264,ls),
(14,260,o),
(15,258,o),
(19,258,cs),
(76,258,l)
);
},
{
closed = 1;
nodes = (
(126,258,l),
(314,258,ls),
(320,258,o),
(322,260,o),
(322,265,cs),
(322,276,ls),
(322,294,o),
(312,304,o),
(292,304,cs),
(126,304,l),
(126,508,l),
(224,508,ls),
(372,508,o),
(448,449,o),
(448,284,cs),
(448,124,o),
(374,47,o),
(229,47,cs),
(126,47,l)
);
}
);
width = 556;
}
);
note = Eth;
unicode = 208;
},
{
glyphname = Ntilde;
kernRight = N;
layers = (
{
layerId = m01;
shapes = (
{
closed = 1;
nodes = (
(139,515,ls),
(124,542,o),
(116,556,o),
(82,556,cs),
(78,556,ls),
(74,556,o),
(73,553,o),
(73,549,cs),
(73,6,ls),
(73,2,o),
(74,0,o),
(78,0,cs),
(119,0,ls),
(122,0,o),
(124,2,o),
(124,6,cs),
(124,445,l),
(389,13,ls),
(395,3,o),
(401,0,o),
(411,0,cs),
(445,0,ls),
(449,0,o),
(450,2,o),
(450,6,cs),
(450,504,ls),
(450,536,o),
(434,556,o),
(410,556,cs),
(405,556,ls),
(401,556,o),
(400,553,o),
(400,549,cs),
(400,89,l)
);
},
{
closed = 1;
nodes = (
(190,619,ls),
(194,619,o),
(196,621,o),
(197,627,cs),
(199,638,o),
(204,644,o),
(214,644,cs),
(235,644,o),
(266,617,o),
(297,617,cs),
(328,617,o),
(352,637,o),
(355,674,cs),
(355,678,o),
(352,680,o),
(349,680,cs),
(322,680,ls),
(318,680,o),
(315,678,o),
(313,672,cs),
(310,663,o),
(305,657,o),
(293,657,cs),
(272,657,o),
(239,684,o),
(207,684,cs),
(178,684,o),
(160,662,o),
(157,625,cs),
(157,621,o),
(159,619,o),
(163,619,cs)
);
}
);
width = 522;
}
);
note = Ntilde;
unicode = 209;
},
{
glyphname = Ograve;
kernLeft = O;
kernRight = O;
layers = (
{
layerId = m01;
shapes = (
{
closed = 1;
nodes = (
(207,37,o),
(108,87,o),
(108,277,cs),
(108,467,o),
(207,520,o),
(299,520,cs),
(390,520,o),
(489,467,o),
(489,277,cs),
(489,87,o),
(391,38,o),
(299,37,cs)
);
},
{
closed = 1;
nodes = (
(453,-10,o),
(540,101,o),
(540,277,cs),
(540,453,o),
(450,567,o),
(299,567,cs),
(148,567,o),
(57,453,o),
(57,277,cs),
(57,101,o),
(145,-10,o),
(299,-10,cs)
);
},
{
closed = 1;
nodes = (
(301,629,ls),
(310,622,o),
(316,619,o),
(326,619,cs),
(363,619,ls),
(367,619,o),
(369,623,o),
(366,625,c),
(303,682,ls),
(296,688,o),
(293,691,o),
(283,691,cs),
(233,691,ls),
(229,691,o),
(228,687,o),
(230,685,cs)
);
}
);
width = 597;
}
);
note = Ograve;
unicode = 210;
},
{
glyphname = Oacute;
kernLeft = O;
kernRight = O;
layers = (
{
layerId = m01;
shapes = (
{
closed = 1;
nodes = (
(207,37,o),
(108,87,o),
(108,277,cs),
(108,467,o),
(207,520,o),
(299,520,cs),
(390,520,o),
(489,467,o),
(489,277,cs),
(489,87,o),
(391,38,o),
(299,37,cs)
);
},
{
closed = 1;
nodes = (
(453,-10,o),
(540,101,o),
(540,277,cs),
(540,453,o),
(450,567,o),
(299,567,cs),
(148,567,o),
(57,453,o),
(57,277,cs),
(57,101,o),
(145,-10,o),
(299,-10,cs)
);
},
{
closed = 1;
nodes = (
(228,623,o),
(230,619,o),
(234,619,cs),
(270,619,ls),
(280,619,o),
(286,622,o),
(295,629,cs),
(367,685,ls),
(369,687,o),
(368,691,o),
(364,691,cs),
(314,691,ls),
(303,691,o),
(300,688,o),
(293,682,cs),
(231,625,l)
);
}
);
width = 597;
}
);
note = Oacute;
unicode = 211;
},
{
glyphname = Ocircumflex;
kernLeft = O;
kernRight = O;
layers = (
{
layerId = m01;
shapes = (
{
closed = 1;
nodes = (
(207,37,o),
(108,87,o),
(108,277,cs),
(108,467,o),
(207,520,o),
(299,520,cs),
(390,520,o),
(489,467,o),
(489,277,cs),
(489,87,o),
(391,38,o),
(299,37,cs)
);
},
{
closed = 1;
nodes = (
(453,-10,o),
(540,101,o),
(540,277,cs),
(540,453,o),
(450,567,o),
(299,567,cs),
(148,567,o),
(57,453,o),
(57,277,cs),
(57,101,o),
(145,-10,o),
(299,-10,cs)
);
},
{
closed = 1;
nodes = (
(336,629,ls),
(345,621,o),
(351,619,o),
(361,619,cs),
(394,619,ls),
(398,619,o),
(399,623,o),
(396,625,c),
(334,682,ls),
(327,688,o),
(324,691,o),
(313,691,cs),
(284,691,ls),
(273,691,o),
(270,688,o),
(263,682,cs),
(201,625,l),
(198,623,o),
(200,619,o),
(204,619,cs),
(236,619,ls),
(246,619,o),
(253,621,o),
(261,629,cs),
(299,664,l)
);
}
);
width = 597;
}
);
note = Ocircumflex;
unicode = 212;
},
{
glyphname = Otilde;
kernLeft = O;
kernRight = O;
layers = (
{
layerId = m01;
shapes = (
{
closed = 1;
nodes = (
(207,37,o),
(108,87,o),
(108,277,cs),
(108,467,o),
(207,520,o),
(299,520,cs),
(390,520,o),
(489,467,o),
(489,277,cs),
(489,87,o),
(391,38,o),
(299,37,cs)
);
},
{
closed = 1;
nodes = (
(453,-10,o),
(540,101,o),
(540,277,cs),
(540,453,o),
(450,567,o),
(299,567,cs),
(148,567,o),
(57,453,o),
(57,277,cs),
(57,101,o),
(145,-10,o),
(299,-10,cs)
);
},
{
closed = 1;
nodes = (
(233,619,ls),
(237,619,o),
(239,621,o),
(240,627,cs),
(242,638,o),
(247,644,o),
(257,644,cs),
(278,644,o),
(310,617,o),
(340,617,cs),
(371,617,o),
(395,637,o),
(398,674,cs),
(398,678,o),
(396,680,o),
(392,680,cs),
(365,680,ls),
(361,680,o),
(358,678,o),
(356,672,cs),
(353,663,o),
(349,657,o),
(336,657,cs),
(316,657,o),
(283,684,o),
(251,684,cs),
(221,684,o),
(203,662,o),
(200,625,cs),
(200,621,o),
(203,619,o),
(206,619,cs)
);
}
);
width = 597;
}
);
note = Otilde;
unicode = 213;
},
{
glyphname = Odieresis;
kernLeft = O;
kernRight = O;
layers = (
{
layerId = m01;
shapes = (
{
closed = 1;
nodes = (
(207,37,o),
(108,87,o),
(108,277,cs),
(108,467,o),
(207,520,o),
(299,520,cs),
(390,520,o),
(489,467,o),
(489,277,cs),
(489,87,o),
(391,38,o),
(299,37,cs)
);
},
{
closed = 1;
nodes = (
(453,-10,o),
(540,101,o),
(540,277,cs),
(540,453,o),
(450,567,o),
(299,567,cs),
(148,567,o),
(57,453,o),
(57,277,cs),
(57,101,o),
(145,-10,o),
(299,-10,cs)
);
},
{
closed = 1;
nodes = (
(209,629,o),
(224,614,o),
(242,614,cs),
(261,614,o),
(276,629,o),
(276,647,cs),
(276,666,o),
(261,681,o),
(242,681,cs),
(224,681,o),
(209,666,o),
(209,647,cs)
);
},
{
closed = 1;
nodes = (
(321,629,o),
(336,614,o),
(354,614,cs),
(373,614,o),
(388,629,o),
(388,647,cs),
(388,666,o),
(373,681,o),
(354,681,cs),
(336,681,o),
(321,666,o),
(321,647,cs)
);
}
);
width = 597;
}
);
note = Odieresis;
unicode = 214;
},
{
glyphname = multiply;
layers = (
{
layerId = m01;
shapes = (
{
closed = 1;
nodes = (
(54,164,ls),
(51,161,o),
(51,159,o),
(54,156,cs),
(76,134,ls),
(79,131,o),
(81,131,o),
(84,134,cs),
(194,245,l),
(279,158,ls),
(302,135,o),
(319,133,o),
(338,152,cs),
(341,155,o),
(340,157,o),
(337,160,cs),
(224,275,l),
(333,384,ls),
(336,387,o),
(336,389,o),
(333,392,cs),
(311,414,ls),
(308,417,o),
(306,417,o),
(303,414,cs),
(194,304,l),
(107,389,ls),
(85,413,o),
(68,414,o),
(49,396,cs),
(46,393,o),
(47,391,o),
(50,388,cs),
(164,275,l)
);
}
);
width = 384;
}
);
note = multiply;
unicode = 215;
},
{
glyphname = Oslash;
kernLeft = O;
kernRight = O;
layers = (
{
layerId = m01;
shapes = (
{
closed = 1;
nodes = (
(126,134,o),
(106,192,o),
(106,277,cs),
(106,467,o),
(206,519,o),
(298,519,cs),
(335,519,o),
(374,511,o),
(406,488,c),
(156,97,l)
);
},
{
closed = 1;
nodes = (
(469,419,o),
(488,362,o),
(488,277,cs),
(488,87,o),
(390,37,o),
(298,37,cs),
(261,37,o),
(224,45,o),
(191,67,c),
(439,458,l)
);
},
{
closed = 1;
nodes = (
(453,-10,o),
(539,100,o),
(539,277,cs),
(539,454,o),
(450,567,o),
(298,567,cs),
(146,567,o),
(57,454,o),
(57,277,cs),
(57,100,o),
(145,-10,o),
(298,-10,cs)
);
}
);
width = 597;
}
);
note = Oslash;
unicode = 216;
},
{
glyphname = Ugrave;
kernLeft = U;
kernRight = U;
layers = (
{
layerId = m01;
shapes = (
{
closed = 1;
nodes = (
(406,-10,o),
(447,106,o),
(447,198,cs),
(447,504,ls),
(447,536,o),
(430,556,o),
(406,556,cs),
(402,556,ls),
(398,556,o),
(397,553,o),
(397,549,cs),
(397,202,ls),
(397,111,o),
(361,37,o),
(255,37,cs),
(151,37,o),
(119,107,o),
(119,201,cs),
(119,504,ls),
(119,536,o),
(102,556,o),
(78,556,cs),
(73,556,ls),
(69,556,o),
(68,553,o),
(68,549,cs),
(68,194,ls),
(68,81,o),
(118,-10,o),
(256,-10,cs)
);
},
{
closed = 1;
nodes = (
(241,629,ls),
(250,622,o),
(256,619,o),
(265,619,cs),
(302,619,ls),
(306,619,o),
(308,623,o),
(305,625,c),
(242,682,ls),
(236,688,o),
(232,691,o),
(222,691,cs),
(172,691,ls),
(168,691,o),
(167,687,o),
(169,685,cs)
);
}
);
width = 516;
}
);
note = Ugrave;
unicode = 217;
},
{
glyphname = Uacute;
kernLeft = U;
kernRight = U;
layers = (
{
layerId = m01;
shapes = (
{
closed = 1;
nodes = (
(406,-10,o),
(447,106,o),
(447,198,cs),
(447,504,ls),
(447,536,o),
(430,556,o),
(406,556,cs),
(402,556,ls),
(398,556,o),
(397,553,o),
(397,549,cs),
(397,202,ls),
(397,111,o),
(361,37,o),
(255,37,cs),
(151,37,o),
(119,107,o),
(119,201,cs),
(119,504,ls),
(119,536,o),
(102,556,o),
(78,556,cs),
(73,556,ls),
(69,556,o),
(68,553,o),
(68,549,cs),
(68,194,ls),
(68,81,o),
(118,-10,o),
(256,-10,cs)
);
},
{
closed = 1;
nodes = (
(186,623,o),
(188,619,o),
(192,619,cs),
(229,619,ls),
(239,619,o),
(245,622,o),
(254,629,cs),
(325,685,ls),
(327,687,o),
(326,691,o),
(322,691,cs),
(272,691,ls),
(261,691,o),
(259,688,o),
(251,682,c),
(189,625,l)
);
}
);
width = 516;
}
);
note = Uacute;
unicode = 218;
},
{
glyphname = Ucircumflex;
kernLeft = U;
kernRight = U;
layers = (
{
layerId = m01;
shapes = (
{
closed = 1;
nodes = (
(406,-10,o),
(447,106,o),
(447,198,cs),
(447,504,ls),
(447,536,o),
(430,556,o),
(406,556,cs),
(402,556,ls),
(398,556,o),
(397,553,o),
(397,549,cs),
(397,202,ls),
(397,111,o),
(361,37,o),
(255,37,cs),
(151,37,o),
(119,107,o),
(119,201,cs),
(119,504,ls),
(119,536,o),
(102,556,o),
(78,556,cs),
(73,556,ls),
(69,556,o),
(68,553,o),
(68,549,cs),
(68,194,ls),
(68,81,o),
(118,-10,o),
(256,-10,cs)
);
},
{
closed = 1;
nodes = (
(294,629,ls),
(303,621,o),
(309,619,o),
(319,619,cs),
(352,619,ls),
(356,619,o),
(357,623,o),
(355,625,cs),
(292,682,ls),
(285,688,o),
(282,691,o),
(271,691,cs),
(242,691,ls),
(231,691,o),
(229,688,o),
(221,682,c),
(159,625,l),
(156,623,o),
(158,619,o),
(162,619,cs),
(195,619,ls),
(205,619,o),
(211,621,o),
(220,629,cs),
(257,664,l)
);
}
);
width = 516;
}
);
note = Ucircumflex;
unicode = 219;
},
{
glyphname = Udieresis;
kernLeft = U;
kernRight = U;
layers = (
{
layerId = m01;
shapes = (
{
closed = 1;
nodes = (
(406,-10,o),
(447,106,o),
(447,198,cs),
(447,504,ls),
(447,536,o),
(430,556,o),
(406,556,cs),
(402,556,ls),
(398,556,o),
(397,553,o),
(397,549,cs),
(397,202,ls),
(397,111,o),
(361,37,o),
(255,37,cs),
(151,37,o),
(119,107,o),
(119,201,cs),
(119,504,ls),
(119,536,o),
(102,556,o),
(78,556,cs),
(73,556,ls),
(69,556,o),
(68,553,o),
(68,549,cs),
(68,194,ls),
(68,81,o),
(118,-10,o),
(256,-10,cs)
);
},
{
closed = 1;
nodes = (
(165,629,o),
(180,614,o),
(197,614,cs),
(216,614,o),
(231,629,o),
(231,647,cs),
(231,666,o),
(216,681,o),
(197,681,cs),
(180,681,o),
(165,666,o),
(165,647,cs)
);
},
{
closed = 1;
nodes = (
(277,629,o),
(292,614,o),
(310,614,cs),
(329,614,o),
(344,629,o),
(344,647,cs),
(344,666,o),
(329,681,o),
(310,681,cs),
(292,681,o),
(277,666,o),
(277,647,cs)
);
}
);
width = 516;
}
);
note = Udieresis;
unicode = 220;
},
{
glyphname = Yacute;
kernLeft = Y;
kernRight = Y;
layers = (
{
layerId = m01;
shapes = (
{
closed = 1;
nodes = (
(187,6,ls),
(187,2,o),
(188,0,o),
(192,0,cs),
(232,0,ls),
(236,0,o),
(237,2,o),
(237,6,cs),
(237,219,l),
(417,547,ls),
(420,553,o),
(418,556,o),
(411,556,cs),
(378,556,ls),
(368,556,o),
(365,552,o),
(361,543,cs),
(214,274,l),
(83,513,ls),
(66,543,o),
(53,556,o),
(26,556,cs),
(10,556,ls),
(5,556,o),
(4,552,o),
(6,548,cs),
(187,219,l)
);
},
{
closed = 1;
nodes = (
(151,623,o),
(153,619,o),
(157,619,cs),
(193,619,ls),
(203,619,o),
(210,622,o),
(218,629,cs),
(290,685,ls),
(292,687,o),
(291,691,o),
(287,691,cs),
(237,691,ls),
(226,691,o),
(223,688,o),
(216,682,cs),
(154,625,l)
);
}
);
width = 422;
}
);
note = Yacute;
unicode = 221;
},
{
glyphname = Thorn;
layers = (
{
layerId = m01;
shapes = (
{
closed = 1;
nodes = (
(123,404,l),
(271,404,ls),
(345,404,o),
(397,357,o),
(397,282,cs),
(397,183,o),
(328,156,o),
(267,156,cs),
(123,156,l)
);
},
{
closed = 1;
nodes = (
(269,109,ls),
(381,109,o),
(449,175,o),
(449,281,cs),
(449,387,o),
(376,451,o),
(267,451,cs),
(123,451,l),
(123,503,ls),
(123,536,o),
(106,556,o),
(83,556,cs),
(78,556,ls),
(74,556,o),
(73,553,o),
(73,549,cs),
(73,6,ls),
(73,2,o),
(74,0,o),
(78,0,cs),
(118,0,ls),
(122,0,o),
(123,2,o),
(123,6,cs),
(123,109,l)
);
}
);
width = 484;
}
);
note = Thorn;
unicode = 222;
},
{
glyphname = germandbls;
layers = (
{
layerId = m01;
shapes = (
{
closed = 1;
nodes = (
(182,86,o),
(178,90,o),
(174,90,cs),
(168,90,o),
(164,85,o),
(164,75,cs),
(164,42,o),
(205,-10,o),
(286,-10,cs),
(358,-10,o),
(406,35,o),
(406,102,cs),
(406,205,o),
(257,226,o),
(257,294,cs),
(257,337,o),
(345,382,o),
(345,459,cs),
(345,521,o),
(291,567,o),
(209,567,cs),
(127,567,o),
(60,513,o),
(60,412,cs),
(60,6,ls),
(60,2,o),
(61,0,o),
(65,0,cs),
(105,0,ls),
(109,0,o),
(110,2,o),
(110,6,cs),
(110,409,ls),
(110,482,o),
(150,519,o),
(206,519,cs),
(264,519,o),
(296,488,o),
(296,449,cs),
(296,393,o),
(209,354,o),
(209,289,cs),
(209,194,o),
(354,180,o),
(354,97,cs),
(354,61,o),
(327,37,o),
(278,37,cs),
(228,37,o),
(203,61,o),
(184,84,cs)
);
}
);
width = 439;
}
);
note = germandbls;
unicode = 223;
},
{
glyphname = agrave;
kernLeft = a;
kernRight = a;
layers = (
{
layerId = m01;
shapes = (
{
closed = 1;
nodes = (
(344,6,ls),
(344,2,o),
(345,0,o),
(349,0,cs),
(390,0,ls),
(394,0,o),
(395,2,o),
(395,6,cs),
(395,354,ls),
(395,358,o),
(394,360,o),
(390,360,cs),
(385,360,ls),
(361,360,o),
(345,343,o),
(345,305,c),
(319,344,o),
(272,367,o),
(219,367,cs),
(117,367,o),
(44,288,o),
(44,178,cs),
(44,76,o),
(108,-9,o),
(216,-9,cs),
(267,-9,o),
(314,10,o),
(344,57,c)
);
},
{
closed = 1;
nodes = (
(154,38,o),
(95,84,o),
(95,178,cs),
(95,261,o),
(142,320,o),
(219,320,cs),
(276,320,o),
(344,287,o),
(344,178,cs),
(344,72,o),
(280,38,o),
(214,38,cs)
);
},
{
closed = 1;
nodes = (
(210,440,ls),
(219,433,o),
(225,431,o),
(235,431,cs),
(272,431,ls),
(276,431,o),
(277,434,o),
(275,436,cs),
(212,493,ls),
(205,499,o),
(202,502,o),
(191,502,cs),
(141,502,ls),
(137,502,o),
(136,498,o),
(138,496,cs)
);
}
);
width = 454;
}
);
note = agrave;
unicode = 224;
},
{
glyphname = aacute;
kernLeft = a;
kernRight = a;
layers = (
{
layerId = m01;
shapes = (
{
closed = 1;
nodes = (
(344,6,ls),
(344,2,o),
(345,0,o),
(349,0,cs),
(390,0,ls),
(394,0,o),
(395,2,o),
(395,6,cs),
(395,354,ls),
(395,358,o),
(394,360,o),
(390,360,cs),
(385,360,ls),
(361,360,o),
(345,343,o),
(345,305,c),
(319,344,o),
(272,367,o),
(219,367,cs),
(117,367,o),
(44,288,o),
(44,178,cs),
(44,76,o),
(108,-9,o),
(216,-9,cs),
(267,-9,o),
(314,10,o),
(344,57,c)
);
},
{
closed = 1;
nodes = (
(154,38,o),
(95,84,o),
(95,178,cs),
(95,261,o),
(142,320,o),
(219,320,cs),
(276,320,o),
(344,287,o),
(344,178,cs),
(344,72,o),
(280,38,o),
(214,38,cs)
);
},
{
closed = 1;
nodes = (
(146,434,o),
(148,431,o),
(152,431,cs),
(189,431,ls),
(199,431,o),
(205,433,o),
(214,440,cs),
(286,496,l),
(287,498,o),
(287,502,o),
(282,502,cs),
(233,502,ls),
(222,502,o),
(219,499,o),
(212,493,cs),
(150,436,l)
);
}
);
width = 454;
}
);
note = aacute;
unicode = 225;
},
{
glyphname = acircumflex;
kernLeft = a;
kernRight = a;
layers = (
{
layerId = m01;
shapes = (
{
closed = 1;
nodes = (
(344,6,ls),
(344,2,o),
(345,0,o),
(349,0,cs),
(390,0,ls),
(394,0,o),
(395,2,o),
(395,6,cs),
(395,354,ls),
(395,358,o),
(394,360,o),
(390,360,cs),
(385,360,ls),
(361,360,o),
(345,343,o),
(345,305,c),
(319,344,o),
(272,367,o),
(219,367,cs),
(117,367,o),
(44,288,o),
(44,178,cs),
(44,76,o),
(108,-9,o),
(216,-9,cs),
(267,-9,o),
(314,10,o),
(344,57,c)
);
},
{
closed = 1;
nodes = (
(154,38,o),
(95,84,o),
(95,178,cs),
(95,261,o),
(142,320,o),
(219,320,cs),
(276,320,o),
(344,287,o),
(344,178,cs),
(344,72,o),
(280,38,o),
(214,38,cs)
);
},
{
closed = 1;
nodes = (
(261,440,ls),
(270,432,o),
(276,431,o),
(286,431,cs),
(318,431,ls),
(322,431,o),
(324,434,o),
(321,436,c),
(258,493,ls),
(252,499,o),
(249,502,o),
(238,502,cs),
(209,502,ls),
(198,502,o),
(195,499,o),
(188,493,cs),
(126,436,l),
(122,434,o),
(125,431,o),
(128,431,cs),
(161,431,ls),
(171,431,o),
(178,432,o),
(186,440,cs),
(224,475,l)
);
}
);
width = 454;
}
);
note = acircumflex;
unicode = 226;
},
{
glyphname = atilde;
kernLeft = a;
kernRight = a;
layers = (
{
layerId = m01;
shapes = (
{
closed = 1;
nodes = (
(344,6,ls),
(344,2,o),
(345,0,o),
(349,0,cs),
(390,0,ls),
(394,0,o),
(395,2,o),
(395,6,cs),
(395,354,ls),
(395,358,o),
(394,360,o),
(390,360,cs),
(385,360,ls),
(361,360,o),
(345,343,o),
(345,305,c),
(319,344,o),
(272,367,o),
(219,367,cs),
(117,367,o),
(44,288,o),
(44,178,cs),
(44,76,o),
(108,-9,o),
(216,-9,cs),
(267,-9,o),
(314,10,o),
(344,57,c)
);
},
{
closed = 1;
nodes = (
(154,38,o),
(95,84,o),
(95,178,cs),
(95,261,o),
(142,320,o),
(219,320,cs),
(276,320,o),
(344,287,o),
(344,178,cs),
(344,72,o),
(280,38,o),
(214,38,cs)
);
},
{
closed = 1;
nodes = (
(155,431,ls),
(158,431,o),
(161,432,o),
(162,438,cs),
(163,449,o),
(168,455,o),
(178,455,cs),
(200,455,o),
(231,428,o),
(262,428,cs),
(293,428,o),
(317,448,o),
(320,485,cs),
(320,489,o),
(317,491,o),
(313,491,cs),
(287,491,ls),
(283,491,o),
(280,489,o),
(278,483,cs),
(275,474,o),
(270,468,o),
(258,468,cs),
(237,468,o),
(204,495,o),
(172,495,cs),
(143,495,o),
(125,473,o),
(122,436,cs),
(122,432,o),
(124,431,o),
(128,431,cs)
);
}
);
width = 454;
}
);
note = atilde;
unicode = 227;
},
{
glyphname = adieresis;
kernLeft = a;
kernRight = a;
layers = (
{
layerId = m01;
shapes = (
{
closed = 1;
nodes = (
(344,6,ls),
(344,2,o),
(345,0,o),
(349,0,cs),
(390,0,ls),
(394,0,o),
(395,2,o),
(395,6,cs),
(395,354,ls),
(395,358,o),
(394,360,o),
(390,360,cs),
(385,360,ls),
(361,360,o),
(345,343,o),
(345,305,c),
(319,344,o),
(272,367,o),
(219,367,cs),
(117,367,o),
(44,288,o),
(44,178,cs),
(44,76,o),
(108,-9,o),
(216,-9,cs),
(267,-9,o),
(314,10,o),
(344,57,c)
);
},
{
closed = 1;
nodes = (
(154,38,o),
(95,84,o),
(95,178,cs),
(95,261,o),
(142,320,o),
(219,320,cs),
(276,320,o),
(344,287,o),
(344,178,cs),
(344,72,o),
(280,38,o),
(214,38,cs)
);
},
{
closed = 1;
nodes = (
(126,440,o),
(141,426,o),
(159,426,cs),
(178,426,o),
(193,440,o),
(193,458,cs),
(193,477,o),
(178,492,o),
(159,492,cs),
(141,492,o),
(126,477,o),
(126,458,cs)
);
},
{
closed = 1;
nodes = (
(238,440,o),
(253,426,o),
(271,426,cs),
(290,426,o),
(305,440,o),
(305,458,cs),
(305,477,o),
(290,492,o),
(271,492,cs),
(253,492,o),
(238,477,o),
(238,458,cs)
);
}
);
width = 454;
}
);
note = adieresis;
unicode = 228;
},
{
glyphname = aring;
kernLeft = a;
kernRight = a;
layers = (
{
layerId = m01;
shapes = (
{
closed = 1;
nodes = (
(344,6,ls),
(344,2,o),
(345,0,o),
(349,0,cs),
(390,0,ls),
(394,0,o),
(395,2,o),
(395,6,cs),
(395,354,ls),
(395,358,o),
(394,360,o),
(390,360,cs),
(385,360,ls),
(361,360,o),
(345,343,o),
(345,305,c),
(319,344,o),
(272,367,o),
(219,367,cs),
(117,367,o),
(44,288,o),
(44,178,cs),
(44,76,o),
(108,-9,o),
(216,-9,cs),
(267,-9,o),
(314,10,o),
(344,57,c)
);
},
{
closed = 1;
nodes = (
(154,38,o),
(95,84,o),
(95,178,cs),
(95,261,o),
(142,320,o),
(219,320,cs),
(276,320,o),
(344,287,o),
(344,178,cs),
(344,72,o),
(280,38,o),
(214,38,cs)
);
},
{
closed = 1;
nodes = (
(151,449,o),
(181,421,o),
(216,421,cs),
(252,421,o),
(282,449,o),
(282,484,cs),
(282,520,o),
(252,548,o),
(216,548,cs),
(181,548,o),
(151,520,o),
(151,484,cs)
);
},
{
closed = 1;
nodes = (
(197,450,o),
(184,465,o),
(184,484,cs),
(184,504,o),
(197,519,o),
(216,519,cs),
(236,519,o),
(249,504,o),
(249,484,cs),
(249,465,o),
(236,450,o),
(216,450,cs)
);
}
);
width = 454;
}
);
note = aring;
unicode = 229;
},
{
glyphname = ae;
kernLeft = a;
kernRight = e;
layers = (
{
layerId = m01;
shapes = (
{
closed = 1;
nodes = (
(430,9,o),
(483,-9,o),
(533,-9,cs),
(613,-9,o),
(667,38,o),
(667,79,cs),
(667,85,o),
(665,92,o),
(658,92,cs),
(653,92,o),
(650,86,o),
(647,83,cs),
(626,61,o),
(601,37,o),
(537,37,cs),
(466,37,o),
(408,74,o),
(402,160,c),
(657,160,ls),
(666,160,o),
(670,162,o),
(671,171,cs),
(672,179,o),
(672,189,o),
(672,201,cs),
(672,286,o),
(633,367,o),
(518,367,cs),
(468,367,o),
(425,344,o),
(395,305,c),
(395,354,ls),
(395,358,o),
(394,360,o),
(390,360,cs),
(385,360,ls),
(361,360,o),
(344,343,o),
(344,305,c),
(318,344,o),
(272,367,o),
(219,367,cs),
(117,367,o),
(44,288,o),
(44,178,cs),
(44,76,o),
(108,-9,o),
(216,-9,cs),
(268,-9,o),
(314,10,o),
(344,57,c),
(344,6,ls),
(344,2,o),
(345,0,o),
(349,0,cs),
(390,0,ls),
(394,0,o),
(395,2,o),
(395,6,cs),
(395,52,l)
);
},
{
closed = 1;
nodes = (
(154,38,o),
(94,85,o),
(94,178,cs),
(94,262,o),
(142,320,o),
(219,320,cs),
(276,320,o),
(344,287,o),
(344,178,cs),
(344,72,o),
(279,38,o),
(214,38,cs)
);
},
{
closed = 1;
nodes = (
(411,278,o),
(456,321,o),
(518,321,cs),
(605,321,o),
(623,262,o),
(622,203,c),
(402,203,l)
);
}
);
width = 712;
}
);
note = ae;
unicode = 230;
},
{
glyphname = ccedilla;
kernLeft = c;
kernRight = c;
layers = (
{
layerId = m01;
shapes = (
{
closed = 1;
nodes = (
(297,-2,o),
(340,38,o),
(340,74,cs),
(340,84,o),
(336,89,o),
(330,89,cs),
(325,89,o),
(322,84,o),
(320,82,cs),
(299,57,o),
(272,37,o),
(223,37,cs),
(143,37,o),
(95,90,o),
(95,178,cs),
(95,266,o),
(144,320,o),
(218,320,cs),
(259,320,o),
(284,311,o),
(313,294,cs),
(315,293,o),
(317,292,o),
(319,292,cs),
(322,292,o),
(323,294,o),
(324,298,cs),
(328,313,ls),
(332,328,o),
(327,341,o),
(307,349,cs),
(281,362,o),
(255,367,o),
(218,367,cs),
(116,367,o),
(44,289,o),
(44,177,cs),
(44,73,o),
(101,4,o),
(190,-8,c),
(144,-80,ls),
(142,-83,o),
(143,-86,o),
(147,-86,cs),
(181,-86,ls),
(192,-86,o),
(198,-85,o),
(202,-77,cs),
(237,-9,l)
);
}
);
width = 362;
}
);
note = ccedilla;
unicode = 231;
},
{
glyphname = egrave;
kernLeft = e;
kernRight = e;
layers = (
{
layerId = m01;
shapes = (
{
closed = 1;
nodes = (
(351,160,ls),
(359,160,o),
(363,162,o),
(364,171,cs),
(365,179,o),
(365,189,o),
(365,201,cs),
(365,286,o),
(322,367,o),
(208,367,cs),
(113,367,o),
(44,288,o),
(44,178,cs),
(44,41,o),
(138,-9,o),
(222,-9,cs),
(302,-9,o),
(360,35,o),
(360,78,cs),
(360,84,o),
(358,92,o),
(352,92,cs),
(347,92,o),
(343,86,o),
(340,82,c),
(318,61,o),
(290,37,o),
(226,37,cs),
(155,37,o),
(101,73,o),
(95,160,c)
);
},
{
closed = 1;
nodes = (
(103,278,o),
(144,321,o),
(207,321,cs),
(293,321,o),
(315,261,o),
(314,203,c),
(95,203,l)
);
},
{
closed = 1;
nodes = (
(205,440,ls),
(214,433,o),
(220,431,o),
(230,431,cs),
(267,431,ls),
(271,431,o),
(272,434,o),
(270,436,cs),
(207,493,ls),
(200,499,o),
(197,502,o),
(186,502,cs),
(136,502,ls),
(132,502,o),
(131,498,o),
(133,496,cs)
);
}
);
width = 406;
}
);
note = egrave;
unicode = 232;
},
{
glyphname = eacute;
kernLeft = e;
kernRight = e;
layers = (
{
layerId = m01;
shapes = (
{
closed = 1;
nodes = (
(351,160,ls),
(359,160,o),
(363,162,o),
(364,171,cs),
(365,179,o),
(365,189,o),
(365,201,cs),
(365,286,o),
(322,367,o),
(208,367,cs),
(113,367,o),
(44,288,o),
(44,178,cs),
(44,41,o),
(138,-9,o),
(222,-9,cs),
(302,-9,o),
(360,35,o),
(360,78,cs),
(360,84,o),
(358,92,o),
(352,92,cs),
(347,92,o),
(343,86,o),
(340,82,c),
(318,61,o),
(290,37,o),
(226,37,cs),
(155,37,o),
(101,73,o),
(95,160,c)
);
},
{
closed = 1;
nodes = (
(103,278,o),
(144,321,o),
(207,321,cs),
(293,321,o),
(315,261,o),
(314,203,c),
(95,203,l)
);
},
{
closed = 1;
nodes = (
(141,434,o),
(143,431,o),
(147,431,cs),
(184,431,ls),
(194,431,o),
(200,433,o),
(209,440,cs),
(281,496,l),
(282,498,o),
(282,502,o),
(277,502,cs),
(228,502,ls),
(217,502,o),
(214,499,o),
(207,493,cs),
(145,436,l)
);
}
);
width = 406;
}
);
note = eacute;
unicode = 233;
},
{
glyphname = ecircumflex;
kernLeft = e;
kernRight = e;
layers = (
{
layerId = m01;
shapes = (
{
closed = 1;
nodes = (
(351,160,ls),
(359,160,o),
(363,162,o),
(364,171,cs),
(365,179,o),
(365,189,o),
(365,201,cs),
(365,286,o),
(322,367,o),
(208,367,cs),
(113,367,o),
(44,288,o),
(44,178,cs),
(44,41,o),
(138,-9,o),
(222,-9,cs),
(302,-9,o),
(360,35,o),
(360,78,cs),
(360,84,o),
(358,92,o),
(352,92,cs),
(347,92,o),
(343,86,o),
(340,82,c),
(318,61,o),
(290,37,o),
(226,37,cs),
(155,37,o),
(101,73,o),
(95,160,c)
);
},
{
closed = 1;
nodes = (
(103,278,o),
(144,321,o),
(207,321,cs),
(293,321,o),
(315,261,o),
(314,203,c),
(95,203,l)
);
},
{
closed = 1;
nodes = (
(250,440,ls),
(258,432,o),
(265,431,o),
(275,431,cs),
(307,431,ls),
(311,431,o),
(313,434,o),
(310,436,c),
(247,493,ls),
(241,499,o),
(238,502,o),
(227,502,cs),
(198,502,ls),
(187,502,o),
(184,499,o),
(177,493,cs),
(115,436,l),
(111,434,o),
(113,431,o),
(117,431,cs),
(150,431,ls),
(160,431,o),
(167,432,o),
(175,440,cs),
(213,475,l)
);
}
);
width = 406;
}
);
note = ecircumflex;
unicode = 234;
},
{
glyphname = edieresis;
kernLeft = e;
kernRight = e;
layers = (
{
layerId = m01;
shapes = (
{
closed = 1;
nodes = (
(351,160,ls),
(359,160,o),
(363,162,o),
(364,171,cs),
(365,179,o),
(365,189,o),
(365,201,cs),
(365,286,o),
(322,367,o),
(208,367,cs),
(113,367,o),
(44,288,o),
(44,178,cs),
(44,41,o),
(138,-9,o),
(222,-9,cs),
(302,-9,o),
(360,35,o),
(360,78,cs),
(360,84,o),
(358,92,o),
(352,92,cs),
(347,92,o),
(343,86,o),
(340,82,c),
(318,61,o),
(290,37,o),
(226,37,cs),
(155,37,o),
(101,73,o),
(95,160,c)
);
},
{
closed = 1;
nodes = (
(103,278,o),
(144,321,o),
(207,321,cs),
(293,321,o),
(315,261,o),
(314,203,c),
(95,203,l)
);
},
{
closed = 1;
nodes = (
(120,440,o),
(135,426,o),
(153,426,cs),
(172,426,o),
(187,440,o),
(187,458,cs),
(187,477,o),
(172,492,o),
(153,492,cs),
(135,492,o),
(120,477,o),
(120,458,cs)
);
},
{
closed = 1;
nodes = (
(232,440,o),
(247,426,o),
(265,426,cs),
(284,426,o),
(299,440,o),
(299,458,cs),
(299,477,o),
(284,492,o),
(265,492,cs),
(247,492,o),
(232,477,o),
(232,458,cs)
);
}
);
width = 406;
}
);
note = edieresis;
unicode = 235;
},
{
glyphname = igrave;
kernLeft = i;
kernRight = i;
layers = (
{
layerId = m01;
shapes = (
{
closed = 1;
nodes = (
(104,0,ls),
(108,0,o),
(109,2,o),
(109,6,cs),
(109,308,ls),
(109,340,o),
(92,360,o),
(68,360,cs),
(65,360,ls),
(61,360,o),
(60,358,o),
(60,354,cs),
(60,6,ls),
(60,2,o),
(61,0,o),
(65,0,cs)
);
},
{
closed = 1;
nodes = (
(88,440,ls),
(97,433,o),
(103,431,o),
(112,431,cs),
(150,431,ls),
(153,431,o),
(155,434,o),
(152,436,c),
(90,493,ls),
(83,499,o),
(80,502,o),
(69,502,cs),
(19,502,ls),
(15,502,o),
(14,498,o),
(16,496,cs)
);
}
);
width = 170;
}
);
note = igrave;
unicode = 236;
},
{
glyphname = iacute;
kernLeft = i;
kernRight = i;
layers = (
{
layerId = m01;
shapes = (
{
closed = 1;
nodes = (
(105,0,ls),
(110,0,o),
(110,2,o),
(110,6,cs),
(110,308,ls),
(110,340,o),
(93,360,o),
(70,360,cs),
(66,360,ls),
(62,360,o),
(61,358,o),
(61,354,cs),
(61,6,ls),
(61,2,o),
(62,0,o),
(66,0,cs)
);
},
{
closed = 1;
nodes = (
(14,434,o),
(16,431,o),
(20,431,cs),
(57,431,ls),
(67,431,o),
(73,433,o),
(82,440,cs),
(153,496,ls),
(155,498,o),
(155,502,o),
(150,502,cs),
(101,502,ls),
(90,502,o),
(87,499,o),
(80,493,cs),
(17,436,l)
);
}
);
width = 170;
}
);
note = iacute;
unicode = 237;
},
{
glyphname = icircumflex;
kernLeft = i;
kernRight = i;
layers = (
{
layerId = m01;
shapes = (
{
closed = 1;
nodes = (
(105,0,ls),
(110,0,o),
(110,2,o),
(110,6,cs),
(110,308,ls),
(110,340,o),
(93,360,o),
(70,360,cs),
(66,360,ls),
(62,360,o),
(61,358,o),
(61,354,cs),
(61,6,ls),
(61,2,o),
(62,0,o),
(66,0,cs)
);
},
{
closed = 1;
nodes = (
(122,440,ls),
(131,432,o),
(137,431,o),
(147,431,cs),
(180,431,ls),
(184,431,o),
(186,434,o),
(183,436,c),
(120,493,ls),
(113,499,o),
(111,502,o),
(100,502,cs),
(71,502,ls),
(60,502,o),
(57,499,o),
(50,493,cs),
(-13,436,l),
(-16,434,o),
(-14,431,o),
(-10,431,cs),
(23,431,ls),
(33,431,o),
(40,432,o),
(48,440,cs),
(86,475,l)
);
}
);
width = 170;
}
);
note = icircumflex;
unicode = 238;
},
{
glyphname = idieresis;
kernLeft = i;
kernRight = i;
layers = (
{
layerId = m01;
shapes = (
{
closed = 1;
nodes = (
(105,0,ls),
(110,0,o),
(110,2,o),
(110,6,cs),
(110,308,ls),
(110,340,o),
(94,360,o),
(70,360,cs),
(66,360,ls),
(62,360,o),
(61,358,o),
(61,354,cs),
(61,6,ls),
(61,2,o),
(62,0,o),
(66,0,cs)
);
},
{
closed = 1;
nodes = (
(-4,440,o),
(11,426,o),
(29,426,cs),
(48,426,o),
(63,440,o),
(63,458,cs),
(63,477,o),
(48,492,o),
(29,492,cs),
(11,492,o),
(-4,477,o),
(-4,458,cs)
);
},
{
closed = 1;
nodes = (
(108,440,o),
(123,426,o),
(141,426,cs),
(160,426,o),
(175,440,o),
(175,458,cs),
(175,477,o),
(160,492,o),
(141,492,cs),
(123,492,o),
(108,477,o),
(108,458,cs)
);
}
);
width = 170;
}
);
note = idieresis;
unicode = 239;
},
{
glyphname = eth;
layers = (
{
layerId = m01;
shapes = (
{
closed = 1;
nodes = (
(248,359,o),
(234,361,o),
(220,361,cs),
(115,361,o),
(44,286,o),
(44,175,cs),
(44,63,o),
(115,-9,o),
(221,-9,cs),
(328,-9,o),
(399,66,o),
(399,176,cs),
(399,237,o),
(379,276,o),
(360,302,cs),
(240,469,l),
(293,498,l),
(297,501,o),
(297,503,o),
(294,507,cs),
(276,532,ls),
(275,534,o),
(274,537,o),
(270,534,c),
(214,506,l),
(202,523,ls),
(183,548,o),
(167,556,o),
(145,556,cs),
(126,556,ls),
(122,556,o),
(120,553,o),
(122,549,c),
(170,483,l),
(105,449,l),
(102,448,o),
(100,446,o),
(103,442,cs),
(121,416,ls),
(123,413,o),
(125,412,o),
(128,413,c),
(196,448,l),
(261,357,l)
);
},
{
closed = 1;
nodes = (
(143,37,o),
(94,92,o),
(94,176,cs),
(94,259,o),
(143,314,o),
(220,314,cs),
(294,314,o),
(348,259,o),
(348,175,cs),
(348,90,o),
(297,37,o),
(220,37,cs)
);
}
);
width = 443;
}
);
note = eth;
unicode = 240;
},
{
glyphname = ntilde;
kernLeft = n;
kernRight = n;
layers = (
{
layerId = m01;
shapes = (
{
closed = 1;
nodes = (
(110,339,o),
(93,360,o),
(69,360,cs),
(64,360,ls),
(60,360,o),
(59,358,o),
(59,354,cs),
(59,6,ls),
(59,2,o),
(60,0,o),
(64,0,cs),
(104,0,ls),
(108,0,o),
(109,2,o),
(109,6,cs),
(109,193,ls),
(109,276,o),
(148,320,o),
(222,320,cs),
(291,320,o),
(330,276,o),
(330,200,cs),
(330,6,ls),
(330,2,o),
(331,0,o),
(335,0,cs),
(375,0,ls),
(379,0,o),
(380,2,o),
(380,6,cs),
(380,214,ls),
(380,302,o),
(325,367,o),
(231,367,cs),
(171,367,o),
(129,338,o),
(110,307,c)
);
},
{
closed = 1;
nodes = (
(152,431,ls),
(156,431,o),
(158,432,o),
(160,438,c),
(161,449,o),
(166,455,o),
(176,455,cs),
(197,455,o),
(229,428,o),
(260,428,cs),
(291,428,o),
(315,448,o),
(317,485,cs),
(317,489,o),
(315,491,o),
(311,491,cs),
(285,491,ls),
(281,491,o),
(277,489,o),
(276,483,c),
(272,474,o),
(268,468,o),
(256,468,cs),
(235,468,o),
(202,495,o),
(170,495,cs),
(141,495,o),
(122,473,o),
(120,436,cs),
(120,432,o),
(122,431,o),
(126,431,cs)
);
}
);
width = 439;
}
);
note = ntilde;
unicode = 241;
},
{
glyphname = ograve;
kernLeft = o;
kernRight = o;
layers = (
{
layerId = m01;
shapes = (
{
closed = 1;
nodes = (
(328,-9,o),
(398,67,o),
(398,179,cs),
(398,291,o),
(328,367,o),
(220,367,cs),
(116,367,o),
(44,291,o),
(44,178,cs),
(44,63,o),
(116,-9,o),
(221,-9,cs)
);
},
{
closed = 1;
nodes = (
(143,38,o),
(95,94,o),
(95,179,cs),
(95,263,o),
(143,320,o),
(220,320,cs),
(294,320,o),
(348,263,o),
(348,178,cs),
(348,92,o),
(297,38,o),
(220,38,cs)
);
},
{
closed = 1;
nodes = (
(224,440,ls),
(233,433,o),
(239,431,o),
(248,431,cs),
(286,431,ls),
(290,431,o),
(291,434,o),
(288,436,c),
(226,493,ls),
(219,499,o),
(216,502,o),
(205,502,cs),
(155,502,ls),
(151,502,o),
(150,498,o),
(152,496,cs)
);
}
);
width = 443;
}
);
note = ograve;
unicode = 242;
},
{
glyphname = oacute;
kernLeft = o;
kernRight = o;
layers = (
{
layerId = m01;
shapes = (
{
closed = 1;
nodes = (
(328,-9,o),
(398,67,o),
(398,179,cs),
(398,291,o),
(328,367,o),
(220,367,cs),
(116,367,o),
(44,291,o),
(44,178,cs),
(44,63,o),
(116,-9,o),
(221,-9,cs)
);
},
{
closed = 1;
nodes = (
(143,38,o),
(95,94,o),
(95,179,cs),
(95,263,o),
(143,320,o),
(220,320,cs),
(294,320,o),
(348,263,o),
(348,178,cs),
(348,92,o),
(297,38,o),
(220,38,cs)
);
},
{
closed = 1;
nodes = (
(150,434,o),
(152,431,o),
(156,431,cs),
(192,431,ls),
(202,431,o),
(208,433,o),
(217,440,cs),
(289,496,ls),
(291,498,o),
(290,502,o),
(286,502,cs),
(236,502,ls),
(225,502,o),
(222,499,o),
(215,493,cs),
(153,436,l)
);
}
);
width = 443;
}
);
note = oacute;
unicode = 243;
},
{
glyphname = ocircumflex;
kernLeft = o;
kernRight = o;
layers = (
{
layerId = m01;
shapes = (
{
closed = 1;
nodes = (
(328,-9,o),
(398,67,o),
(398,179,cs),
(398,291,o),
(328,367,o),
(220,367,cs),
(116,367,o),
(44,291,o),
(44,178,cs),
(44,63,o),
(116,-9,o),
(221,-9,cs)
);
},
{
closed = 1;
nodes = (
(143,38,o),
(95,94,o),
(95,179,cs),
(95,263,o),
(143,320,o),
(220,320,cs),
(294,320,o),
(348,263,o),
(348,178,cs),
(348,92,o),
(297,38,o),
(220,38,cs)
);
},
{
closed = 1;
nodes = (
(258,440,ls),
(267,432,o),
(273,431,o),
(283,431,cs),
(316,431,ls),
(320,431,o),
(321,434,o),
(318,436,c),
(256,493,ls),
(249,499,o),
(246,502,o),
(235,502,cs),
(206,502,ls),
(195,502,o),
(192,499,o),
(185,493,cs),
(123,436,l),
(120,434,o),
(122,431,o),
(126,431,cs),
(158,431,ls),
(168,431,o),
(175,432,o),
(183,440,cs),
(221,475,l)
);
}
);
width = 443;
}
);
note = ocircumflex;
unicode = 244;
},
{
glyphname = otilde;
kernLeft = o;
kernRight = o;
layers = (
{
layerId = m01;
shapes = (
{
closed = 1;
nodes = (
(328,-9,o),
(398,67,o),
(398,179,cs),
(398,291,o),
(328,367,o),
(220,367,cs),
(116,367,o),
(44,291,o),
(44,178,cs),
(44,63,o),
(116,-9,o),
(221,-9,cs)
);
},
{
closed = 1;
nodes = (
(143,38,o),
(95,94,o),
(95,179,cs),
(95,263,o),
(143,320,o),
(220,320,cs),
(294,320,o),
(348,263,o),
(348,178,cs),
(348,92,o),
(297,38,o),
(220,38,cs)
);
},
{
closed = 1;
nodes = (
(155,431,ls),
(158,431,o),
(161,432,o),
(162,438,cs),
(163,449,o),
(168,455,o),
(178,455,cs),
(200,455,o),
(231,428,o),
(262,428,cs),
(293,428,o),
(317,448,o),
(320,485,cs),
(320,489,o),
(317,491,o),
(313,491,cs),
(287,491,ls),
(283,491,o),
(280,489,o),
(278,483,cs),
(275,474,o),
(270,468,o),
(258,468,cs),
(237,468,o),
(204,495,o),
(172,495,cs),
(143,495,o),
(125,473,o),
(122,436,cs),
(122,432,o),
(124,431,o),
(128,431,cs)
);
}
);
width = 443;
}
);
note = otilde;
unicode = 245;
},
{
glyphname = odieresis;
kernLeft = o;
kernRight = o;
layers = (
{
layerId = m01;
shapes = (
{
closed = 1;
nodes = (
(328,-9,o),
(398,67,o),
(398,179,cs),
(398,291,o),
(328,367,o),
(220,367,cs),
(116,367,o),
(44,291,o),
(44,178,cs),
(44,63,o),
(116,-9,o),
(221,-9,cs)
);
},
{
closed = 1;
nodes = (
(143,38,o),
(95,94,o),
(95,179,cs),
(95,263,o),
(143,320,o),
(220,320,cs),
(294,320,o),
(348,263,o),
(348,178,cs),
(348,92,o),
(297,38,o),
(220,38,cs)
);
},
{
closed = 1;
nodes = (
(132,440,o),
(147,426,o),
(165,426,cs),
(183,426,o),
(198,440,o),
(198,458,cs),
(198,477,o),
(183,492,o),
(165,492,cs),
(147,492,o),
(132,477,o),
(132,458,cs)
);
},
{
closed = 1;
nodes = (
(244,440,o),
(259,426,o),
(277,426,cs),
(296,426,o),
(311,440,o),
(311,458,cs),
(311,477,o),
(296,492,o),
(277,492,cs),
(259,492,o),
(244,477,o),
(244,458,cs)
);
}
);
width = 443;
}
);
note = odieresis;
unicode = 246;
},
{
glyphname = divide;
layers = (
{
layerId = m01;
shapes = (
{
closed = 1;
nodes = (
(339,249,ls),
(343,249,o),
(344,251,o),
(344,255,cs),
(344,260,ls),
(344,279,o),
(330,295,o),
(305,295,cs),
(46,295,ls),
(42,295,o),
(41,293,o),
(41,289,cs),
(41,255,ls),
(41,251,o),
(42,249,o),
(46,249,cs)
);
},
{
closed = 1;
nodes = (
(162,379,o),
(176,364,o),
(192,364,cs),
(209,364,o),
(223,379,o),
(223,394,cs),
(223,412,o),
(209,426,o),
(192,426,cs),
(176,426,o),
(162,412,o),
(162,394,cs)
);
},
{
closed = 1;
nodes = (
(162,132,o),
(176,118,o),
(192,118,cs),
(209,118,o),
(223,132,o),
(223,148,cs),
(223,165,o),
(209,179,o),
(192,179,cs),
(176,179,o),
(162,165,o),
(162,148,cs)
);
}
);
width = 384;
}
);
note = divide;
unicode = 247;
},
{
glyphname = oslash;
kernLeft = o;
kernRight = o;
layers = (
{
layerId = m01;
shapes = (
{
closed = 1;
nodes = (
(109,92,o),
(94,131,o),
(94,179,cs),
(94,264,o),
(143,320,o),
(220,320,cs),
(246,320,o),
(269,313,o),
(287,301,c),
(137,68,l)
);
},
{
closed = 1;
nodes = (
(338,247,o),
(348,215,o),
(348,178,cs),
(348,92,o),
(297,38,o),
(220,38,cs),
(204,38,o),
(189,40,o),
(176,45,c),
(320,271,l)
);
},
{
closed = 1;
nodes = (
(328,-9,o),
(399,67,o),
(399,179,cs),
(399,291,o),
(328,367,o),
(220,367,cs),
(115,367,o),
(44,291,o),
(44,178,cs),
(44,64,o),
(115,-9,o),
(221,-9,cs)
);
}
);
width = 443;
}
);
note = oslash;
unicode = 248;
},
{
glyphname = ugrave;
kernLeft = u;
kernRight = u;
layers = (
{
layerId = m01;
shapes = (
{
closed = 1;
nodes = (
(306,-10,o),
(364,51,o),
(364,156,cs),
(364,308,ls),
(364,340,o),
(347,360,o),
(323,360,cs),
(319,360,ls),
(315,360,o),
(314,358,o),
(314,354,cs),
(314,153,ls),
(314,73,o),
(276,36,o),
(211,36,cs),
(145,36,o),
(110,81,o),
(110,156,cs),
(110,308,ls),
(110,340,o),
(92,360,o),
(68,360,cs),
(63,360,ls),
(60,360,o),
(59,358,o),
(59,354,cs),
(59,159,ls),
(59,51,o),
(115,-10,o),
(211,-10,cs)
);
},
{
closed = 1;
nodes = (
(200,440,ls),
(209,433,o),
(215,431,o),
(225,431,cs),
(262,431,ls),
(266,431,o),
(267,434,o),
(265,436,cs),
(202,493,ls),
(195,499,o),
(192,502,o),
(181,502,cs),
(131,502,ls),
(127,502,o),
(126,498,o),
(128,496,cs)
);
}
);
width = 423;
}
);
note = ugrave;
unicode = 249;
},
{
glyphname = uacute;
kernLeft = u;
kernRight = u;
layers = (
{
layerId = m01;
shapes = (
{
closed = 1;
nodes = (
(306,-10,o),
(364,51,o),
(364,156,cs),
(364,308,ls),
(364,340,o),
(347,360,o),
(323,360,cs),
(319,360,ls),
(315,360,o),
(314,358,o),
(314,354,cs),
(314,153,ls),
(314,73,o),
(276,36,o),
(211,36,cs),
(145,36,o),
(110,81,o),
(110,156,cs),
(110,308,ls),
(110,340,o),
(92,360,o),
(68,360,cs),
(63,360,ls),
(60,360,o),
(59,358,o),
(59,354,cs),
(59,159,ls),
(59,51,o),
(115,-10,o),
(211,-10,cs)
);
},
{
closed = 1;
nodes = (
(140,434,o),
(142,431,o),
(146,431,cs),
(182,431,ls),
(192,431,o),
(198,433,o),
(207,440,cs),
(279,496,ls),
(281,498,o),
(280,502,o),
(276,502,cs),
(226,502,ls),
(215,502,o),
(212,499,o),
(205,493,cs),
(143,436,l)
);
}
);
width = 423;
}
);
note = uacute;
unicode = 250;
},
{
glyphname = ucircumflex;
kernLeft = u;
kernRight = u;
layers = (
{
layerId = m01;
shapes = (
{
closed = 1;
nodes = (
(306,-10,o),
(364,51,o),
(364,156,cs),
(364,308,ls),
(364,340,o),
(347,360,o),
(323,360,cs),
(319,360,ls),
(315,360,o),
(314,358,o),
(314,354,cs),
(314,153,ls),
(314,73,o),
(276,36,o),
(211,36,cs),
(145,36,o),
(110,81,o),
(110,156,cs),
(110,308,ls),
(110,340,o),
(92,360,o),
(68,360,cs),
(63,360,ls),
(60,360,o),
(59,358,o),
(59,354,cs),
(59,159,ls),
(59,51,o),
(115,-10,o),
(211,-10,cs)
);
},
{
closed = 1;
nodes = (
(242,440,ls),
(251,432,o),
(257,431,o),
(267,431,cs),
(300,431,ls),
(303,431,o),
(305,434,o),
(302,436,c),
(240,493,ls),
(233,499,o),
(230,502,o),
(219,502,cs),
(190,502,ls),
(179,502,o),
(176,499,o),
(169,493,cs),
(107,436,l),
(103,434,o),
(106,431,o),
(110,431,cs),
(142,431,ls),
(152,431,o),
(159,432,o),
(167,440,cs),
(205,475,l)
);
}
);
width = 423;
}
);
note = ucircumflex;
unicode = 251;
},
{
glyphname = udieresis;
kernLeft = u;
kernRight = u;
layers = (
{
layerId = m01;
shapes = (
{
closed = 1;
nodes = (
(306,-10,o),
(364,51,o),
(364,156,cs),
(364,308,ls),
(364,340,o),
(347,360,o),
(323,360,cs),
(319,360,ls),
(315,360,o),
(314,358,o),
(314,354,cs),
(314,153,ls),
(314,73,o),
(276,36,o),
(211,36,cs),
(145,36,o),
(110,81,o),
(110,156,cs),
(110,308,ls),
(110,340,o),
(92,360,o),
(68,360,cs),
(63,360,ls),
(60,360,o),
(59,358,o),
(59,354,cs),
(59,159,ls),
(59,51,o),
(115,-10,o),
(211,-10,cs)
);
},
{
closed = 1;
nodes = (
(116,440,o),
(131,426,o),
(149,426,cs),
(168,426,o),
(183,440,o),
(183,458,cs),
(183,477,o),
(168,492,o),
(149,492,cs),
(131,492,o),
(116,477,o),
(116,458,cs)
);
},
{
closed = 1;
nodes = (
(228,440,o),
(243,426,o),
(261,426,cs),
(280,426,o),
(295,440,o),
(295,458,cs),
(295,477,o),
(280,492,o),
(261,492,cs),
(243,492,o),
(228,477,o),
(228,458,cs)
);
}
);
width = 423;
}
);
note = udieresis;
unicode = 252;
},
{
glyphname = yacute;
kernLeft = y;
kernRight = y;
layers = (
{
layerId = m01;
shapes = (
{
closed = 1;
nodes = (
(104,-104,o),
(89,-124,o),
(55,-124,cs),
(34,-124,o),
(22,-116,o),
(5,-98,c),
(2,-96,o),
(0,-93,o),
(-4,-93,cs),
(-10,-93,o),
(-13,-99,o),
(-13,-106,cs),
(-13,-140,o),
(21,-171,o),
(58,-171,cs),
(121,-171,o),
(145,-117,o),
(180,-19,cs),
(311,354,ls),
(312,357,o),
(311,360,o),
(307,360,cs),
(273,360,ls),
(264,360,o),
(260,359,o),
(258,350,c),
(165,63,l),
(83,320,ls),
(73,350,o),
(56,360,o),
(35,360,cs),
(22,360,ls),
(18,360,o),
(17,357,o),
(18,354,cs),
(140,-5,l)
);
},
{
closed = 1;
nodes = (
(109,434,o),
(111,431,o),
(115,431,cs),
(151,431,ls),
(161,431,o),
(168,433,o),
(176,440,cs),
(248,496,ls),
(250,498,o),
(249,502,o),
(245,502,cs),
(195,502,ls),
(184,502,o),
(181,499,o),
(174,493,cs),
(112,436,l)
);
}
);
width = 341;
}
);
note = yacute;
unicode = 253;
},
{
glyphname = thorn;
layers = (
{
layerId = m01;
shapes = (
{
closed = 1;
nodes = (
(138,10,o),
(187,-9,o),
(242,-9,cs),
(346,-9,o),
(411,74,o),
(411,178,cs),
(411,290,o),
(344,367,o),
(241,367,cs),
(181,367,o),
(136,342,o),
(110,302,c),
(110,503,ls),
(110,536,o),
(93,556,o),
(70,556,cs),
(65,556,ls),
(61,556,o),
(60,553,o),
(60,549,cs),
(60,-154,ls),
(60,-158,o),
(61,-160,o),
(65,-160,cs),
(105,-160,ls),
(109,-160,o),
(110,-158,o),
(110,-154,cs),
(110,54,l)
);
},
{
closed = 1;
nodes = (
(181,38,o),
(110,74,o),
(110,178,cs),
(110,287,o),
(178,320,o),
(236,320,cs),
(312,320,o),
(359,262,o),
(359,178,cs),
(359,85,o),
(300,38,o),
(239,38,cs)
);
}
);
width = 454;
}
);
note = thorn;
unicode = 254;
},
{
glyphname = ydieresis;
kernLeft = y;
kernRight = y;
layers = (
{
layerId = m01;
shapes = (
{
closed = 1;
nodes = (
(104,-104,o),
(89,-124,o),
(55,-124,cs),
(34,-124,o),
(22,-116,o),
(5,-98,c),
(2,-96,o),
(0,-93,o),
(-4,-93,cs),
(-10,-93,o),
(-13,-99,o),
(-13,-106,cs),
(-13,-140,o),
(21,-171,o),
(58,-171,cs),
(121,-171,o),
(145,-117,o),
(180,-19,cs),
(311,354,ls),
(312,357,o),
(311,360,o),
(307,360,cs),
(273,360,ls),
(264,360,o),
(260,359,o),
(258,350,c),
(165,63,l),
(83,320,ls),
(73,350,o),
(56,360,o),
(35,360,cs),
(22,360,ls),
(18,360,o),
(17,357,o),
(18,354,cs),
(140,-5,l)
);
},
{
closed = 1;
nodes = (
(82,440,o),
(97,426,o),
(115,426,cs),
(134,426,o),
(149,440,o),
(149,458,cs),
(149,477,o),
(134,492,o),
(115,492,cs),
(97,492,o),
(82,477,o),
(82,458,cs)
);
},
{
closed = 1;
nodes = (
(194,440,o),
(209,426,o),
(227,426,cs),
(246,426,o),
(261,440,o),
(261,458,cs),
(261,477,o),
(246,492,o),
(227,492,cs),
(209,492,o),
(194,477,o),
(194,458,cs)
);
}
);
width = 341;
}
);
note = ydieresis;
unicode = 255;
},
{
glyphname = dotlessi;
kernLeft = r;
kernRight = i;
layers = (
{
layerId = m01;
shapes = (
{
closed = 1;
nodes = (
(104,0,ls),
(109,0,o),
(109,2,o),
(109,6,cs),
(109,308,ls),
(109,340,o),
(93,360,o),
(69,360,cs),
(65,360,ls),
(61,360,o),
(60,358,o),
(60,354,cs),
(60,6,ls),
(60,2,o),
(61,0,o),
(65,0,cs)
);
}
);
width = 170;
}
);
note = dotlessi;
unicode = 305;
},
{
glyphname = Lslash;
layers = (
{
layerId = m01;
shapes = (
{
closed = 1;
nodes = (
(126,241,l),
(281,324,ls),
(285,326,o),
(286,329,o),
(286,333,cs),
(286,371,ls),
(286,374,o),
(284,376,o),
(280,374,cs),
(126,291,l),
(126,503,ls),
(126,536,o),
(109,556,o),
(86,556,cs),
(81,556,ls),
(77,556,o),
(76,553,o),
(76,549,cs),
(76,264,l),
(25,237,ls),
(21,235,o),
(20,232,o),
(20,228,cs),
(20,190,ls),
(20,187,o),
(22,185,o),
(26,187,cs),
(76,214,l),
(76,6,ls),
(76,2,o),
(77,0,o),
(81,0,cs),
(336,0,ls),
(342,0,o),
(344,2,o),
(344,7,cs),
(344,18,ls),
(344,37,o),
(334,47,o),
(314,47,cs),
(126,47,l)
);
}
);
width = 364;
}
);
note = Lslash;
unicode = 321;
},
{
glyphname = lslash;
layers = (
{
layerId = m01;
shapes = (
{
closed = 1;
nodes = (
(72,90,ls),
(72,20,o),
(103,-9,o),
(153,-9,cs),
(209,-9,o),
(230,40,o),
(230,64,cs),
(230,71,o),
(227,77,o),
(222,77,cs),
(219,77,o),
(217,75,o),
(214,71,cs),
(199,51,o),
(184,41,o),
(162,41,cs),
(135,41,o),
(122,59,o),
(122,92,cs),
(122,239,l),
(189,275,l),
(193,276,o),
(194,279,o),
(194,283,cs),
(194,321,ls),
(194,324,o),
(192,326,o),
(188,324,cs),
(122,289,l),
(122,503,ls),
(122,536,o),
(105,556,o),
(82,556,cs),
(77,556,ls),
(73,556,o),
(72,553,o),
(72,549,cs),
(72,262,l),
(25,237,ls),
(21,235,o),
(20,232,o),
(20,228,cs),
(20,190,ls),
(20,187,o),
(22,185,o),
(26,187,cs),
(72,212,l)
);
}
);
width = 232;
}
);
note = lslash;
unicode = 322;
},
{
glyphname = OE;
kernLeft = O;
kernRight = E;
layers = (
{
layerId = m01;
shapes = (
{
closed = 1;
nodes = (
(539,252,l),
(752,252,ls),
(758,252,o),
(760,254,o),
(760,259,cs),
(760,270,ls),
(760,288,o),
(750,298,o),
(730,298,cs),
(539,298,l),
(539,508,l),
(770,508,ls),
(776,508,o),
(778,511,o),
(778,516,cs),
(778,527,ls),
(778,546,o),
(768,556,o),
(748,556,cs),
(493,556,ls),
(489,556,o),
(488,553,o),
(488,549,cs),
(488,466,l),
(449,529,o),
(384,567,o),
(298,567,cs),
(146,567,o),
(57,454,o),
(57,277,cs),
(57,100,o),
(145,-10,o),
(298,-10,cs),
(385,-10,o),
(449,26,o),
(488,89,c),
(488,6,ls),
(488,2,o),
(489,0,o),
(493,0,cs),
(780,0,ls),
(786,0,o),
(788,2,o),
(788,7,cs),
(788,18,ls),
(788,37,o),
(778,47,o),
(758,47,cs),
(539,47,l)
);
},
{
closed = 1;
nodes = (
(206,37,o),
(106,87,o),
(106,277,cs),
(106,467,o),
(206,519,o),
(298,519,cs),
(389,519,o),
(488,467,o),
(488,277,cs),
(488,87,o),
(390,37,o),
(298,37,cs)
);
}
);
width = 821;
}
);
note = OE;
unicode = 338;
},
{
glyphname = oe;
kernLeft = o;
kernRight = e;
layers = (
{
layerId = m01;
shapes = (
{
closed = 1;
nodes = (
(405,16,o),
(466,-9,o),
(525,-9,cs),
(606,-9,o),
(662,35,o),
(662,79,cs),
(662,85,o),
(661,92,o),
(655,92,cs),
(650,92,o),
(646,86,o),
(643,83,cs),
(622,61,o),
(593,37,o),
(528,37,cs),
(459,37,o),
(404,74,o),
(398,160,c),
(653,160,ls),
(662,160,o),
(666,162,o),
(667,171,cs),
(667,179,o),
(667,189,o),
(667,201,cs),
(667,286,o),
(626,367,o),
(511,367,cs),
(450,367,o),
(400,333,o),
(373,279,c),
(345,334,o),
(291,367,o),
(220,367,cs),
(115,367,o),
(44,291,o),
(44,178,cs),
(44,64,o),
(115,-9,o),
(221,-9,cs),
(291,-9,o),
(344,24,o),
(373,78,c)
);
},
{
closed = 1;
nodes = (
(143,38,o),
(94,94,o),
(94,179,cs),
(94,264,o),
(143,320,o),
(220,320,cs),
(294,320,o),
(348,264,o),
(348,178,cs),
(348,92,o),
(297,38,o),
(220,38,cs)
);
},
{
closed = 1;
nodes = (
(407,278,o),
(448,321,o),
(510,321,cs),
(597,321,o),
(618,262,o),
(618,203,c),
(398,203,l)
);
}
);
width = 708;
}
);
note = oe;
unicode = 339;
},
{
glyphname = Scaron;
kernLeft = S;
kernRight = S;
layers = (
{
layerId = m01;
shapes = (
{
closed = 1;
nodes = (
(24,68,o),
(80,-11,o),
(210,-11,cs),
(331,-11,o),
(403,56,o),
(403,155,cs),
(403,329,o),
(91,283,o),
(91,423,cs),
(91,482,o),
(141,520,o),
(216,520,cs),
(270,520,o),
(326,501,o),
(368,471,cs),
(374,467,o),
(377,465,o),
(381,465,cs),
(385,465,o),
(387,468,o),
(388,473,cs),
(392,490,ls),
(397,510,o),
(382,524,o),
(357,536,cs),
(320,553,o),
(276,567,o),
(220,567,cs),
(111,567,o),
(40,504,o),
(40,421,cs),
(40,236,o),
(353,286,o),
(353,146,cs),
(353,78,o),
(296,36,o),
(206,36,cs),
(138,36,o),
(91,64,o),
(51,117,cs),
(46,124,o),
(42,127,o),
(36,127,cs),
(29,127,o),
(24,119,o),
(24,108,cs)
);
},
{
closed = 1;
nodes = (
(180,681,ls),
(171,689,o),
(165,691,o),
(155,691,cs),
(122,691,ls),
(118,691,o),
(116,687,o),
(120,685,c),
(182,628,ls),
(189,622,o),
(192,619,o),
(203,619,cs),
(232,619,ls),
(243,619,o),
(246,622,o),
(252,628,cs),
(315,685,l),
(318,687,o),
(316,691,o),
(312,691,cs),
(280,691,ls),
(270,691,o),
(263,689,o),
(255,681,cs),
(218,646,l)
);
}
);
width = 437;
}
);
note = Scaron;
unicode = 352;
},
{
glyphname = scaron;
kernLeft = s;
layers = (
{
layerId = m01;
shapes = (
{
closed = 1;
nodes = (
(43,84,o),
(39,88,o),
(35,88,cs),
(29,88,o),
(25,83,o),
(25,73,cs),
(25,41,o),
(68,-11,o),
(149,-11,cs),
(233,-11,o),
(283,33,o),
(283,99,cs),
(283,214,o),
(82,198,o),
(82,271,cs),
(82,302,o),
(111,320,o),
(156,320,cs),
(193,320,o),
(222,310,o),
(252,293,c),
(253,292,o),
(256,291,o),
(257,291,cs),
(261,291,o),
(261,293,o),
(262,297,cs),
(266,312,ls),
(271,328,o),
(266,339,o),
(246,349,cs),
(221,361,o),
(193,367,o),
(156,367,cs),
(81,367,o),
(32,322,o),
(32,267,cs),
(32,155,o),
(233,170,o),
(233,94,cs),
(233,58,o),
(204,36,o),
(147,36,cs),
(93,36,o),
(63,59,o),
(44,82,c)
);
},
{
closed = 1;
nodes = (
(117,492,ls),
(108,500,o),
(102,502,o),
(92,502,cs),
(59,502,ls),
(56,502,o),
(53,498,o),
(57,496,c),
(119,439,ls),
(126,433,o),
(129,431,o),
(140,431,cs),
(169,431,ls),
(180,431,o),
(183,433,o),
(189,439,cs),
(252,496,l),
(255,498,o),
(253,502,o),
(249,502,cs),
(217,502,ls),
(207,502,o),
(201,500,o),
(192,492,cs),
(155,457,l)
);
}
);
width = 309;
}
);
note = scaron;
unicode = 353;
},
{
glyphname = Ydieresis;
kernLeft = Y;
kernRight = Y;
layers = (
{
layerId = m01;
shapes = (
{
closed = 1;
nodes = (
(187,6,ls),
(187,2,o),
(188,0,o),
(192,0,cs),
(232,0,ls),
(236,0,o),
(237,2,o),
(237,6,cs),
(237,219,l),
(417,547,ls),
(420,553,o),
(418,556,o),
(411,556,cs),
(378,556,ls),
(368,556,o),
(365,552,o),
(361,543,cs),
(214,274,l),
(83,513,ls),
(66,543,o),
(53,556,o),
(26,556,cs),
(10,556,ls),
(5,556,o),
(4,552,o),
(6,548,cs),
(187,219,l)
);
},
{
closed = 1;
nodes = (
(122,629,o),
(137,614,o),
(155,614,cs),
(174,614,o),
(189,629,o),
(189,647,cs),
(189,666,o),
(174,681,o),
(155,681,cs),
(137,681,o),
(122,666,o),
(122,647,cs)
);
},
{
closed = 1;
nodes = (
(235,629,o),
(250,614,o),
(267,614,cs),
(286,614,o),
(301,629,o),
(301,647,cs),
(301,666,o),
(286,681,o),
(267,681,cs),
(250,681,o),
(235,666,o),
(235,647,cs)
);
}
);
width = 422;
}
);
note = Ydieresis;
unicode = 376;
},
{
glyphname = Zcaron;
kernLeft = Z;
kernRight = Z;
layers = (
{
layerId = m01;
shapes = (
{
closed = 1;
nodes = (
(393,468,ls),
(403,484,o),
(407,489,o),
(407,504,cs),
(407,514,ls),
(407,548,o),
(383,556,o),
(358,556,cs),
(52,556,ls),
(48,556,o),
(47,553,o),
(47,549,cs),
(47,515,ls),
(47,511,o),
(48,509,o),
(52,509,cs),
(361,509,l),
(50,64,ls),
(40,51,o),
(39,44,o),
(39,30,cs),
(39,6,ls),
(39,2,o),
(40,0,o),
(44,0,cs),
(400,0,ls),
(406,0,o),
(407,2,o),
(407,7,cs),
(407,18,ls),
(407,37,o),
(398,47,o),
(378,47,cs),
(97,47,l)
);
},
{
closed = 1;
nodes = (
(181,681,ls),
(172,689,o),
(166,691,o),
(156,691,cs),
(123,691,ls),
(120,691,o),
(117,687,o),
(121,685,c),
(183,628,ls),
(190,622,o),
(193,619,o),
(204,619,cs),
(233,619,ls),
(244,619,o),
(247,622,o),
(253,628,cs),
(316,685,l),
(319,687,o),
(317,691,o),
(313,691,cs),
(281,691,ls),
(271,691,o),
(265,689,o),
(256,681,cs),
(219,646,l)
);
}
);
width = 448;
}
);
note = Zcaron;
unicode = 381;
},
{
glyphname = zcaron;
kernLeft = z;
kernRight = z;
layers = (
{
layerId = m01;
shapes = (
{
closed = 1;
nodes = (
(273,274,ls),
(285,289,o),
(287,297,o),
(287,315,cs),
(287,348,o),
(276,360,o),
(241,360,cs),
(44,360,ls),
(40,360,o),
(39,358,o),
(39,354,cs),
(39,321,ls),
(39,317,o),
(40,315,o),
(44,315,cs),
(247,315,l),
(48,62,ls),
(38,49,o),
(35,46,o),
(35,36,cs),
(35,6,ls),
(35,2,o),
(36,0,o),
(40,0,cs),
(279,0,ls),
(283,0,o),
(284,2,o),
(284,6,cs),
(284,39,ls),
(284,43,o),
(283,44,o),
(279,45,c),
(92,45,l)
);
},
{
closed = 1;
nodes = (
(116,492,ls),
(107,500,o),
(101,502,o),
(91,502,cs),
(58,502,ls),
(54,502,o),
(52,498,o),
(56,496,c),
(118,439,ls),
(125,433,o),
(128,431,o),
(139,431,cs),
(168,431,ls),
(179,431,o),
(182,433,o),
(188,439,cs),
(251,496,l),
(254,498,o),
(252,502,o),
(248,502,cs),
(216,502,ls),
(206,502,o),
(199,500,o),
(191,492,cs),
(154,457,l)
);
}
);
width = 323;
}
);
note = zcaron;
unicode = 382;
},
{
glyphname = florin;
layers = (
{
layerId = m01;
shapes = (
{
closed = 1;
nodes = (
(55,-71,ls),
(48,-111,o),
(28,-125,o),
(3,-125,cs),
(-20,-125,o),
(-36,-111,o),
(-46,-98,cs),
(-49,-95,o),
(-51,-94,o),
(-54,-94,cs),
(-62,-94,o),
(-64,-105,o),
(-64,-111,cs),
(-64,-134,o),
(-47,-171,o),
(2,-171,cs),
(50,-171,o),
(92,-140,o),
(104,-74,cs),
(174,315,l),
(262,315,ls),
(265,315,o),
(267,317,o),
(268,321,cs),
(274,354,ls),
(275,358,o),
(274,359,o),
(270,359,cs),
(182,359,l),
(200,461,ls),
(207,502,o),
(228,516,o),
(250,516,cs),
(274,516,o),
(289,502,o),
(299,488,c),
(302,486,o),
(304,484,o),
(307,484,cs),
(315,484,o),
(317,496,o),
(317,502,cs),
(317,524,o),
(300,562,o),
(252,562,cs),
(204,562,o),
(160,531,o),
(149,464,cs),
(131,359,l),
(68,359,ls),
(64,359,o),
(63,358,o),
(62,354,cs),
(56,321,ls),
(55,317,o),
(56,315,o),
(60,315,cs),
(123,315,l)
);
}
);
width = 347;
}
);
note = florin;
unicode = 402;
},
{
glyphname = circumflex;
layers = (
{
layerId = m01;
shapes = (
{
closed = 1;
nodes = (
(138,440,ls),
(147,432,o),
(153,431,o),
(163,431,cs),
(196,431,ls),
(200,431,o),
(202,434,o),
(199,436,c),
(136,493,ls),
(129,499,o),
(127,502,o),
(116,502,cs),
(87,502,ls),
(76,502,o),
(73,499,o),
(66,493,cs),
(3,436,l),
(0,434,o),
(2,431,o),
(6,431,cs),
(39,431,ls),
(49,431,o),
(56,432,o),
(64,440,cs),
(102,475,l)
);
}
);
width = 200;
}
);
note = circumflex;
unicode = 710;
},
{
glyphname = caron;
layers = (
{
layerId = m01;
shapes = (
{
closed = 1;
nodes = (
(64,492,ls),
(55,500,o),
(49,502,o),
(39,502,cs),
(6,502,ls),
(2,502,o),
(0,498,o),
(3,496,c),
(66,439,ls),
(73,433,o),
(76,431,o),
(87,431,cs),
(116,431,ls),
(127,431,o),
(129,433,o),
(136,439,cs),
(199,496,l),
(202,498,o),
(200,502,o),
(196,502,cs),
(163,502,ls),
(153,502,o),
(147,500,o),
(138,492,cs),
(102,457,l)
);
}
);
width = 200;
}
);
note = caron;
unicode = 711;
},
{
glyphname = breve;
layers = (
{
layerId = m01;
shapes = (
{
closed = 1;
nodes = (
(9,454,o),
(39,426,o),
(94,426,cs),
(150,426,o),
(180,454,o),
(187,493,cs),
(188,499,o),
(186,502,o),
(182,502,cs),
(153,502,ls),
(148,502,o),
(147,501,o),
(145,494,cs),
(138,474,o),
(124,461,o),
(94,461,cs),
(65,461,o),
(51,474,o),
(44,494,cs),
(42,501,o),
(41,502,o),
(36,502,cs),
(7,502,ls),
(3,502,o),
(1,499,o),
(2,493,cs)
);
}
);
width = 187;
}
);
note = breve;
unicode = 728;
},
{
glyphname = dotaccent;
layers = (
{
layerId = m01;
shapes = (
{
closed = 1;
nodes = (
(0,441,o),
(15,426,o),
(33,426,cs),
(52,426,o),
(67,441,o),
(67,459,cs),
(67,477,o),
(52,492,o),
(33,492,cs),
(15,492,o),
(0,477,o),
(0,459,cs)
);
}
);
width = 67;
}
);
note = dotaccent;
unicode = 729;
},
{
glyphname = ring;
layers = (
{
layerId = m01;
shapes = (
{
closed = 1;
nodes = (
(-1,449,o),
(29,421,o),
(64,421,cs),
(100,421,o),
(130,449,o),
(130,484,cs),
(130,520,o),
(100,548,o),
(64,548,cs),
(29,548,o),
(-1,520,o),
(-1,484,cs)
);
},
{
closed = 1;
nodes = (
(45,450,o),
(32,465,o),
(32,484,cs),
(32,504,o),
(45,519,o),
(64,519,cs),
(84,519,o),
(97,504,o),
(97,484,cs),
(97,465,o),
(84,450,o),
(64,450,cs)
);
}
);
width = 130;
}
);
note = ring;
unicode = 730;
},
{
glyphname = ogonek;
layers = (
{
layerId = m01;
shapes = (
{
closed = 1;
nodes = (
(0,-105,o),
(26,-133,o),
(70,-133,cs),
(84,-133,o),
(94,-131,o),
(107,-127,cs),
(112,-125,o),
(113,-124,o),
(113,-119,cs),
(113,-97,ls),
(113,-94,o),
(112,-92,o),
(107,-93,c),
(100,-96,o),
(89,-99,o),
(76,-99,cs),
(52,-99,o),
(39,-88,o),
(39,-66,cs),
(39,-39,o),
(61,-21,o),
(94,-3,cs),
(98,-1,o),
(97,2,o),
(93,2,cs),
(57,2,ls),
(53,2,o),
(49,2,o),
(46,0,cs),
(22,-14,o),
(0,-38,o),
(0,-71,cs)
);
}
);
width = 113;
}
);
note = ogonek;
unicode = 731;
},
{
glyphname = tilde;
layers = (
{
layerId = m01;
shapes = (
{
closed = 1;
nodes = (
(33,431,ls),
(37,431,o),
(39,432,o),
(40,438,cs),
(42,449,o),
(47,455,o),
(57,455,cs),
(78,455,o),
(109,428,o),
(140,428,cs),
(171,428,o),
(195,448,o),
(198,485,cs),
(198,489,o),
(196,491,o),
(192,491,cs),
(165,491,ls),
(161,491,o),
(158,489,o),
(156,483,cs),
(153,474,o),
(148,468,o),
(136,468,cs),
(116,468,o),
(82,495,o),
(51,495,cs),
(21,495,o),
(3,473,o),
(0,436,cs),
(0,432,o),
(2,431,o),
(6,431,cs)
);
}
);
width = 198;
}
);
note = tilde;
unicode = 732;
},
{
glyphname = hungarumlaut;
layers = (
{
layerId = m01;
shapes = (
{
closed = 1;
nodes = (
(-1,434,o),
(0,431,o),
(4,431,cs),
(34,431,ls),
(44,431,o),
(51,433,o),
(59,441,cs),
(108,496,ls),
(110,498,o),
(109,502,o),
(105,502,cs),
(66,502,ls),
(55,502,o),
(51,499,o),
(45,493,c),
(1,437,ls)
);
},
{
closed = 1;
nodes = (
(115,434,o),
(116,431,o),
(120,431,cs),
(150,431,ls),
(160,431,o),
(167,433,o),
(175,441,cs),
(225,496,ls),
(227,498,o),
(226,502,o),
(222,502,cs),
(182,502,ls),
(171,502,o),
(166,499,o),
(161,493,cs),
(117,437,ls)
);
}
);
width = 226;
}
);
note = hungarumlaut;
unicode = 733;
},
{
glyphname = uni03BC;
layers = (
{
layerId = m01;
shapes = (
{
closed = 1;
nodes = (
(133,5,o),
(165,-10,o),
(212,-10,cs),
(307,-10,o),
(364,51,o),
(364,156,cs),
(364,308,ls),
(364,340,o),
(348,359,o),
(324,359,cs),
(319,359,ls),
(315,359,o),
(314,358,o),
(314,354,cs),
(314,153,ls),
(314,73,o),
(276,36,o),
(212,36,cs),
(146,36,o),
(110,81,o),
(110,156,cs),
(110,308,ls),
(110,340,o),
(93,359,o),
(70,359,cs),
(65,359,ls),
(61,359,o),
(60,358,o),
(60,354,cs),
(60,-154,ls),
(60,-158,o),
(61,-160,o),
(65,-160,cs),
(105,-160,ls),
(109,-160,o),
(110,-158,o),
(110,-154,cs),
(110,32,l)
);
}
);
width = 424;
}
);
note = uni03BC;
unicode = 956;
},
{
glyphname = uni060C;
layers = (
{
layerId = m01;
shapes = (
{
closed = 1;
nodes = (
(97,88,o),
(108,103,o),
(116,114,cs),
(122,123,o),
(133,139,o),
(118,153,cs),
(117,154,o),
(115,156,o),
(113,154,cs),
(78,124,o),
(45,76,o),
(45,29,cs),
(45,2,o),
(64,-16,o),
(86,-16,cs),
(109,-16,o),
(127,4,o),
(127,27,cs),
(127,45,o),
(114,65,o),
(92,69,c)
);
}
);
width = 172;
}
);
note = uni060C;
unicode = 1548;
},
{
glyphname = uni061B;
layers = (
{
layerId = m01;
shapes = (
{
closed = 1;
nodes = (
(112,188,o),
(130,207,o),
(130,230,cs),
(130,248,o),
(117,268,o),
(95,272,c),
(100,292,o),
(111,307,o),
(119,317,cs),
(125,326,o),
(136,343,o),
(121,356,c),
(120,358,o),
(118,359,o),
(116,357,cs),
(81,328,o),
(48,279,o),
(48,232,cs),
(48,206,o),
(67,188,o),
(89,188,cs)
);
},
{
closed = 1;
nodes = (
(67,69,o),
(48,49,o),
(48,27,cs),
(48,3,o),
(67,-16,o),
(89,-16,cs),
(112,-16,o),
(130,3,o),
(130,27,cs),
(130,49,o),
(112,69,o),
(89,69,cs)
);
}
);
width = 178;
}
);
note = uni061B;
unicode = 1563;
},
{
glyphname = uni061F;
layers = (
{
layerId = m01;
shapes = (
{
closed = 1;
nodes = (
(256,132,o),
(259,136,o),
(259,140,cs),
(259,214,ls),
(259,313,o),
(116,318,o),
(113,414,cs),
(111,496,o),
(178,512,o),
(212,512,cs),
(248,512,o),
(274,501,o),
(294,492,c),
(298,489,o),
(303,488,o),
(306,488,cs),
(313,488,o),
(317,494,o),
(315,502,cs),
(311,529,o),
(263,559,o),
(209,559,cs),
(127,559,o),
(60,511,o),
(62,416,cs),
(63,288,o),
(208,289,o),
(208,208,cs),
(208,140,ls),
(208,136,o),
(212,132,o),
(216,132,cs),
(252,132,ls)
);
},
{
closed = 1;
nodes = (
(212,69,o),
(194,49,o),
(194,27,cs),
(194,3,o),
(212,-16,o),
(235,-16,cs),
(258,-16,o),
(276,3,o),
(276,27,cs),
(276,49,o),
(258,69,o),
(235,69,cs)
);
}
);
width = 368;
}
);
note = uni061F;
unicode = 1567;
},
{
glyphname = uni0621;
layers = (
{
layerId = m01;
shapes = (
{
closed = 1;
nodes = (
(174,46,o),
(136,111,o),
(136,170,cs),
(136,250,o),
(186,296,o),
(252,296,cs),
(286,296,o),
(310,287,o),
(331,276,cs),
(335,274,o),
(338,273,o),
(342,273,cs),
(349,273,o),
(351,280,o),
(351,286,cs),
(351,298,o),
(339,311,o),
(328,319,cs),
(310,332,o),
(284,341,o),
(250,341,cs),
(160,341,o),
(87,281,o),
(87,171,cs),
(87,124,o),
(104,77,o),
(143,44,c),
(123,43,o),
(105,39,o),
(91,31,cs),
(68,20,o),
(55,0,o),
(57,-19,c),
(58,-22,o),
(61,-26,o),
(64,-26,cs),
(68,-26,o),
(71,-24,o),
(74,-22,cs),
(98,-3,o),
(126,0,o),
(160,0,cs),
(384,0,ls),
(389,0,o),
(391,1,o),
(391,7,cs),
(391,11,ls),
(391,28,o),
(376,46,o),
(347,46,cs),
(254,46,ls)
);
}
);
width = 444;
}
);
note = uni0621;
unicode = 1569;
},
{
glyphname = uni0622;
layers = (
{
layerId = m01;
shapes = (
{
closed = 1;
nodes = (
(124,634,o),
(74,663,o),
(55,663,cs),
(47,663,o),
(40,658,o),
(35,651,cs),
(31,645,o),
(29,641,o),
(26,637,cs),
(24,634,o),
(19,634,o),
(17,637,cs),
(13,644,o),
(12,653,o),
(13,661,cs),
(16,681,o),
(28,696,o),
(50,696,cs),
(79,696,o),
(129,668,o),
(148,668,cs),
(156,668,o),
(163,673,o),
(168,680,cs),
(172,686,o),
(174,690,o),
(177,694,cs),
(179,697,o),
(184,696,o),
(186,693,cs),
(190,687,o),
(191,678,o),
(190,669,cs),
(187,650,o),
(175,634,o),
(153,634,cs)
);
},
{
closed = 1;
nodes = (
(105,0,o),
(121,20,o),
(121,51,cs),
(121,550,ls),
(121,554,o),
(120,556,o),
(116,556,cs),
(111,556,ls),
(88,556,o),
(70,536,o),
(70,504,cs),
(70,6,ls),
(70,2,o),
(72,0,o),
(76,0,cs),
(81,0,ls)
);
}
);
width = 191;
}
);
note = uni0622;
unicode = 1570;
},
{
glyphname = uni0623;
layers = (
{
layerId = m01;
shapes = (
{
closed = 1;
nodes = (
(84,672,o),
(68,689,o),
(68,714,cs),
(68,738,o),
(85,754,o),
(108,754,cs),
(118,754,o),
(128,751,o),
(140,743,c),
(143,742,o),
(148,739,o),
(151,739,cs),
(155,739,o),
(156,744,o),
(155,747,c),
(154,766,o),
(133,788,o),
(100,788,cs),
(58,788,o),
(30,756,o),
(30,714,cs),
(30,694,o),
(38,679,o),
(45,669,c),
(27,666,o),
(16,654,o),
(16,639,cs),
(16,633,o),
(17,627,o),
(22,627,cs),
(23,627,o),
(28,629,o),
(32,631,c),
(52,637,o),
(65,638,o),
(88,638,cs),
(170,638,ls),
(175,638,o),
(177,639,o),
(177,644,cs),
(177,647,ls),
(177,662,o),
(166,672,o),
(150,672,cs),
(105,672,ls)
);
},
{
closed = 1;
nodes = (
(87,556,o),
(70,536,o),
(70,504,cs),
(70,6,ls),
(70,2,o),
(72,0,o),
(75,0,cs),
(80,0,ls),
(105,0,o),
(121,20,o),
(121,51,cs),
(121,550,ls),
(121,554,o),
(120,556,o),
(116,556,cs),
(111,556,ls)
);
}
);
width = 191;
}
);
note = uni0623;
unicode = 1571;
},
{
glyphname = uni0624;
layers = (
{
layerId = m01;
shapes = (
{
closed = 1;
nodes = (
(149,441,o),
(154,443,o),
(158,444,cs),
(178,451,o),
(191,452,o),
(214,452,cs),
(297,452,ls),
(302,452,o),
(303,453,o),
(303,457,cs),
(303,460,ls),
(303,475,o),
(292,486,o),
(276,486,cs),
(232,486,ls),
(211,486,o),
(194,502,o),
(194,527,cs),
(194,551,o),
(211,567,o),
(234,567,cs),
(244,567,o),
(254,564,o),
(267,557,cs),
(269,556,o),
(274,552,o),
(277,552,cs),
(282,552,o),
(282,557,o),
(282,560,cs),
(280,579,o),
(259,601,o),
(226,601,cs),
(184,601,o),
(157,569,o),
(157,528,cs),
(157,507,o),
(164,492,o),
(171,482,c),
(153,479,o),
(142,467,o),
(142,453,cs),
(142,447,o),
(143,441,o),
(148,441,cs)
);
},
{
closed = 1;
nodes = (
(341,331,o),
(296,368,o),
(223,368,cs),
(129,368,o),
(60,295,o),
(60,178,cs),
(60,73,o),
(121,-8,o),
(221,-9,cs),
(263,-11,o),
(301,1,o),
(338,21,c),
(335,-65,o),
(311,-137,o),
(247,-159,cs),
(232,-165,o),
(211,-167,o),
(191,-167,cs),
(159,-167,o),
(133,-162,o),
(102,-151,cs),
(99,-150,o),
(95,-149,o),
(92,-149,cs),
(85,-149,o),
(81,-152,o),
(81,-158,c),
(81,-158,o),
(82,-159,o),
(82,-161,cs),
(84,-172,o),
(92,-180,o),
(106,-189,cs),
(131,-204,o),
(161,-214,o),
(206,-214,cs),
(271,-214,o),
(326,-185,o),
(354,-132,cs),
(389,-66,o),
(391,13,o),
(391,113,cs),
(390,171,o),
(383,233,o),
(366,272,cs)
);
},
{
closed = 1;
nodes = (
(154,38,o),
(112,99,o),
(112,179,cs),
(112,263,o),
(158,321,o),
(224,321,cs),
(271,321,o),
(299,295,o),
(317,256,cs),
(332,222,o),
(339,159,o),
(339,109,cs),
(339,97,o),
(338,85,o),
(338,74,c),
(306,49,o),
(268,38,o),
(224,38,cs)
);
}
);
width = 451;
}
);
note = uni0624;
unicode = 1572;
},
{
glyphname = uni0625;
layers = (
{
layerId = m01;
shapes = (
{
closed = 1;
nodes = (
(105,0,o),
(121,20,o),
(121,51,cs),
(121,550,ls),
(121,554,o),
(120,556,o),
(116,556,cs),
(111,556,ls),
(87,556,o),
(70,536,o),
(70,504,cs),
(70,6,ls),
(70,2,o),
(71,0,o),
(75,0,cs),
(80,0,ls)
);
},
{
closed = 1;
nodes = (
(82,-191,o),
(66,-174,o),
(66,-149,cs),
(66,-125,o),
(83,-109,o),
(106,-109,cs),
(116,-109,o),
(126,-112,o),
(138,-119,cs),
(141,-121,o),
(146,-124,o),
(149,-124,cs),
(153,-124,o),
(154,-119,o),
(153,-116,c),
(152,-97,o),
(131,-75,o),
(98,-75,cs),
(56,-75,o),
(28,-107,o),
(28,-148,cs),
(28,-169,o),
(36,-184,o),
(43,-194,c),
(25,-197,o),
(14,-209,o),
(14,-223,cs),
(14,-229,o),
(15,-236,o),
(20,-236,cs),
(21,-236,o),
(26,-233,o),
(30,-232,cs),
(50,-226,o),
(63,-224,o),
(86,-224,cs),
(168,-224,ls),
(173,-224,o),
(175,-223,o),
(175,-219,cs),
(175,-216,ls),
(175,-201,o),
(164,-191,o),
(148,-191,cs),
(103,-191,ls)
);
}
);
width = 191;
}
);
note = uni0625;
unicode = 1573;
},
{
glyphname = uni0626;
layers = (
{
layerId = m01;
shapes = (
{
closed = 1;
nodes = (
(67,304,o),
(72,306,o),
(76,307,cs),
(96,314,o),
(109,315,o),
(132,315,cs),
(214,315,ls),
(219,315,o),
(221,316,o),
(221,321,cs),
(221,323,ls),
(221,338,o),
(210,349,o),
(194,349,cs),
(149,349,ls),
(128,349,o),
(112,366,o),
(112,391,cs),
(112,414,o),
(129,431,o),
(152,431,cs),
(162,431,o),
(172,427,o),
(184,420,c),
(187,419,o),
(192,416,o),
(195,416,cs),
(199,416,o),
(200,421,o),
(199,423,c),
(198,443,o),
(177,464,o),
(144,464,cs),
(102,464,o),
(74,432,o),
(74,391,cs),
(74,371,o),
(82,356,o),
(89,346,c),
(71,342,o),
(60,331,o),
(60,316,cs),
(60,310,o),
(61,304,o),
(66,304,cs)
);
},
{
closed = 1;
nodes = (
(388,102,o),
(329,139,o),
(329,201,cs),
(329,281,o),
(391,321,o),
(457,321,cs),
(503,321,o),
(531,309,o),
(549,298,cs),
(553,296,o),
(557,294,o),
(560,294,cs),
(567,294,o),
(570,301,o),
(570,308,cs),
(570,322,o),
(559,334,o),
(547,343,cs),
(528,357,o),
(500,368,o),
(451,368,cs),
(362,368,o),
(278,311,o),
(278,201,cs),
(278,116,o),
(346,65,o),
(418,47,cs),
(486,31,o),
(561,32,o),
(552,-16,cs),
(535,-108,o),
(438,-167,o),
(333,-167,cs),
(212,-167,o),
(111,-88,o),
(109,45,c),
(111,94,o),
(115,145,o),
(161,210,c),
(163,214,o),
(164,217,o),
(164,219,cs),
(164,226,o),
(158,231,o),
(152,231,cs),
(148,231,o),
(143,228,o),
(139,224,c),
(91,187,o),
(60,111,o),
(60,34,cs),
(61,-104,o),
(169,-215,o),
(333,-215,cs),
(481,-215,o),
(591,-128,o),
(606,-7,cs),
(614,63,o),
(531,73,o),
(443,91,cs)
);
}
);
width = 663;
}
);
note = uni0626;
unicode = 1574;
},
{
glyphname = uni0627;
layers = (
{
layerId = m01;
shapes = (
{
closed = 1;
nodes = (
(105,0,o),
(121,20,o),
(121,51,cs),
(121,550,ls),
(121,554,o),
(120,556,o),
(116,556,cs),
(111,556,ls),
(87,556,o),
(70,536,o),
(70,504,cs),
(70,6,ls),
(70,2,o),
(72,0,o),
(76,0,cs),
(81,0,ls)
);
}
);
width = 191;
}
);
note = uni0627;
unicode = 1575;
},
{
glyphname = uni0628;
layers = (
{
layerId = m01;
shapes = (
{
closed = 1;
nodes = (
(624,0,o),
(682,56,o),
(682,155,cs),
(682,344,ls),
(682,348,o),
(680,349,o),
(676,349,cs),
(671,349,ls),
(647,349,o),
(631,331,o),
(631,299,cs),
(631,156,ls),
(631,93,o),
(599,49,o),
(539,49,cs),
(247,49,ls),
(172,49,o),
(105,74,o),
(105,162,cs),
(105,201,o),
(120,237,o),
(154,277,cs),
(156,280,o),
(158,284,o),
(158,288,cs),
(158,293,o),
(154,298,o),
(147,298,cs),
(142,298,o),
(137,295,o),
(132,292,cs),
(84,256,o),
(60,199,o),
(60,152,cs),
(60,42,o),
(137,0,o),
(245,0,cs),
(537,0,ls)
);
},
{
closed = 1;
nodes = (
(356,-74,o),
(339,-91,o),
(339,-112,cs),
(339,-133,o),
(356,-150,o),
(376,-150,cs),
(397,-150,o),
(413,-133,o),
(413,-112,cs),
(413,-91,o),
(397,-74,o),
(376,-74,cs)
);
}
);
width = 752;
}
);
note = uni0628;
unicode = 1576;
},
{
glyphname = uni0629;
layers = (
{
layerId = m01;
shapes = (
{
closed = 1;
nodes = (
(157,513,o),
(172,528,o),
(172,548,cs),
(172,568,o),
(157,583,o),
(137,583,cs),
(118,583,o),
(103,568,o),
(103,548,cs),
(103,528,o),
(118,513,o),
(137,513,cs)
);
},
{
closed = 1;
nodes = (
(254,513,o),
(269,528,o),
(269,548,cs),
(269,568,o),
(254,583,o),
(235,583,cs),
(216,583,o),
(201,568,o),
(201,548,cs),
(201,528,o),
(216,513,o),
(235,513,cs)
);
},
{
closed = 1;
nodes = (
(293,345,ls),
(258,373,o),
(229,388,o),
(207,436,cs),
(204,441,o),
(203,443,o),
(199,442,cs),
(197,442,o),
(196,441,o),
(193,440,c),
(177,431,o),
(169,412,o),
(180,388,cs),
(187,376,o),
(193,368,o),
(202,359,c),
(96,318,o),
(60,239,o),
(60,168,cs),
(60,58,o),
(130,-9,o),
(225,-9,cs),
(326,-9,o),
(391,64,o),
(391,168,cs),
(391,231,o),
(367,280,o),
(311,330,cs)
);
},
{
closed = 1;
nodes = (
(163,38,o),
(112,90,o),
(113,166,cs),
(113,227,o),
(139,287,o),
(236,324,c),
(265,300,o),
(276,292,o),
(295,271,cs),
(328,236,o),
(337,201,o),
(338,171,cs),
(339,89,o),
(288,38,o),
(225,38,cs)
);
}
);
width = 451;
}
);
note = uni0629;
unicode = 1577;
},
{
glyphname = uni062A;
layers = (
{
layerId = m01;
shapes = (
{
closed = 1;
nodes = (
(349,371,o),
(364,386,o),
(364,406,cs),
(364,426,o),
(349,441,o),
(330,441,cs),
(311,441,o),
(296,426,o),
(296,406,cs),
(296,386,o),
(311,371,o),
(330,371,cs)
);
},
{
closed = 1;
nodes = (
(447,371,o),
(462,386,o),
(462,406,cs),
(462,426,o),
(447,441,o),
(428,441,cs),
(409,441,o),
(394,426,o),
(394,406,cs),
(394,386,o),
(409,371,o),
(428,371,cs)
);
},
{
closed = 1;
nodes = (
(624,0,o),
(682,56,o),
(682,155,cs),
(682,344,ls),
(682,348,o),
(680,349,o),
(676,349,cs),
(671,349,ls),
(647,349,o),
(631,331,o),
(631,299,cs),
(631,156,ls),
(631,93,o),
(599,49,o),
(539,49,cs),
(247,49,ls),
(172,49,o),
(105,74,o),
(105,162,cs),
(105,201,o),
(120,237,o),
(154,277,cs),
(156,280,o),
(158,284,o),
(158,288,cs),
(158,293,o),
(154,298,o),
(147,298,cs),
(142,298,o),
(137,295,o),
(132,292,cs),
(84,256,o),
(60,199,o),
(60,152,cs),
(60,42,o),
(137,0,o),
(245,0,cs),
(537,0,ls)
);
}
);
width = 752;
}
);
note = uni062A;
unicode = 1578;
},
{
glyphname = uni062B;
layers = (
{
layerId = m01;
shapes = (
{
closed = 1;
nodes = (
(398,451,o),
(413,467,o),
(413,487,cs),
(413,506,o),
(398,521,o),
(379,521,cs),
(360,521,o),
(345,506,o),
(345,487,cs),
(345,467,o),
(360,451,o),
(379,451,cs)
);
},
{
closed = 1;
nodes = (
(349,370,o),
(364,386,o),
(364,406,cs),
(364,425,o),
(349,440,o),
(330,440,cs),
(311,440,o),
(296,425,o),
(296,406,cs),
(296,386,o),
(311,370,o),
(330,370,cs)
);
},
{
closed = 1;
nodes = (
(447,370,o),
(462,386,o),
(462,406,cs),
(462,425,o),
(447,440,o),
(428,440,cs),
(409,440,o),
(394,425,o),
(394,406,cs),
(394,386,o),
(409,370,o),
(428,370,cs)
);
},
{
closed = 1;
nodes = (
(624,0,o),
(682,56,o),
(682,155,cs),
(682,344,ls),
(682,348,o),
(680,349,o),
(676,349,cs),
(671,349,ls),
(647,349,o),
(631,331,o),
(631,299,cs),
(631,156,ls),
(631,93,o),
(599,49,o),
(539,49,cs),
(247,49,ls),
(172,49,o),
(105,74,o),
(105,162,cs),
(105,201,o),
(120,237,o),
(154,277,cs),
(156,280,o),
(158,284,o),
(158,288,cs),
(158,293,o),
(154,298,o),
(147,298,cs),
(142,298,o),
(137,295,o),
(132,292,cs),
(84,256,o),
(60,199,o),
(60,152,cs),
(60,42,o),
(137,0,o),
(245,0,cs),
(537,0,ls)
);
}
);
width = 752;
}
);
note = uni062B;
unicode = 1579;
},
{
glyphname = uni062C;
layers = (
{
layerId = m01;
shapes = (
{
closed = 1;
nodes = (
(114,-214,o),
(164,-281,o),
(269,-284,cs),
(306,-285,o),
(336,-283,o),
(372,-271,cs),
(393,-264,o),
(415,-254,o),
(438,-241,cs),
(442,-239,o),
(446,-238,o),
(449,-238,cs),
(454,-238,o),
(458,-242,o),
(458,-247,cs),
(458,-253,o),
(456,-258,o),
(453,-261,c),
(440,-280,o),
(413,-299,o),
(388,-310,cs),
(351,-326,o),
(316,-332,o),
(264,-331,cs),
(131,-328,o),
(60,-241,o),
(60,-141,cs),
(60,-38,o),
(134,49,o),
(266,49,cs),
(466,49,l),
(442,68,o),
(427,116,o),
(403,197,cs),
(381,273,o),
(339,321,o),
(267,321,cs),
(223,321,o),
(191,304,o),
(160,281,cs),
(152,275,o),
(144,267,o),
(136,261,cs),
(131,257,o),
(128,257,o),
(125,257,cs),
(119,257,o),
(114,260,o),
(114,268,cs),
(114,275,o),
(118,279,o),
(119,282,c),
(135,307,o),
(157,328,o),
(179,342,cs),
(206,358,o),
(233,368,o),
(274,368,cs),
(370,368,o),
(428,306,o),
(457,204,cs),
(475,132,o),
(491,91,o),
(516,64,cs),
(525,54,o),
(539,49,o),
(555,49,cs),
(559,49,o),
(560,48,o),
(560,44,cs),
(560,17,o),
(543,0,o),
(512,0,cs),
(266,0,ls),
(167,0,o),
(114,-69,o),
(114,-142,cs)
);
},
{
closed = 1;
nodes = (
(278,-101,o),
(262,-117,o),
(262,-138,cs),
(262,-159,o),
(278,-176,o),
(298,-176,cs),
(319,-176,o),
(335,-159,o),
(335,-138,cs),
(335,-117,o),
(319,-101,o),
(298,-101,cs)
);
}
);
width = 610;
}
);
note = uni062C;
unicode = 1580;
},
{
glyphname = uni062D;
layers = (
{
layerId = m01;
shapes = (
{
closed = 1;
nodes = (
(114,-214,o),
(164,-281,o),
(269,-284,cs),
(306,-285,o),
(336,-283,o),
(372,-271,cs),
(393,-264,o),
(415,-254,o),
(438,-241,cs),
(442,-239,o),
(446,-238,o),
(449,-238,cs),
(454,-238,o),
(458,-242,o),
(458,-247,cs),
(458,-253,o),
(456,-258,o),
(453,-261,c),
(440,-280,o),
(413,-299,o),
(388,-310,cs),
(351,-326,o),
(316,-332,o),
(264,-331,cs),
(131,-328,o),
(60,-241,o),
(60,-141,cs),
(60,-38,o),
(134,49,o),
(266,49,cs),
(466,49,l),
(442,68,o),
(427,116,o),
(403,197,cs),
(381,273,o),
(339,321,o),
(267,321,cs),
(223,321,o),
(191,304,o),
(160,281,cs),
(152,275,o),
(144,267,o),
(136,261,cs),
(131,257,o),
(128,257,o),
(125,257,cs),
(119,257,o),
(114,260,o),
(114,268,cs),
(114,275,o),
(118,279,o),
(119,282,c),
(135,307,o),
(157,328,o),
(179,342,cs),
(206,358,o),
(233,368,o),
(274,368,cs),
(370,368,o),
(428,306,o),
(457,204,cs),
(475,132,o),
(491,91,o),
(516,64,cs),
(525,54,o),
(539,49,o),
(555,49,cs),
(559,49,o),
(560,48,o),
(560,44,cs),
(560,17,o),
(543,0,o),
(512,0,cs),
(266,0,ls),
(167,0,o),
(114,-69,o),
(114,-142,cs)
);
}
);
width = 610;
}
);
note = uni062D;
unicode = 1581;
},
{
glyphname = uni062E;
layers = (
{
layerId = m01;
shapes = (
{
closed = 1;
nodes = (
(254,524,o),
(238,508,o),
(238,487,cs),
(238,466,o),
(254,448,o),
(275,448,cs),
(296,448,o),
(312,466,o),
(312,487,cs),
(312,508,o),
(296,524,o),
(275,524,cs)
);
},
{
closed = 1;
nodes = (
(114,-214,o),
(164,-281,o),
(269,-284,cs),
(306,-285,o),
(336,-283,o),
(372,-271,cs),
(393,-264,o),
(415,-254,o),
(438,-241,cs),
(442,-239,o),
(446,-238,o),
(449,-238,cs),
(454,-238,o),
(458,-242,o),
(458,-247,cs),
(458,-253,o),
(456,-258,o),
(453,-261,c),
(440,-280,o),
(413,-299,o),
(388,-310,cs),
(351,-326,o),
(316,-332,o),
(264,-331,cs),
(131,-328,o),
(60,-241,o),
(60,-141,cs),
(60,-38,o),
(134,49,o),
(266,49,cs),
(466,49,l),
(442,68,o),
(427,116,o),
(403,197,cs),
(381,273,o),
(339,321,o),
(267,321,cs),
(223,321,o),
(191,304,o),
(160,281,cs),
(152,275,o),
(144,267,o),
(136,261,cs),
(131,257,o),
(128,257,o),
(125,257,cs),
(119,257,o),
(114,260,o),
(114,268,cs),
(114,275,o),
(118,279,o),
(119,282,c),
(135,307,o),
(157,328,o),
(179,342,cs),
(206,358,o),
(233,368,o),
(274,368,cs),
(370,368,o),
(428,306,o),
(457,204,cs),
(475,132,o),
(491,91,o),
(516,64,cs),
(525,54,o),
(539,49,o),
(555,49,cs),
(559,49,o),
(560,48,o),
(560,44,cs),
(560,17,o),
(543,0,o),
(512,0,cs),
(266,0,ls),
(167,0,o),
(114,-69,o),
(114,-142,cs)
);
}
);
width = 610;
}
);
note = uni062E;
unicode = 1582;
},
{
glyphname = uni062F;
layers = (
{
layerId = m01;
shapes = (
{
closed = 1;
nodes = (
(288,0,o),
(353,64,o),
(353,174,cs),
(353,287,o),
(301,368,o),
(205,368,cs),
(172,368,o),
(143,356,o),
(125,339,cs),
(115,331,o),
(109,321,o),
(109,313,cs),
(109,307,o),
(112,303,o),
(119,303,cs),
(123,303,o),
(126,305,o),
(130,307,cs),
(149,315,o),
(168,322,o),
(195,321,cs),
(265,321,o),
(302,265,o),
(302,176,cs),
(302,98,o),
(260,49,o),
(195,49,cs),
(101,49,ls),
(70,49,o),
(54,30,o),
(54,11,cs),
(54,7,ls),
(54,1,o),
(56,0,o),
(62,0,cs),
(197,0,ls)
);
}
);
width = 414;
}
);
note = uni062F;
unicode = 1583;
},
{
glyphname = uni0630;
layers = (
{
layerId = m01;
shapes = (
{
closed = 1;
nodes = (
(124,511,o),
(108,494,o),
(108,473,cs),
(108,452,o),
(124,435,o),
(145,435,cs),
(166,435,o),
(182,452,o),
(182,473,cs),
(182,494,o),
(166,511,o),
(145,511,cs)
);
},
{
closed = 1;
nodes = (
(288,0,o),
(353,64,o),
(353,174,cs),
(353,287,o),
(301,368,o),
(205,368,cs),
(172,368,o),
(143,356,o),
(125,339,cs),
(115,331,o),
(109,321,o),
(109,313,cs),
(109,307,o),
(112,303,o),
(119,303,cs),
(123,303,o),
(126,305,o),
(130,307,cs),
(149,315,o),
(168,322,o),
(195,321,cs),
(265,321,o),
(302,265,o),
(302,176,cs),
(302,98,o),
(260,49,o),
(195,49,cs),
(101,49,ls),
(70,49,o),
(54,30,o),
(54,11,cs),
(54,7,ls),
(54,1,o),
(56,0,o),
(62,0,cs),
(197,0,ls)
);
}
);
width = 414;
}
);
note = uni0630;
unicode = 1584;
},
{
glyphname = uni0631;
layers = (
{
layerId = m01;
shapes = (
{
closed = 1;
nodes = (
(-15,-167,o),
(-34,-162,o),
(-63,-151,cs),
(-67,-150,o),
(-70,-149,o),
(-74,-149,cs),
(-82,-149,o),
(-86,-154,o),
(-84,-161,cs),
(-82,-171,o),
(-73,-181,o),
(-60,-189,cs),
(-35,-204,o),
(-8,-214,o),
(23,-214,cs),
(135,-215,o),
(178,-128,o),
(178,2,cs),
(178,344,ls),
(178,348,o),
(177,349,o),
(173,349,cs),
(168,349,ls),
(142,349,o),
(127,329,o),
(127,299,cs),
(127,-13,ls),
(127,-104,o),
(95,-165,o),
(17,-167,cs)
);
}
);
width = 247;
}
);
note = uni0631;
unicode = 1585;
},
{
glyphname = uni0632;
layers = (
{
layerId = m01;
shapes = (
{
closed = 1;
nodes = (
(134,496,o),
(118,479,o),
(118,458,cs),
(118,437,o),
(134,420,o),
(155,420,cs),
(176,420,o),
(192,437,o),
(192,458,cs),
(192,479,o),
(176,496,o),
(155,496,cs)
);
},
{
closed = 1;
nodes = (
(-15,-167,o),
(-34,-162,o),
(-63,-151,cs),
(-67,-150,o),
(-70,-149,o),
(-74,-149,cs),
(-82,-149,o),
(-86,-154,o),
(-84,-161,cs),
(-82,-171,o),
(-73,-181,o),
(-60,-189,cs),
(-35,-204,o),
(-8,-214,o),
(23,-214,cs),
(135,-215,o),
(178,-128,o),
(178,2,cs),
(178,344,ls),
(178,348,o),
(177,349,o),
(173,349,cs),
(168,349,ls),
(142,349,o),
(127,329,o),
(127,299,cs),
(127,-13,ls),
(127,-104,o),
(95,-165,o),
(17,-167,cs)
);
}
);
width = 247;
}
);
note = uni0632;
unicode = 1586;
},
{
glyphname = uni0633;
layers = (
{
layerId = m01;
shapes = (
{
closed = 1;
nodes = (
(973,349,o),
(956,329,o),
(956,298,cs),
(956,146,ls),
(956,82,o),
(925,38,o),
(864,38,cs),
(803,38,o),
(773,87,o),
(773,151,cs),
(773,324,ls),
(773,327,o),
(771,329,o),
(767,329,cs),
(762,329,ls),
(738,329,o),
(722,310,o),
(722,278,cs),
(722,146,ls),
(722,82,o),
(690,38,o),
(629,38,cs),
(569,38,o),
(538,87,o),
(538,151,cs),
(538,303,ls),
(538,307,o),
(537,308,o),
(533,308,cs),
(528,308,ls),
(503,308,o),
(487,289,o),
(487,258,cs),
(487,46,ls),
(487,-107,o),
(382,-167,o),
(299,-167,cs),
(212,-167,o),
(108,-107,o),
(111,46,cs),
(112,95,o),
(118,146,o),
(164,211,cs),
(166,214,o),
(167,217,o),
(167,219,cs),
(168,227,o),
(162,231,o),
(156,231,cs),
(151,231,o),
(146,228,o),
(142,225,cs),
(94,187,o),
(61,111,o),
(61,34,cs),
(60,-129,o),
(173,-214,o),
(299,-214,cs),
(422,-214,o),
(528,-135,o),
(538,20,c),
(562,1,o),
(594,-9,o),
(630,-9,cs),
(679,-9,o),
(723,10,o),
(748,48,c),
(772,10,o),
(815,-9,o),
(864,-9,cs),
(951,-9,o),
(1007,46,o),
(1007,146,cs),
(1007,344,ls),
(1007,348,o),
(1006,349,o),
(1002,349,cs),
(997,349,ls)
);
}
);
width = 1076;
}
);
note = uni0633;
unicode = 1587;
},
{
glyphname = uni0634;
layers = (
{
layerId = m01;
shapes = (
{
closed = 1;
nodes = (
(767,482,o),
(782,497,o),
(782,517,cs),
(782,537,o),
(767,552,o),
(748,552,cs),
(729,552,o),
(714,537,o),
(714,517,cs),
(714,497,o),
(729,482,o),
(748,482,cs)
);
},
{
closed = 1;
nodes = (
(718,401,o),
(733,416,o),
(733,436,cs),
(733,456,o),
(718,471,o),
(699,471,cs),
(680,471,o),
(665,456,o),
(665,436,cs),
(665,416,o),
(680,401,o),
(699,401,cs)
);
},
{
closed = 1;
nodes = (
(763,416,o),
(778,401,o),
(797,401,cs),
(816,401,o),
(831,416,o),
(831,436,cs),
(831,456,o),
(816,471,o),
(797,471,cs),
(778,471,o),
(763,456,o),
(763,436,cs)
);
},
{
closed = 1;
nodes = (
(973,349,o),
(956,329,o),
(956,298,cs),
(956,146,ls),
(956,82,o),
(925,38,o),
(864,38,cs),
(803,38,o),
(773,87,o),
(773,151,cs),
(773,324,ls),
(773,327,o),
(771,329,o),
(767,329,cs),
(762,329,ls),
(738,329,o),
(722,310,o),
(722,278,cs),
(722,146,ls),
(722,82,o),
(690,38,o),
(629,38,cs),
(569,38,o),
(538,87,o),
(538,151,cs),
(538,303,ls),
(538,307,o),
(537,308,o),
(533,308,cs),
(528,308,ls),
(503,308,o),
(487,289,o),
(487,258,cs),
(487,46,ls),
(487,-107,o),
(382,-167,o),
(299,-167,cs),
(212,-167,o),
(108,-107,o),
(111,46,cs),
(112,95,o),
(118,146,o),
(164,211,cs),
(166,214,o),
(167,217,o),
(167,219,cs),
(168,227,o),
(162,231,o),
(156,231,cs),
(151,231,o),
(146,228,o),
(142,225,cs),
(94,187,o),
(61,111,o),
(61,34,cs),
(60,-129,o),
(173,-214,o),
(299,-214,cs),
(422,-214,o),
(528,-135,o),
(538,20,c),
(562,1,o),
(594,-9,o),
(630,-9,cs),
(679,-9,o),
(723,10,o),
(748,48,c),
(772,10,o),
(815,-9,o),
(864,-9,cs),
(951,-9,o),
(1007,46,o),
(1007,146,cs),
(1007,344,ls),
(1007,348,o),
(1006,349,o),
(1002,349,cs),
(997,349,ls)
);
}
);
width = 1076;
}
);
note = uni0634;
unicode = 1588;
},
{
glyphname = uni0635;
layers = (
{
layerId = m01;
shapes = (
{
closed = 1;
nodes = (
(808,368,o),
(689,217,o),
(649,49,c),
(647,49,ls),
(590,49,o),
(555,89,o),
(555,155,cs),
(555,344,ls),
(555,347,o),
(554,349,o),
(550,349,cs),
(545,349,ls),
(521,349,o),
(504,329,o),
(504,298,cs),
(504,46,ls),
(504,-107,o),
(399,-167,o),
(316,-167,cs),
(229,-167,o),
(125,-107,o),
(128,46,cs),
(129,95,o),
(135,146,o),
(181,211,cs),
(183,214,o),
(184,217,o),
(184,219,cs),
(185,227,o),
(179,231,o),
(173,231,cs),
(168,231,o),
(163,228,o),
(159,225,cs),
(111,187,o),
(78,111,o),
(78,34,cs),
(77,-129,o),
(190,-214,o),
(316,-214,cs),
(441,-214,o),
(550,-132,o),
(555,30,c),
(579,10,o),
(611,0,o),
(649,0,cs),
(1025,0,ls),
(1114,0,o),
(1186,65,o),
(1186,177,cs),
(1186,301,o),
(1096,368,o),
(989,368,cs)
);
},
{
closed = 1;
nodes = (
(739,195,o),
(843,321,o),
(988,321,cs),
(1062,321,o),
(1133,278,o),
(1134,178,cs),
(1135,105,o),
(1089,49,o),
(1020,49,cs),
(705,49,l)
);
}
);
width = 1245;
}
);
note = uni0635;
unicode = 1589;
},
{
glyphname = uni0636;
layers = (
{
layerId = m01;
shapes = (
{
closed = 1;
nodes = (
(987,446,o),
(1003,463,o),
(1003,484,cs),
(1003,505,o),
(987,522,o),
(966,522,cs),
(945,522,o),
(929,505,o),
(929,484,cs),
(929,463,o),
(945,446,o),
(966,446,cs)
);
},
{
closed = 1;
nodes = (
(808,368,o),
(689,217,o),
(649,49,c),
(647,49,ls),
(590,49,o),
(555,89,o),
(555,155,cs),
(555,344,ls),
(555,347,o),
(554,349,o),
(550,349,cs),
(545,349,ls),
(521,349,o),
(504,329,o),
(504,298,cs),
(504,46,ls),
(504,-107,o),
(399,-167,o),
(316,-167,cs),
(229,-167,o),
(125,-107,o),
(128,46,cs),
(129,95,o),
(135,146,o),
(181,211,cs),
(183,214,o),
(184,217,o),
(184,219,cs),
(185,227,o),
(179,231,o),
(173,231,cs),
(168,231,o),
(163,228,o),
(159,225,cs),
(111,187,o),
(78,111,o),
(78,34,cs),
(77,-129,o),
(190,-214,o),
(316,-214,cs),
(441,-214,o),
(550,-132,o),
(555,30,c),
(579,10,o),
(611,0,o),
(649,0,cs),
(1025,0,ls),
(1114,0,o),
(1186,65,o),
(1186,177,cs),
(1186,301,o),
(1096,368,o),
(989,368,cs)
);
},
{
closed = 1;
nodes = (
(739,195,o),
(843,321,o),
(988,321,cs),
(1062,321,o),
(1133,278,o),
(1134,178,cs),
(1135,105,o),
(1089,49,o),
(1020,49,cs),
(705,49,l)
);
}
);
width = 1245;
}
);
note = uni0636;
unicode = 1590;
},
{
glyphname = uni0637;
layers = (
{
layerId = m01;
shapes = (
{
closed = 1;
nodes = (
(391,368,o),
(293,292,o),
(233,190,c),
(233,550,ls),
(233,554,o),
(232,556,o),
(228,556,cs),
(223,556,ls),
(198,556,o),
(182,536,o),
(182,504,cs),
(182,49,l),
(101,49,ls),
(70,49,o),
(54,30,o),
(54,11,cs),
(54,7,ls),
(54,1,o),
(56,0,o),
(62,0,cs),
(553,0,ls),
(643,0,o),
(715,65,o),
(715,177,cs),
(715,301,o),
(625,368,o),
(518,368,cs)
);
},
{
closed = 1;
nodes = (
(267,196,o),
(371,322,o),
(516,322,cs),
(591,322,o),
(662,278,o),
(663,179,cs),
(663,106,o),
(617,49,o),
(549,49,cs),
(233,49,l)
);
}
);
width = 776;
}
);
note = uni0637;
unicode = 1591;
},
{
glyphname = uni0638;
layers = (
{
layerId = m01;
shapes = (
{
closed = 1;
nodes = (
(391,368,o),
(293,292,o),
(233,190,c),
(233,550,ls),
(233,554,o),
(232,556,o),
(228,556,cs),
(223,556,ls),
(198,556,o),
(182,536,o),
(182,504,cs),
(182,49,l),
(101,49,ls),
(70,49,o),
(54,30,o),
(54,11,cs),
(54,7,ls),
(54,1,o),
(56,0,o),
(62,0,cs),
(553,0,ls),
(643,0,o),
(715,65,o),
(715,177,cs),
(715,301,o),
(625,368,o),
(518,368,cs)
);
},
{
closed = 1;
nodes = (
(516,446,o),
(532,463,o),
(532,484,cs),
(532,506,o),
(516,522,o),
(495,522,cs),
(475,522,o),
(458,506,o),
(458,484,cs),
(458,463,o),
(475,446,o),
(495,446,cs)
);
},
{
closed = 1;
nodes = (
(267,196,o),
(371,322,o),
(516,322,cs),
(591,322,o),
(662,278,o),
(663,179,cs),
(663,106,o),
(617,49,o),
(549,49,cs),
(233,49,l)
);
}
);
width = 776;
}
);
note = uni0638;
unicode = 1592;
},
{
glyphname = uni0639;
layers = (
{
layerId = m01;
shapes = (
{
closed = 1;
nodes = (
(60,-65,o),
(101,3,o),
(175,32,c),
(126,64,o),
(98,127,o),
(98,183,cs),
(97,304,o),
(184,368,o),
(280,368,cs),
(339,368,o),
(399,338,o),
(403,308,cs),
(404,300,o),
(401,294,o),
(393,294,cs),
(390,294,o),
(387,296,o),
(383,298,cs),
(364,308,o),
(334,321,o),
(285,321,cs),
(212,322,o),
(149,272,o),
(149,182,cs),
(149,123,o),
(188,49,o),
(276,49,cs),
(410,49,ls),
(441,49,o),
(458,30,o),
(458,11,cs),
(458,7,ls),
(458,1,o),
(456,0,o),
(449,0,cs),
(266,0,ls),
(167,0,o),
(114,-69,o),
(114,-142,cs),
(114,-214,o),
(164,-281,o),
(269,-284,cs),
(306,-285,o),
(336,-283,o),
(372,-271,cs),
(393,-264,o),
(415,-254,o),
(438,-241,cs),
(442,-239,o),
(446,-238,o),
(449,-238,cs),
(454,-238,o),
(458,-242,o),
(458,-247,cs),
(458,-253,o),
(456,-258,o),
(453,-261,c),
(440,-280,o),
(413,-299,o),
(388,-310,cs),
(351,-326,o),
(316,-332,o),
(264,-331,cs),
(131,-328,o),
(60,-241,o),
(60,-141,cs)
);
}
);
width = 518;
}
);
note = uni0639;
unicode = 1593;
},
{
glyphname = uni063A;
layers = (
{
layerId = m01;
shapes = (
{
closed = 1;
nodes = (
(253,523,o),
(237,506,o),
(237,485,cs),
(237,464,o),
(253,447,o),
(274,447,cs),
(295,447,o),
(311,464,o),
(311,485,cs),
(311,506,o),
(295,523,o),
(274,523,cs)
);
},
{
closed = 1;
nodes = (
(60,-65,o),
(101,3,o),
(175,32,c),
(126,64,o),
(98,127,o),
(98,183,cs),
(97,304,o),
(184,368,o),
(280,368,cs),
(339,368,o),
(399,338,o),
(403,308,cs),
(404,300,o),
(401,294,o),
(393,294,cs),
(390,294,o),
(387,296,o),
(383,298,cs),
(364,308,o),
(334,321,o),
(285,321,cs),
(212,322,o),
(149,272,o),
(149,182,cs),
(149,123,o),
(188,49,o),
(276,49,cs),
(410,49,ls),
(441,49,o),
(458,30,o),
(458,11,cs),
(458,7,ls),
(458,1,o),
(456,0,o),
(449,0,cs),
(266,0,ls),
(167,0,o),
(114,-69,o),
(114,-142,cs),
(114,-214,o),
(164,-281,o),
(269,-284,cs),
(306,-285,o),
(336,-283,o),
(372,-271,cs),
(393,-264,o),
(415,-254,o),
(438,-241,cs),
(442,-239,o),
(446,-238,o),
(449,-238,cs),
(454,-238,o),
(458,-242,o),
(458,-247,cs),
(458,-253,o),
(456,-258,o),
(453,-261,c),
(440,-280,o),
(413,-299,o),
(388,-310,cs),
(351,-326,o),
(316,-332,o),
(264,-331,cs),
(131,-328,o),
(60,-241,o),
(60,-141,cs)
);
}
);
width = 518;
}
);
note = uni063A;
unicode = 1594;
},
{
glyphname = uni0640;
layers = (
{
layerId = m01;
shapes = (
{
closed = 1;
nodes = (
(-4,0,l),
(112,0,l),
(112,49,l),
(-4,49,l)
);
}
);
width = 104;
}
);
note = uni0640;
unicode = 1600;
},
{
glyphname = uni0641;
layers = (
{
layerId = m01;
shapes = (
{
closed = 1;
nodes = (
(655,447,o),
(671,464,o),
(671,485,cs),
(671,506,o),
(655,523,o),
(634,523,cs),
(613,523,o),
(597,506,o),
(597,485,cs),
(597,464,o),
(613,447,o),
(634,447,cs)
);
},
{
closed = 1;
nodes = (
(534,368,o),
(467,289,o),
(467,183,cs),
(467,130,o),
(486,79,o),
(521,49,c),
(247,49,ls),
(172,49,o),
(105,74,o),
(105,162,cs),
(105,201,o),
(120,237,o),
(154,277,cs),
(156,280,o),
(158,284,o),
(158,288,cs),
(158,293,o),
(154,298,o),
(147,298,cs),
(142,298,o),
(137,295,o),
(132,292,cs),
(84,256,o),
(60,199,o),
(60,152,cs),
(60,42,o),
(137,0,o),
(245,0,cs),
(636,0,ls),
(730,3,o),
(794,79,o),
(794,183,cs),
(794,289,o),
(727,368,o),
(631,368,cs)
);
},
{
closed = 1;
nodes = (
(561,49,o),
(519,113,o),
(519,184,cs),
(519,256,o),
(561,321,o),
(631,321,cs),
(701,321,o),
(742,256,o),
(742,184,cs),
(742,113,o),
(701,49,o),
(631,49,cs)
);
}
);
width = 854;
}
);
note = uni0641;
unicode = 1601;
},
{
glyphname = uni0642;
layers = (
{
layerId = m01;
shapes = (
{
closed = 1;
nodes = (
(410,443,o),
(425,459,o),
(425,479,cs),
(425,498,o),
(410,513,o),
(391,513,cs),
(372,513,o),
(357,498,o),
(357,479,cs),
(357,459,o),
(372,443,o),
(391,443,cs)
);
},
{
closed = 1;
nodes = (
(508,443,o),
(523,459,o),
(523,479,cs),
(523,498,o),
(508,513,o),
(488,513,cs),
(469,513,o),
(454,498,o),
(454,479,cs),
(454,459,o),
(469,443,o),
(488,443,cs)
);
},
{
closed = 1;
nodes = (
(557,331,o),
(513,368,o),
(439,368,cs),
(346,368,o),
(277,295,o),
(277,178,cs),
(277,73,o),
(337,-8,o),
(437,-9,cs),
(480,-11,o),
(517,1,o),
(551,19,c),
(535,-96,o),
(451,-167,o),
(335,-167,cs),
(214,-167,o),
(111,-88,o),
(109,46,c),
(111,95,o),
(115,146,o),
(161,211,cs),
(163,214,o),
(164,217,o),
(164,219,cs),
(164,227,o),
(158,231,o),
(152,231,cs),
(148,231,o),
(143,228,o),
(139,225,cs),
(91,187,o),
(60,112,o),
(60,34,cs),
(61,-104,o),
(169,-214,o),
(335,-214,cs),
(496,-214,o),
(598,-118,o),
(607,63,cs),
(610,132,o),
(604,221,o),
(582,272,cs)
);
},
{
closed = 1;
nodes = (
(371,38,o),
(328,99,o),
(328,179,cs),
(328,263,o),
(374,321,o),
(441,321,cs),
(487,321,o),
(516,295,o),
(533,256,cs),
(549,221,o),
(556,154,o),
(556,103,cs),
(556,93,o),
(555,83,o),
(554,74,c),
(523,49,o),
(484,38,o),
(441,38,cs)
);
}
);
width = 668;
}
);
note = uni0642;
unicode = 1602;
},
{
glyphname = uni0643;
layers = (
{
layerId = m01;
shapes = (
{
closed = 1;
nodes = (
(647,556,o),
(631,537,o),
(631,505,cs),
(631,156,ls),
(631,93,o),
(599,49,o),
(539,49,cs),
(247,49,ls),
(172,49,o),
(105,74,o),
(105,162,cs),
(105,201,o),
(120,237,o),
(154,277,cs),
(156,280,o),
(158,284,o),
(158,288,cs),
(158,293,o),
(154,298,o),
(147,298,cs),
(142,298,o),
(137,295,o),
(132,292,cs),
(84,256,o),
(60,199,o),
(60,152,cs),
(60,42,o),
(137,0,o),
(245,0,cs),
(537,0,ls),
(624,0,o),
(682,56,o),
(682,155,cs),
(682,551,ls),
(682,554,o),
(680,556,o),
(676,556,cs),
(671,556,ls)
);
},
{
closed = 1;
nodes = (
(299,250,o),
(306,252,o),
(309,253,cs),
(331,261,o),
(351,262,o),
(377,262,cs),
(474,262,ls),
(479,262,o),
(481,263,o),
(481,268,cs),
(481,271,ls),
(481,287,o),
(469,299,o),
(452,299,cs),
(398,299,ls),
(373,299,o),
(355,317,o),
(355,345,cs),
(355,372,o),
(373,389,o),
(401,389,cs),
(413,389,o),
(426,385,o),
(442,378,cs),
(444,377,o),
(449,373,o),
(453,373,cs),
(457,373,o),
(458,378,o),
(457,382,c),
(456,402,o),
(432,426,o),
(393,426,cs),
(348,426,o),
(314,391,o),
(314,346,cs),
(314,323,o),
(321,307,o),
(329,296,c),
(327,296,o),
(326,296,o),
(324,296,c),
(304,291,o),
(292,279,o),
(292,263,cs),
(292,257,o),
(293,250,o),
(298,250,cs)
);
}
);
width = 752;
}
);
note = uni0643;
unicode = 1603;
},
{
glyphname = uni0644;
layers = (
{
layerId = m01;
shapes = (
{
closed = 1;
nodes = (
(428,-214,o),
(538,-128,o),
(538,42,cs),
(538,550,ls),
(538,553,o),
(537,556,o),
(533,556,cs),
(528,556,ls),
(504,556,o),
(487,536,o),
(487,504,cs),
(487,46,ls),
(487,-107,o),
(382,-167,o),
(299,-167,cs),
(212,-167,o),
(108,-107,o),
(111,46,cs),
(112,95,o),
(118,146,o),
(164,211,cs),
(166,214,o),
(167,217,o),
(167,219,cs),
(168,227,o),
(162,231,o),
(156,231,cs),
(151,231,o),
(146,228,o),
(142,225,cs),
(94,187,o),
(61,111,o),
(61,34,cs),
(60,-129,o),
(173,-214,o),
(299,-214,cs)
);
}
);
width = 607;
}
);
note = uni0644;
unicode = 1604;
},
{
glyphname = uni0645;
layers = (
{
layerId = m01;
shapes = (
{
closed = 1;
nodes = (
(283,368,o),
(242,256,o),
(195,154,cs),
(183,131,o),
(175,112,o),
(166,97,c),
(96,88,o),
(49,38,o),
(49,-62,cs),
(49,-282,ls),
(49,-286,o),
(50,-288,o),
(55,-288,cs),
(59,-288,ls),
(83,-288,o),
(100,-268,o),
(100,-237,cs),
(100,-63,ls),
(100,10,o),
(132,45,o),
(183,49,cs),
(189,49,l),
(247,15,o),
(316,-9,o),
(392,-9,cs),
(476,-9,o),
(540,32,o),
(540,153,cs),
(540,277,o),
(484,368,o),
(381,368,cs)
);
},
{
closed = 1;
nodes = (
(350,38,o),
(284,53,o),
(221,89,c),
(230,104,o),
(237,121,o),
(247,144,cs),
(293,247,o),
(331,321,o),
(383,321,cs),
(436,321,o),
(486,279,o),
(486,153,cs),
(486,55,o),
(436,39,o),
(393,38,cs)
);
}
);
width = 609;
}
);
note = uni0645;
unicode = 1605;
},
{
glyphname = uni0646;
layers = (
{
layerId = m01;
shapes = (
{
closed = 1;
nodes = (
(289,406,o),
(273,389,o),
(273,368,cs),
(273,347,o),
(289,330,o),
(309,330,cs),
(331,330,o),
(347,347,o),
(347,368,cs),
(347,389,o),
(331,406,o),
(309,406,cs)
);
},
{
closed = 1;
nodes = (
(428,-214,o),
(538,-128,o),
(538,42,cs),
(538,344,ls),
(538,347,o),
(537,349,o),
(533,349,cs),
(528,349,ls),
(504,349,o),
(487,329,o),
(487,298,cs),
(487,46,ls),
(487,-107,o),
(382,-167,o),
(299,-167,cs),
(212,-167,o),
(108,-107,o),
(111,46,cs),
(112,95,o),
(118,146,o),
(164,211,cs),
(166,214,o),
(167,217,o),
(167,219,cs),
(168,227,o),
(162,231,o),
(156,231,cs),
(151,231,o),
(146,228,o),
(142,225,cs),
(94,187,o),
(61,111,o),
(61,34,cs),
(60,-129,o),
(173,-214,o),
(299,-214,cs)
);
}
);
width = 607;
}
);
note = uni0646;
unicode = 1606;
},
{
glyphname = uni0647;
layers = (
{
layerId = m01;
shapes = (
{
closed = 1;
nodes = (
(293,345,ls),
(258,373,o),
(229,388,o),
(207,436,cs),
(204,441,o),
(203,443,o),
(199,442,cs),
(197,442,o),
(196,441,o),
(193,440,c),
(177,431,o),
(169,412,o),
(180,388,cs),
(187,376,o),
(193,368,o),
(202,359,c),
(96,318,o),
(60,239,o),
(60,168,cs),
(60,58,o),
(130,-9,o),
(225,-9,cs),
(326,-9,o),
(391,64,o),
(391,168,cs),
(391,231,o),
(367,280,o),
(311,330,cs)
);
},
{
closed = 1;
nodes = (
(163,38,o),
(112,90,o),
(113,166,cs),
(113,227,o),
(139,287,o),
(236,324,c),
(265,300,o),
(276,292,o),
(295,271,cs),
(328,236,o),
(337,201,o),
(338,171,cs),
(339,89,o),
(288,38,o),
(225,38,cs)
);
}
);
width = 451;
}
);
note = uni0647;
unicode = 1607;
},
{
glyphname = uni0648;
layers = (
{
layerId = m01;
shapes = (
{
closed = 1;
nodes = (
(341,331,o),
(296,368,o),
(223,368,cs),
(129,368,o),
(60,295,o),
(60,178,cs),
(60,73,o),
(121,-8,o),
(221,-9,cs),
(263,-11,o),
(301,1,o),
(338,21,c),
(335,-65,o),
(311,-137,o),
(247,-159,cs),
(232,-165,o),
(211,-167,o),
(191,-167,cs),
(159,-167,o),
(133,-162,o),
(102,-151,cs),
(99,-150,o),
(95,-149,o),
(92,-149,cs),
(85,-149,o),
(81,-152,o),
(81,-158,c),
(81,-158,o),
(82,-159,o),
(82,-161,cs),
(84,-172,o),
(92,-180,o),
(106,-189,cs),
(131,-204,o),
(161,-214,o),
(206,-214,cs),
(271,-214,o),
(326,-185,o),
(354,-132,cs),
(389,-66,o),
(391,13,o),
(391,113,cs),
(390,171,o),
(383,233,o),
(366,272,cs)
);
},
{
closed = 1;
nodes = (
(154,38,o),
(112,99,o),
(112,179,cs),
(112,263,o),
(158,321,o),
(224,321,cs),
(271,321,o),
(299,295,o),
(317,256,cs),
(332,222,o),
(339,159,o),
(339,109,cs),
(339,97,o),
(338,85,o),
(338,74,c),
(306,49,o),
(268,38,o),
(224,38,cs)
);
}
);
width = 451;
}
);
note = uni0648;
unicode = 1608;
},
{
glyphname = uni0649;
layers = (
{
layerId = m01;
shapes = (
{
closed = 1;
nodes = (
(481,-215,o),
(591,-128,o),
(606,-7,cs),
(614,63,o),
(531,73,o),
(443,91,cs),
(388,102,o),
(329,139,o),
(329,201,cs),
(329,281,o),
(391,321,o),
(457,321,cs),
(503,321,o),
(531,309,o),
(549,298,cs),
(553,296,o),
(557,294,o),
(560,294,cs),
(567,294,o),
(570,301,o),
(570,308,cs),
(570,322,o),
(559,334,o),
(547,343,cs),
(528,357,o),
(500,368,o),
(451,368,cs),
(362,368,o),
(278,311,o),
(278,201,cs),
(278,116,o),
(346,65,o),
(418,47,cs),
(486,31,o),
(561,32,o),
(552,-16,cs),
(535,-108,o),
(438,-167,o),
(333,-167,cs),
(212,-167,o),
(111,-88,o),
(109,45,c),
(111,94,o),
(115,145,o),
(161,210,c),
(163,214,o),
(164,217,o),
(164,219,cs),
(164,226,o),
(158,231,o),
(152,231,cs),
(148,231,o),
(143,228,o),
(139,224,c),
(91,187,o),
(60,111,o),
(60,34,cs),
(61,-104,o),
(169,-215,o),
(333,-215,cs)
);
}
);
width = 663;
}
);
note = uni0649;
unicode = 1609;
},
{
glyphname = uni064A;
layers = (
{
layerId = m01;
shapes = (
{
closed = 1;
nodes = (
(481,-215,o),
(591,-128,o),
(606,-7,cs),
(614,63,o),
(531,73,o),
(443,91,cs),
(388,102,o),
(329,139,o),
(329,201,cs),
(329,281,o),
(391,321,o),
(457,321,cs),
(503,321,o),
(531,309,o),
(549,298,cs),
(553,296,o),
(557,294,o),
(560,294,cs),
(567,294,o),
(570,301,o),
(570,308,cs),
(570,322,o),
(559,334,o),
(547,343,cs),
(528,357,o),
(500,368,o),
(451,368,cs),
(362,368,o),
(278,311,o),
(278,201,cs),
(278,116,o),
(346,65,o),
(418,47,cs),
(486,31,o),
(561,32,o),
(552,-16,cs),
(535,-108,o),
(438,-167,o),
(333,-167,cs),
(212,-167,o),
(111,-88,o),
(109,45,c),
(111,94,o),
(115,145,o),
(161,210,c),
(163,214,o),
(164,217,o),
(164,219,cs),
(164,226,o),
(158,231,o),
(152,231,cs),
(148,231,o),
(143,228,o),
(139,224,c),
(91,187,o),
(60,111,o),
(60,34,cs),
(61,-104,o),
(169,-215,o),
(333,-215,cs)
);
},
{
closed = 1;
nodes = (
(264,-288,o),
(249,-303,o),
(249,-323,cs),
(249,-343,o),
(264,-358,o),
(283,-358,cs),
(302,-358,o),
(317,-343,o),
(317,-323,cs),
(317,-303,o),
(302,-288,o),
(283,-288,cs)
);
},
{
closed = 1;
nodes = (
(362,-288,o),
(347,-303,o),
(347,-323,cs),
(347,-343,o),
(362,-358,o),
(381,-358,cs),
(400,-358,o),
(415,-343,o),
(415,-323,cs),
(415,-303,o),
(400,-288,o),
(381,-288,cs)
);
}
);
width = 663;
}
);
note = uni064A;
unicode = 1610;
},
{
glyphname = uni064B;
layers = (
{
layerId = m01;
shapes = (
{
closed = 1;
nodes = (
(53,742,o),
(40,741,o),
(30,739,cs),
(12,736,o),
(1,724,o),
(1,709,cs),
(1,703,o),
(2,697,o),
(7,697,cs),
(8,697,o),
(13,699,o),
(17,701,c),
(37,707,o),
(55,708,o),
(71,708,cs),
(155,708,ls),
(160,708,o),
(162,709,o),
(162,714,cs),
(162,717,ls),
(162,732,o),
(151,742,o),
(135,742,cs),
(80,742,ls)
);
},
{
closed = 1;
nodes = (
(53,661,o),
(40,659,o),
(30,657,cs),
(12,654,o),
(1,642,o),
(1,628,cs),
(1,622,o),
(2,616,o),
(7,616,cs),
(8,616,o),
(13,618,o),
(17,619,cs),
(37,626,o),
(55,627,o),
(71,627,cs),
(155,627,ls),
(160,627,o),
(162,628,o),
(162,632,cs),
(162,635,ls),
(162,650,o),
(151,661,o),
(135,661,cs),
(80,661,ls)
);
}
);
width = 0;
}
);
note = uni064B;
unicode = 1611;
},
{
glyphname = uni064C;
layers = (
{
layerId = m01;
shapes = (
{
closed = 1;
nodes = (
(126,634,o),
(101,609,o),
(102,576,cs),
(102,557,o),
(116,534,o),
(132,520,c),
(123,513,ls),
(119,509,o),
(115,507,o),
(110,507,cs),
(104,507,o),
(100,511,o),
(92,517,c),
(74,534,o),
(62,540,o),
(47,540,cs),
(32,540,o),
(19,532,o),
(13,519,cs),
(8,506,o),
(9,489,o),
(16,481,cs),
(21,476,o),
(25,477,o),
(27,482,cs),
(35,496,o),
(40,506,o),
(49,506,cs),
(56,506,o),
(63,499,o),
(70,492,cs),
(87,478,o),
(97,472,o),
(108,472,cs),
(116,472,o),
(126,475,o),
(136,482,cs),
(157,498,l),
(169,487,ls),
(173,484,o),
(175,483,o),
(179,486,cs),
(189,495,o),
(191,508,o),
(183,519,c),
(201,533,o),
(219,551,o),
(220,576,cs),
(220,609,o),
(196,634,o),
(161,634,cs)
);
},
{
closed = 1;
nodes = (
(186,565,o),
(178,554,o),
(159,539,c),
(144,552,o),
(136,564,o),
(135,576,cs),
(135,593,o),
(145,604,o),
(162,604,cs),
(176,604,o),
(187,591,o),
(186,576,cs)
);
}
);
width = 0;
}
);
note = uni064C;
unicode = 1612;
},
{
glyphname = uni064D;
layers = (
{
layerId = m01;
shapes = (
{
closed = 1;
nodes = (
(54,-77,o),
(41,-78,o),
(31,-80,cs),
(13,-83,o),
(2,-95,o),
(2,-109,cs),
(2,-116,o),
(3,-122,o),
(8,-122,cs),
(9,-122,o),
(14,-119,o),
(18,-118,cs),
(38,-112,o),
(56,-111,o),
(72,-111,cs),
(156,-111,ls),
(161,-111,o),
(163,-109,o),
(163,-105,cs),
(163,-102,ls),
(163,-87,o),
(152,-77,o),
(136,-77,cs),
(81,-77,ls)
);
},
{
closed = 1;
nodes = (
(54,-158,o),
(41,-160,o),
(31,-162,cs),
(13,-165,o),
(2,-177,o),
(2,-191,cs),
(2,-197,o),
(3,-203,o),
(8,-203,cs),
(9,-203,o),
(14,-201,o),
(18,-200,cs),
(38,-193,o),
(56,-192,o),
(72,-192,cs),
(156,-192,ls),
(161,-192,o),
(163,-191,o),
(163,-187,cs),
(163,-184,ls),
(163,-169,o),
(152,-158,o),
(136,-158,cs),
(81,-158,ls)
);
}
);
width = 0;
}
);
note = uni064D;
unicode = 1613;
},
{
glyphname = uni064E;
layers = (
{
layerId = m01;
shapes = (
{
closed = 1;
nodes = (
(53,661,o),
(40,659,o),
(30,657,cs),
(12,654,o),
(1,642,o),
(1,628,cs),
(1,622,o),
(2,616,o),
(7,616,cs),
(8,616,o),
(13,618,o),
(17,619,cs),
(37,626,o),
(55,627,o),
(71,627,cs),
(155,627,ls),
(160,627,o),
(162,628,o),
(162,632,cs),
(162,635,ls),
(162,650,o),
(151,661,o),
(135,661,cs),
(80,661,ls)
);
}
);
width = 0;
}
);
note = uni064E;
unicode = 1614;
},
{
glyphname = uni064F;
layers = (
{
layerId = m01;
shapes = (
{
closed = 1;
nodes = (
(65,658,o),
(40,633,o),
(40,600,cs),
(41,582,o),
(53,561,o),
(67,547,c),
(34,522,o),
(13,511,o),
(-9,499,cs),
(-13,497,o),
(-13,494,o),
(-10,491,cs),
(-8,489,ls),
(-2,483,o),
(5,479,o),
(13,479,cs),
(19,479,o),
(23,481,o),
(31,484,cs),
(43,490,o),
(61,503,o),
(93,525,c),
(108,511,l),
(111,507,o),
(114,506,o),
(118,509,cs),
(131,521,o),
(126,535,o),
(122,542,c),
(139,557,o),
(158,573,o),
(158,599,cs),
(159,632,o),
(135,657,o),
(100,658,cs)
);
},
{
closed = 1;
nodes = (
(125,588,o),
(116,577,o),
(97,563,c),
(82,576,o),
(75,588,o),
(74,599,cs),
(73,617,o),
(84,628,o),
(101,628,cs),
(114,628,o),
(126,615,o),
(125,599,cs)
);
}
);
width = 0;
}
);
note = uni064F;
unicode = 1615;
},
{
glyphname = uni0650;
layers = (
{
layerId = m01;
shapes = (
{
closed = 1;
nodes = (
(54,-77,o),
(41,-78,o),
(31,-80,cs),
(13,-83,o),
(2,-95,o),
(2,-109,cs),
(2,-116,o),
(3,-122,o),
(8,-122,cs),
(9,-122,o),
(14,-119,o),
(18,-118,cs),
(38,-112,o),
(56,-111,o),
(72,-111,cs),
(156,-111,ls),
(161,-111,o),
(163,-109,o),
(163,-105,cs),
(163,-102,ls),
(163,-87,o),
(152,-77,o),
(136,-77,cs),
(81,-77,ls)
);
}
);
width = 0;
}
);
note = uni0650;
unicode = 1616;
},
{
glyphname = uni0651;
layers = (
{
layerId = m01;
shapes = (
{
closed = 1;
nodes = (
(221,604,o),
(213,601,o),
(208,593,cs),
(203,586,o),
(201,576,o),
(201,563,cs),
(201,539,ls),
(201,516,o),
(192,505,o),
(173,505,cs),
(154,505,o),
(145,516,o),
(145,539,cs),
(145,599,ls),
(145,602,o),
(144,604,o),
(141,604,cs),
(137,604,ls),
(128,604,o),
(120,601,o),
(115,593,cs),
(110,585,o),
(108,576,o),
(108,563,cs),
(108,539,ls),
(108,516,o),
(99,505,o),
(80,505,cs),
(61,505,o),
(52,516,o),
(52,539,cs),
(52,599,ls),
(52,602,o),
(51,604,o),
(47,604,cs),
(44,604,ls),
(34,604,o),
(26,600,o),
(21,592,cs),
(16,583,o),
(15,573,o),
(15,563,cs),
(15,545,ls),
(15,500,o),
(38,472,o),
(81,471,cs),
(98,471,o),
(114,478,o),
(126,491,c),
(137,478,o),
(154,471,o),
(173,471,cs),
(214,472,o),
(238,500,o),
(238,545,cs),
(238,599,ls),
(238,603,o),
(237,604,o),
(233,604,cs),
(231,604,ls)
);
}
);
width = 0;
}
);
note = uni0651;
unicode = 1617;
},
{
glyphname = uni0652;
layers = (
{
layerId = m01;
shapes = (
{
closed = 1;
nodes = (
(92,472,o),
(116,497,o),
(116,532,cs),
(116,568,o),
(92,592,o),
(56,592,cs),
(21,592,o),
(-3,568,o),
(-3,532,cs),
(-3,497,o),
(21,472,o),
(56,472,cs)
);
},
{
closed = 1;
nodes = (
(41,501,o),
(30,514,o),
(30,532,cs),
(30,551,o),
(41,564,o),
(56,564,cs),
(72,564,o),
(84,551,o),
(84,532,cs),
(84,514,o),
(72,501,o),
(56,501,cs)
);
}
);
width = 0;
}
);
note = uni0652;
unicode = 1618;
},
{
glyphname = uni0653;
layers = (
{
layerId = m01;
shapes = (
{
closed = 1;
nodes = (
(138,626,o),
(88,654,o),
(69,654,cs),
(61,654,o),
(54,649,o),
(49,642,cs),
(45,637,o),
(43,632,o),
(40,628,cs),
(38,626,o),
(33,626,o),
(31,629,cs),
(27,636,o),
(26,644,o),
(27,653,cs),
(30,672,o),
(42,688,o),
(64,688,cs),
(93,688,o),
(143,659,o),
(162,659,cs),
(170,659,o),
(177,664,o),
(182,672,cs),
(186,677,o),
(188,682,o),
(191,686,cs),
(193,688,o),
(198,688,o),
(200,685,cs),
(204,678,o),
(205,669,o),
(204,661,cs),
(201,642,o),
(189,626,o),
(167,626,cs)
);
}
);
width = 0;
}
);
note = uni0653;
unicode = 1619;
},
{
glyphname = uni0654;
layers = (
{
layerId = m01;
shapes = (
{
closed = 1;
nodes = (
(110,658,o),
(94,674,o),
(94,699,cs),
(94,723,o),
(111,739,o),
(134,739,cs),
(144,739,o),
(154,736,o),
(166,729,c),
(169,728,o),
(174,724,o),
(177,724,cs),
(181,724,o),
(182,729,o),
(181,732,c),
(180,752,o),
(159,773,o),
(126,773,cs),
(84,773,o),
(56,741,o),
(56,700,cs),
(56,679,o),
(64,664,o),
(71,654,c),
(53,651,o),
(42,639,o),
(42,625,cs),
(42,619,o),
(43,613,o),
(48,613,cs),
(49,613,o),
(54,615,o),
(58,616,cs),
(78,623,o),
(91,624,o),
(114,624,cs),
(196,624,ls),
(201,624,o),
(203,625,o),
(203,629,cs),
(203,632,ls),
(203,647,o),
(192,658,o),
(176,658,cs),
(131,658,ls)
);
}
);
width = 0;
}
);
note = uni0654;
unicode = 1620;
},
{
glyphname = uni0655;
layers = (
{
layerId = m01;
shapes = (
{
closed = 1;
nodes = (
(82,-192,o),
(66,-176,o),
(66,-151,cs),
(66,-127,o),
(83,-111,o),
(106,-111,cs),
(116,-111,o),
(126,-114,o),
(138,-121,c),
(141,-122,o),
(146,-126,o),
(149,-126,cs),
(153,-126,o),
(154,-121,o),
(153,-118,c),
(152,-98,o),
(131,-77,o),
(98,-77,cs),
(56,-77,o),
(28,-109,o),
(28,-150,cs),
(28,-171,o),
(36,-186,o),
(43,-196,c),
(25,-199,o),
(14,-211,o),
(14,-225,cs),
(14,-231,o),
(15,-237,o),
(20,-237,cs),
(21,-237,o),
(26,-235,o),
(30,-234,cs),
(50,-227,o),
(63,-226,o),
(86,-226,cs),
(168,-226,ls),
(173,-226,o),
(175,-225,o),
(175,-221,cs),
(175,-218,ls),
(175,-203,o),
(164,-192,o),
(148,-192,cs),
(103,-192,ls)
);
}
);
width = 0;
}
);
note = uni0655;
unicode = 1621;
},
{
glyphname = uni065A;
layers = (
{
layerId = m01;
shapes = (
{
closed = 1;
nodes = (
(223,408,o),
(214,399,o),
(208,383,cs),
(185,331,l),
(162,383,ls),
(155,399,o),
(146,408,o),
(128,408,cs),
(123,408,o),
(121,407,o),
(123,403,cs),
(166,301,ls),
(168,297,o),
(171,294,o),
(175,294,cs),
(195,294,ls),
(199,294,o),
(202,297,o),
(204,301,cs),
(247,403,l),
(248,407,o),
(247,408,o),
(242,408,cs)
);
}
);
width = 333;
}
);
note = uni065A;
unicode = 1626;
},
{
glyphname = zero.ar;
layers = (
{
layerId = m01;
shapes = (
{
closed = 1;
nodes = (
(165,37,o),
(105,92,o),
(105,277,cs),
(105,463,o),
(163,519,o),
(250,519,cs),
(336,519,o),
(394,463,o),
(394,277,cs),
(394,92,o),
(334,37,o),
(250,37,cs)
);
},
{
closed = 1;
nodes = (
(377,-10,o),
(444,87,o),
(444,277,cs),
(444,468,o),
(374,567,o),
(250,567,cs),
(125,567,o),
(55,468,o),
(55,277,cs),
(55,87,o),
(122,-10,o),
(250,-10,cs)
);
}
);
width = 498;
}
);
note = zero.ar;
unicode = 1632;
},
{
glyphname = one.ar;
layers = (
{
layerId = m01;
shapes = (
{
closed = 1;
nodes = (
(46,47,ls),
(42,47,o),
(41,45,o),
(41,41,cs),
(41,6,ls),
(41,2,o),
(42,0,o),
(46,0,cs),
(305,0,ls),
(312,0,o),
(314,2,o),
(314,7,cs),
(314,18,ls),
(314,37,o),
(304,47,o),
(284,47,cs),
(203,47,l),
(203,508,ls),
(203,539,o),
(191,556,o),
(167,556,cs),
(159,556,ls),
(144,556,o),
(132,553,o),
(113,547,cs),
(50,524,l),
(45,523,o),
(43,519,o),
(43,513,cs),
(43,474,ls),
(43,472,o),
(45,469,o),
(48,471,c),
(152,509,l),
(152,47,l)
);
}
);
width = 340;
}
);
note = one.ar;
unicode = 1633;
},
{
glyphname = two.ar;
layers = (
{
layerId = m01;
shapes = (
{
closed = 1;
nodes = (
(106,199,o),
(379,221,o),
(379,409,cs),
(379,508,o),
(319,567,o),
(211,567,cs),
(158,567,o),
(115,551,o),
(83,533,cs),
(58,521,o),
(45,509,o),
(51,489,cs),
(56,474,ls),
(58,469,o),
(59,466,o),
(63,466,cs),
(67,466,o),
(71,468,o),
(76,472,cs),
(118,502,o),
(163,519,o),
(208,519,cs),
(285,519,o),
(329,479,o),
(329,409,cs),
(329,234,o),
(42,243,o),
(42,6,cs),
(42,2,o),
(43,0,o),
(47,0,cs),
(374,0,ls),
(379,0,o),
(381,2,o),
(381,7,cs),
(381,18,ls),
(381,37,o),
(371,47,o),
(351,47,cs),
(95,47,l)
);
}
);
width = 436;
}
);
note = two.ar;
unicode = 1634;
},
{
glyphname = three.ar;
layers = (
{
layerId = m01;
shapes = (
{
closed = 1;
nodes = (
(345,315,o),
(372,366,o),
(372,423,cs),
(372,512,o),
(306,567,o),
(199,567,cs),
(147,567,o),
(100,548,o),
(74,533,cs),
(50,519,o),
(36,509,o),
(42,489,cs),
(47,474,ls),
(49,469,o),
(50,466,o),
(54,466,cs),
(58,466,o),
(61,468,o),
(67,472,cs),
(109,502,o),
(148,519,o),
(199,519,cs),
(262,519,o),
(322,497,o),
(322,419,cs),
(322,349,o),
(278,316,o),
(206,316,cs),
(118,316,ls),
(113,316,o),
(110,313,o),
(110,308,cs),
(110,298,ls),
(110,279,o),
(120,270,o),
(140,270,cs),
(192,270,ls),
(263,270,o),
(337,240,o),
(337,151,cs),
(337,84,o),
(283,37,o),
(201,37,cs),
(139,37,o),
(91,63,o),
(55,115,cs),
(50,122,o),
(47,125,o),
(41,125,cs),
(33,125,o),
(29,115,o),
(29,106,cs),
(29,64,o),
(87,-10,o),
(205,-10,cs),
(314,-10,o),
(388,56,o),
(388,151,cs),
(388,247,o),
(316,285,o),
(276,291,c)
);
}
);
width = 434;
}
);
note = three.ar;
unicode = 1635;
},
